<svg version="1.1" viewBox="0.0 0.0 784.3963254593176 598.9658792650919" fill="none" stroke="none" stroke-linecap="square" stroke-miterlimit="10" xmlns:xlink="http://www.w3.org/1999/xlink" xmlns="http://www.w3.org/2000/svg"><clipPath id="p.0"><path d="m0 0l784.3963 0l0 598.9659l-784.3963 0l0 -598.9659z" clip-rule="nonzero"/></clipPath><g clip-path="url(#p.0)"><path fill="#000000" fill-opacity="0.0" d="m0 0l784.3963 0l0 598.9659l-784.3963 0z" fill-rule="evenodd"/><path fill="#ffffff" d="m-321.20734 83.273125l0 0c0 -4.427063 3.5888367 -8.015907 8.0159 -8.015907l32.062653 0l0 0c2.1259766 0 4.164856 0.8445282 5.6681213 2.3478088c1.5032654 1.503273 2.3478088 3.5421524 2.3478088 5.6680984l0 34.39338c0 4.427063 -3.5888367 8.015907 -8.01593 8.015907l-32.062653 0l0 0c-4.427063 0 -8.0159 -3.5888443 -8.0159 -8.015907z" fill-rule="evenodd"/><path stroke="#000000" stroke-width="1.0" stroke-linejoin="round" stroke-linecap="butt" d="m-321.20734 83.273125l0 0c0 -4.427063 3.5888367 -8.015907 8.0159 -8.015907l32.062653 0l0 0c2.1259766 0 4.164856 0.8445282 5.6681213 2.3478088c1.5032654 1.503273 2.3478088 3.5421524 2.3478088 5.6680984l0 34.39338c0 4.427063 -3.5888367 8.015907 -8.01593 8.015907l-32.062653 0l0 0c-4.427063 0 -8.0159 -3.5888443 -8.0159 -8.015907z" fill-rule="evenodd"/><path fill="#efefef" d="m-245.94751 84.43849l0 0c0 -4.641609 3.7627716 -8.404373 8.404373 -8.404373l80.95505 0c2.2289734 0 4.3666534 0.8854599 5.9427795 2.461586c1.5761261 1.5761261 2.4615784 3.7138062 2.4615784 5.942787l0 33.616455c0 4.641609 -3.7627563 8.404373 -8.404358 8.404373l-80.95505 0c-4.6416016 0 -8.404373 -3.762764 -8.404373 -8.404373z" fill-rule="evenodd"/><path stroke="#000000" stroke-width="1.0" stroke-linejoin="round" stroke-linecap="butt" d="m-245.94751 84.43849l0 0c0 -4.641609 3.7627716 -8.404373 8.404373 -8.404373l80.95505 0c2.2289734 0 4.3666534 0.8854599 5.9427795 2.461586c1.5761261 1.5761261 2.4615784 3.7138062 2.4615784 5.942787l0 33.616455c0 4.641609 -3.7627563 8.404373 -8.404358 8.404373l-80.95505 0c-4.6416016 0 -8.404373 -3.762764 -8.404373 -8.404373z" fill-rule="evenodd"/><path fill="#000000" fill-opacity="0.0" d="m-197.06561 76.03412l0 50.4252" fill-rule="evenodd"/><path stroke="#000000" stroke-width="1.0" stroke-linejoin="round" stroke-linecap="butt" d="m-197.06561 76.03412l0 50.4252" fill-rule="evenodd"/><path fill="#000000" d="m-225.7769 101.24568l0 0c0 -3.0006027 2.4324646 -5.433075 5.433075 -5.433075l0 0c1.4409332 0 2.8228607 0.5724106 3.841751 1.5913086c1.0189056 1.018898 1.5913086 2.4008255 1.5913086 3.8417664l0 0c0 3.000595 -2.4324646 5.4330673 -5.4330597 5.4330673l0 0c-3.0006104 0 -5.433075 -2.4324722 -5.433075 -5.4330673z" fill-rule="evenodd"/><path stroke="#000000" stroke-width="1.0" stroke-linejoin="round" stroke-linecap="butt" d="m-225.7769 101.24568l0 0c0 -3.0006027 2.4324646 -5.433075 5.433075 -5.433075l0 0c1.4409332 0 2.8228607 0.5724106 3.841751 1.5913086c1.0189056 1.018898 1.5913086 2.4008255 1.5913086 3.8417664l0 0c0 3.000595 -2.4324646 5.4330673 -5.4330597 5.4330673l0 0c-3.0006104 0 -5.433075 -2.4324722 -5.433075 -5.4330673z" fill-rule="evenodd"/><path fill="#000000" d="m-178.74437 101.24568l0 0c0 -3.0006027 2.4324799 -5.433075 5.433075 -5.433075l0 0c1.4409332 0 2.8228607 0.5724106 3.8417664 1.5913086c1.0188904 1.018898 1.5913086 2.4008255 1.5913086 3.8417664l0 0c0 3.000595 -2.4324799 5.4330673 -5.433075 5.4330673l0 0c-3.000595 0 -5.433075 -2.4324722 -5.433075 -5.4330673z" fill-rule="evenodd"/><path stroke="#000000" stroke-width="1.0" stroke-linejoin="round" stroke-linecap="butt" d="m-178.74437 101.24568l0 0c0 -3.0006027 2.4324799 -5.433075 5.433075 -5.433075l0 0c1.4409332 0 2.8228607 0.5724106 3.8417664 1.5913086c1.0188904 1.018898 1.5913086 2.4008255 1.5913086 3.8417664l0 0c0 3.000595 -2.4324799 5.4330673 -5.433075 5.4330673l0 0c-3.000595 0 -5.433075 -2.4324722 -5.433075 -5.4330673z" fill-rule="evenodd"/><path fill="#efefef" d="m-121.01837 83.66158l0 0c0 -4.6416016 3.762764 -8.404366 8.404366 -8.404366l80.95505 0c2.2289772 0 4.366661 0.8854599 5.9427853 2.461586c1.5761242 1.5761185 2.4615822 3.7138062 2.4615822 5.9427795l0 33.616463c0 4.641609 -3.762764 8.404366 -8.404367 8.404366l-80.95505 0c-4.6416016 0 -8.404366 -3.7627563 -8.404366 -8.404366z" fill-rule="evenodd"/><path stroke="#000000" stroke-width="1.0" stroke-linejoin="round" stroke-linecap="butt" d="m-121.01837 83.66158l0 0c0 -4.6416016 3.762764 -8.404366 8.404366 -8.404366l80.95505 0c2.2289772 0 4.366661 0.8854599 5.9427853 2.461586c1.5761242 1.5761185 2.4615822 3.7138062 2.4615822 5.9427795l0 33.616463c0 4.641609 -3.762764 8.404366 -8.404367 8.404366l-80.95505 0c-4.6416016 0 -8.404366 -3.7627563 -8.404366 -8.404366z" fill-rule="evenodd"/><path fill="#000000" fill-opacity="0.0" d="m-72.13648 75.25722l0 50.425194" fill-rule="evenodd"/><path stroke="#000000" stroke-width="1.0" stroke-linejoin="round" stroke-linecap="butt" d="m-72.13648 75.25722l0 50.425194" fill-rule="evenodd"/><path fill="#000000" fill-opacity="0.0" d="m-72.13648 125.68241l46.519684 -48.094482" fill-rule="evenodd"/><path stroke="#000000" stroke-width="1.0" stroke-linejoin="round" stroke-linecap="butt" d="m-72.13648 125.68241l46.519684 -48.094482" fill-rule="evenodd"/><path fill="#000000" d="m-100.676125 101.24568l0 0c0 -3.0006027 2.4324722 -5.433075 5.4330673 -5.433075l0 0c1.4409409 0 2.8228683 0.5724106 3.8417664 1.5913086c1.018898 1.018898 1.5913086 2.4008255 1.5913086 3.8417664l0 0c0 3.000595 -2.4324722 5.4330673 -5.433075 5.4330673l0 0c-3.000595 0 -5.4330673 -2.4324722 -5.4330673 -5.4330673z" fill-rule="evenodd"/><path stroke="#000000" stroke-width="1.0" stroke-linejoin="round" stroke-linecap="butt" d="m-100.676125 101.24568l0 0c0 -3.0006027 2.4324722 -5.433075 5.4330673 -5.433075l0 0c1.4409409 0 2.8228683 0.5724106 3.8417664 1.5913086c1.018898 1.018898 1.5913086 2.4008255 1.5913086 3.8417664l0 0c0 3.000595 -2.4324722 5.4330673 -5.433075 5.4330673l0 0c-3.000595 0 -5.4330673 -2.4324722 -5.4330673 -5.4330673z" fill-rule="evenodd"/><path fill="#efefef" d="m52.535435 25.11303l0 0c0 -4.6416054 3.7627602 -8.404367 8.404366 -8.404367l80.95505 0c2.2289734 0 4.3666534 0.8854561 5.9427795 2.4615822c1.5761261 1.5761242 2.4615784 3.713808 2.4615784 5.9427853l0 33.616463c0 4.6416016 -3.7627563 8.404366 -8.404358 8.404366l-80.95505 0c-4.6416054 0 -8.404366 -3.762764 -8.404366 -8.404366z" fill-rule="evenodd"/><path stroke="#000000" stroke-width="1.0" stroke-linejoin="round" stroke-linecap="butt" d="m52.535435 25.11303l0 0c0 -4.6416054 3.7627602 -8.404367 8.404366 -8.404367l80.95505 0c2.2289734 0 4.3666534 0.8854561 5.9427795 2.4615822c1.5761261 1.5761242 2.4615784 3.713808 2.4615784 5.9427853l0 33.616463c0 4.6416016 -3.7627563 8.404366 -8.404358 8.404366l-80.95505 0c-4.6416054 0 -8.404366 -3.762764 -8.404366 -8.404366z" fill-rule="evenodd"/><path fill="#000000" fill-opacity="0.0" d="m101.41732 16.708662l0 50.425194" fill-rule="evenodd"/><path stroke="#000000" stroke-width="1.0" stroke-linejoin="round" stroke-linecap="butt" d="m101.41732 16.708662l0 50.425194" fill-rule="evenodd"/><path fill="#000000" d="m72.23097 41.92022l0 0c0 -3.0006027 2.4324646 -5.433071 5.4330673 -5.433071l0 0c1.4409409 0 2.8228683 0.5724106 3.8417664 1.5913086c1.018898 1.018898 1.5913086 2.4008217 1.5913086 3.8417625l0 0c0 3.0006027 -2.4324722 5.433071 -5.433075 5.433071l0 0c-3.0006027 0 -5.4330673 -2.4324684 -5.4330673 -5.433071z" fill-rule="evenodd"/><path stroke="#000000" stroke-width="1.0" stroke-linejoin="round" stroke-linecap="butt" d="m72.23097 41.92022l0 0c0 -3.0006027 2.4324646 -5.433071 5.4330673 -5.433071l0 0c1.4409409 0 2.8228683 0.5724106 3.8417664 1.5913086c1.018898 1.018898 1.5913086 2.4008217 1.5913086 3.8417625l0 0c0 3.0006027 -2.4324722 5.433071 -5.433075 5.433071l0 0c-3.0006027 0 -5.4330673 -2.4324684 -5.4330673 -5.433071z" fill-rule="evenodd"/><path fill="#000000" d="m119.73857 41.92022l0 0c0 -3.0006027 2.4324722 -5.433071 5.433075 -5.433071l0 0c1.4409409 0 2.8228607 0.5724106 3.8417664 1.5913086c1.0188904 1.018898 1.5913086 2.4008217 1.5913086 3.8417625l0 0c0 3.0006027 -2.4324799 5.433071 -5.433075 5.433071l0 0c-3.0006027 0 -5.433075 -2.4324684 -5.433075 -5.433071z" fill-rule="evenodd"/><path stroke="#000000" stroke-width="1.0" stroke-linejoin="round" stroke-linecap="butt" d="m119.73857 41.92022l0 0c0 -3.0006027 2.4324722 -5.433071 5.433075 -5.433071l0 0c1.4409409 0 2.8228607 0.5724106 3.8417664 1.5913086c1.0188904 1.018898 1.5913086 2.4008217 1.5913086 3.8417625l0 0c0 3.0006027 -2.4324799 5.433071 -5.433075 5.433071l0 0c-3.0006027 0 -5.433075 -2.4324684 -5.433075 -5.433071z" fill-rule="evenodd"/><path fill="#efefef" d="m235.34383 25.11303l0 0c0 -4.6416054 3.7627716 -8.404367 8.404373 -8.404367l80.95505 0c2.2289734 0 4.3666687 0.8854561 5.9427795 2.4615822c1.5761414 1.5761242 2.4615784 3.713808 2.4615784 5.9427853l0 33.616463c0 4.6416016 -3.7627563 8.404366 -8.404358 8.404366l-80.95505 0c-4.6416016 0 -8.404373 -3.762764 -8.404373 -8.404366z" fill-rule="evenodd"/><path stroke="#000000" stroke-width="1.0" stroke-linejoin="round" stroke-linecap="butt" d="m235.34383 25.11303l0 0c0 -4.6416054 3.7627716 -8.404367 8.404373 -8.404367l80.95505 0c2.2289734 0 4.3666687 0.8854561 5.9427795 2.4615822c1.5761414 1.5761242 2.4615784 3.713808 2.4615784 5.9427853l0 33.616463c0 4.6416016 -3.7627563 8.404366 -8.404358 8.404366l-80.95505 0c-4.6416016 0 -8.404373 -3.762764 -8.404373 -8.404366z" fill-rule="evenodd"/><path fill="#000000" fill-opacity="0.0" d="m284.2257 16.708662l0 50.425194" fill-rule="evenodd"/><path stroke="#000000" stroke-width="1.0" stroke-linejoin="round" stroke-linecap="butt" d="m284.2257 16.708662l0 50.425194" fill-rule="evenodd"/><path fill="#000000" d="m255.51443 41.92022l0 0c0 -3.0006027 2.4324646 -5.433071 5.433075 -5.433071l0 0c1.4409485 0 2.8228455 0.5724106 3.8417664 1.5913086c1.0188904 1.018898 1.5913086 2.4008217 1.5913086 3.8417625l0 0c0 3.0006027 -2.4324646 5.433071 -5.433075 5.433071l0 0c-3.0006104 0 -5.433075 -2.4324684 -5.433075 -5.433071z" fill-rule="evenodd"/><path stroke="#000000" stroke-width="1.0" stroke-linejoin="round" stroke-linecap="butt" d="m255.51443 41.92022l0 0c0 -3.0006027 2.4324646 -5.433071 5.433075 -5.433071l0 0c1.4409485 0 2.8228455 0.5724106 3.8417664 1.5913086c1.0188904 1.018898 1.5913086 2.4008217 1.5913086 3.8417625l0 0c0 3.0006027 -2.4324646 5.433071 -5.433075 5.433071l0 0c-3.0006104 0 -5.433075 -2.4324684 -5.433075 -5.433071z" fill-rule="evenodd"/><path fill="#000000" d="m302.54697 41.92022l0 0c0 -3.0006027 2.4324646 -5.433071 5.433075 -5.433071l0 0c1.4409485 0 2.822876 0.5724106 3.8417664 1.5913086c1.0188904 1.018898 1.5913086 2.4008217 1.5913086 3.8417625l0 0c0 3.0006027 -2.4324646 5.433071 -5.433075 5.433071l0 0c-3.0006104 0 -5.433075 -2.4324684 -5.433075 -5.433071z" fill-rule="evenodd"/><path stroke="#000000" stroke-width="1.0" stroke-linejoin="round" stroke-linecap="butt" d="m302.54697 41.92022l0 0c0 -3.0006027 2.4324646 -5.433071 5.433075 -5.433071l0 0c1.4409485 0 2.822876 0.5724106 3.8417664 1.5913086c1.0188904 1.018898 1.5913086 2.4008217 1.5913086 3.8417625l0 0c0 3.0006027 -2.4324646 5.433071 -5.433075 5.433071l0 0c-3.0006104 0 -5.433075 -2.4324684 -5.433075 -5.433071z" fill-rule="evenodd"/><path fill="#000000" fill-opacity="0.0" d="m130.60472 41.92022l104.72441 0" fill-rule="evenodd"/><path stroke="#000000" stroke-width="1.0" stroke-linejoin="round" stroke-linecap="butt" d="m130.60472 41.92022l98.72441 0" fill-rule="evenodd"/><path fill="#000000" stroke="#000000" stroke-width="1.0" stroke-linecap="butt" d="m229.32913 43.571953l4.538101 -1.6517334l-4.538101 -1.6517334z" fill-rule="evenodd"/><path fill="#000000" fill-opacity="0.0" d="m77.66404 47.35329l-1.0708618 79.433075" fill-rule="evenodd"/><path stroke="#000000" stroke-width="1.0" stroke-linejoin="round" stroke-linecap="butt" d="m77.66404 47.35329l-0.9899826 73.43361" fill-rule="evenodd"/><path fill="#000000" stroke="#000000" stroke-width="1.0" stroke-linecap="butt" d="m75.02248 120.76463l1.5904083 4.559952l1.7127533 -4.515419z" fill-rule="evenodd"/><path fill="#ffffff" d="m52.535435 134.80331l0 0c0 -4.427063 3.5888443 -8.015915 8.015907 -8.015915l32.06267 0l0 0c2.1259537 0 4.1648254 0.8445358 5.668106 2.3478088c1.503273 1.5032806 2.3478012 3.5421448 2.3478012 5.668106l0 34.39337c0 4.427063 -3.5888443 8.015915 -8.015907 8.015915l-32.06267 0l0 0c-4.427063 0 -8.015907 -3.588852 -8.015907 -8.015915z" fill-rule="evenodd"/><path stroke="#000000" stroke-width="1.0" stroke-linejoin="round" stroke-linecap="butt" d="m52.535435 134.80331l0 0c0 -4.427063 3.5888443 -8.015915 8.015907 -8.015915l32.06267 0l0 0c2.1259537 0 4.1648254 0.8445358 5.668106 2.3478088c1.503273 1.5032806 2.3478012 3.5421448 2.3478012 5.668106l0 34.39337c0 4.427063 -3.5888443 8.015915 -8.015907 8.015915l-32.06267 0l0 0c-4.427063 0 -8.015907 -3.588852 -8.015907 -8.015915z" fill-rule="evenodd"/><path fill="#000000" fill-opacity="0.0" d="m53.32021 125.937004l48.094486 0l0 52.125984l-48.094486 0z" fill-rule="evenodd"/><path fill="#000000" d="m70.40348 158.92l-3.6875 -9.671875l1.734375 0l2.078125 5.796875q0.328125 0.9375 0.625 1.9375q0.203125 -0.765625 0.609375 -1.828125l2.140625 -5.90625l1.6875 0l-3.65625 9.671875l-1.53125 0zm5.484375 0l5.171875 -6.953125l-4.5625 -6.40625l2.109375 0l2.421875 3.4375q0.75 1.0625 1.078125 1.625q0.4375 -0.71875 1.046875 -1.515625l2.6875 -3.546875l1.921875 0l-4.6875 6.296875l5.0625 7.0625l-2.1875 0l-3.359375 -4.765625q-0.28125 -0.40625 -0.59375 -0.890625q-0.4375 0.734375 -0.625 1.0l-3.359375 4.65625l-2.125 0z" fill-rule="nonzero"/><path fill="#ffffff" d="m235.34383 135.6537l0 0c0 -4.427063 3.588852 -8.015907 8.015915 -8.015907l32.062683 0l0 0c2.125946 0 4.1648254 0.8445358 5.668091 2.3478012c1.5032654 1.5032806 2.3478088 3.54216 2.3478088 5.668106l0 34.393387c0 4.427063 -3.5888367 8.0159 -8.0159 8.0159l-32.062683 0l0 0c-4.427063 0 -8.015915 -3.5888367 -8.015915 -8.0159z" fill-rule="evenodd"/><path stroke="#000000" stroke-width="1.0" stroke-linejoin="round" stroke-linecap="butt" d="m235.34383 135.6537l0 0c0 -4.427063 3.588852 -8.015907 8.015915 -8.015907l32.062683 0l0 0c2.125946 0 4.1648254 0.8445358 5.668091 2.3478012c1.5032654 1.5032806 2.3478088 3.54216 2.3478088 5.668106l0 34.393387c0 4.427063 -3.5888367 8.0159 -8.0159 8.0159l-32.062683 0l0 0c-4.427063 0 -8.015915 -3.5888367 -8.015915 -8.0159z" fill-rule="evenodd"/><path fill="#000000" fill-opacity="0.0" d="m236.12862 126.7874l48.094467 0l0 52.12599l-48.094467 0z" fill-rule="evenodd"/><path fill="#000000" d="m261.94113 159.77039l-1.640625 0l0 -10.453125q-0.59375 0.5625 -1.5625 1.140625q-0.953125 0.5625 -1.71875 0.84375l0 -1.59375q1.375 -0.640625 2.40625 -1.5625q1.03125 -0.921875 1.453125 -1.78125l1.0625 0l0 13.40625z" fill-rule="nonzero"/><path fill="#ffffff" d="m284.22308 135.6537l0 0c0 -4.427063 3.5888672 -8.015907 8.01593 -8.015907l32.062653 0l0 0c2.1259766 0 4.1648254 0.8445358 5.6681213 2.3478012c1.5032654 1.5032806 2.3478088 3.54216 2.3478088 5.668106l0 34.393387c0 4.427063 -3.5888672 8.0159 -8.01593 8.0159l-32.062653 0l0 0c-4.427063 0 -8.01593 -3.5888367 -8.01593 -8.0159z" fill-rule="evenodd"/><path stroke="#000000" stroke-width="1.0" stroke-linejoin="round" stroke-linecap="butt" d="m284.22308 135.6537l0 0c0 -4.427063 3.5888672 -8.015907 8.01593 -8.015907l32.062653 0l0 0c2.1259766 0 4.1648254 0.8445358 5.6681213 2.3478012c1.5032654 1.5032806 2.3478088 3.54216 2.3478088 5.668106l0 34.393387c0 4.427063 -3.5888672 8.0159 -8.01593 8.0159l-32.062653 0l0 0c-4.427063 0 -8.01593 -3.5888367 -8.01593 -8.0159z" fill-rule="evenodd"/><path fill="#000000" fill-opacity="0.0" d="m285.00787 126.7874l48.094482 0l0 52.12599l-48.094482 0z" fill-rule="evenodd"/><path fill="#000000" d="m313.25787 158.19226l0 1.578125l-8.828125 0q-0.015625 -0.59375 0.1875 -1.140625q0.34375 -0.90625 1.078125 -1.78125q0.75 -0.875 2.15625 -2.015625q2.171875 -1.78125 2.9375 -2.828125q0.765625 -1.046875 0.765625 -1.96875q0 -0.984375 -0.703125 -1.640625q-0.6875 -0.671875 -1.8125 -0.671875q-1.1875 0 -1.90625 0.71875q-0.703125 0.703125 -0.703125 1.953125l-1.6875 -0.171875q0.171875 -1.890625 1.296875 -2.875q1.140625 -0.984375 3.03125 -0.984375q1.921875 0 3.046875 1.0625q1.125 1.0625 1.125 2.640625q0 0.796875 -0.328125 1.578125q-0.328125 0.78125 -1.09375 1.640625q-0.75 0.84375 -2.53125 2.34375q-1.46875 1.234375 -1.890625 1.6875q-0.421875 0.4375 -0.6875 0.875l6.546875 0z" fill-rule="nonzero"/><path fill="#000000" fill-opacity="0.0" d="m260.9475 47.35329l-0.7559204 79.433075" fill-rule="evenodd"/><path stroke="#000000" stroke-width="1.0" stroke-linejoin="round" stroke-linecap="butt" d="m260.9475 47.35329l-0.698822 73.43335" fill-rule="evenodd"/><path fill="#000000" stroke="#000000" stroke-width="1.0" stroke-linecap="butt" d="m258.59705 120.77091l1.6084595 4.553604l1.6948547 -4.522171z" fill-rule="evenodd"/><path fill="#000000" fill-opacity="0.0" d="m307.98004 47.35329l1.0708618 79.433075" fill-rule="evenodd"/><path stroke="#000000" stroke-width="1.0" stroke-linejoin="round" stroke-linecap="butt" d="m307.98004 47.35329l0.98999023 73.43361" fill-rule="evenodd"/><path fill="#000000" stroke="#000000" stroke-width="1.0" stroke-linecap="butt" d="m307.31845 120.809166l1.7127686 4.515419l1.5903931 -4.559952z" fill-rule="evenodd"/><path fill="#efefef" d="m52.535435 245.27051l0 0c0 -4.6416016 3.7627602 -8.404373 8.404366 -8.404373l80.95505 0c2.2289734 0 4.3666534 0.8854675 5.9427795 2.4615936c1.5761261 1.5761261 2.4615784 3.7138062 2.4615784 5.9427795l0 33.616455c0 4.6416016 -3.7627563 8.404388 -8.404358 8.404388l-80.95505 0c-4.6416054 0 -8.404366 -3.7627869 -8.404366 -8.404388z" fill-rule="evenodd"/><path stroke="#000000" stroke-width="1.0" stroke-linejoin="round" stroke-linecap="butt" d="m52.535435 245.27051l0 0c0 -4.6416016 3.7627602 -8.404373 8.404366 -8.404373l80.95505 0c2.2289734 0 4.3666534 0.8854675 5.9427795 2.4615936c1.5761261 1.5761261 2.4615784 3.7138062 2.4615784 5.9427795l0 33.616455c0 4.6416016 -3.7627563 8.404388 -8.404358 8.404388l-80.95505 0c-4.6416054 0 -8.404366 -3.7627869 -8.404366 -8.404388z" fill-rule="evenodd"/><path fill="#000000" fill-opacity="0.0" d="m101.41732 236.86613l0 50.425217" fill-rule="evenodd"/><path stroke="#000000" stroke-width="1.0" stroke-linejoin="round" stroke-linecap="butt" d="m101.41732 236.86613l0 50.425217" fill-rule="evenodd"/><path fill="#000000" d="m72.23097 262.0777l0 0c0 -3.0006104 2.4324646 -5.433075 5.4330673 -5.433075l0 0c1.4409409 0 2.8228683 0.5724182 3.8417664 1.5913086c1.018898 1.0188904 1.5913086 2.4008179 1.5913086 3.8417664l0 0c0 3.0006104 -2.4324722 5.433075 -5.433075 5.433075l0 0c-3.0006027 0 -5.4330673 -2.4324646 -5.4330673 -5.433075z" fill-rule="evenodd"/><path stroke="#000000" stroke-width="1.0" stroke-linejoin="round" stroke-linecap="butt" d="m72.23097 262.0777l0 0c0 -3.0006104 2.4324646 -5.433075 5.4330673 -5.433075l0 0c1.4409409 0 2.8228683 0.5724182 3.8417664 1.5913086c1.018898 1.0188904 1.5913086 2.4008179 1.5913086 3.8417664l0 0c0 3.0006104 -2.4324722 5.433075 -5.433075 5.433075l0 0c-3.0006027 0 -5.4330673 -2.4324646 -5.4330673 -5.433075z" fill-rule="evenodd"/><path fill="#000000" d="m119.73857 262.0777l0 0c0 -3.0006104 2.4324722 -5.433075 5.433075 -5.433075l0 0c1.4409409 0 2.8228607 0.5724182 3.8417664 1.5913086c1.0188904 1.0188904 1.5913086 2.4008179 1.5913086 3.8417664l0 0c0 3.0006104 -2.4324799 5.433075 -5.433075 5.433075l0 0c-3.0006027 0 -5.433075 -2.4324646 -5.433075 -5.433075z" fill-rule="evenodd"/><path stroke="#000000" stroke-width="1.0" stroke-linejoin="round" stroke-linecap="butt" d="m119.73857 262.0777l0 0c0 -3.0006104 2.4324722 -5.433075 5.433075 -5.433075l0 0c1.4409409 0 2.8228607 0.5724182 3.8417664 1.5913086c1.0188904 1.0188904 1.5913086 2.4008179 1.5913086 3.8417664l0 0c0 3.0006104 -2.4324799 5.433075 -5.433075 5.433075l0 0c-3.0006027 0 -5.433075 -2.4324646 -5.433075 -5.433075z" fill-rule="evenodd"/><path fill="#efefef" d="m235.34383 245.27051l0 0c0 -4.6416016 3.7627716 -8.404373 8.404373 -8.404373l80.95505 0c2.2289734 0 4.3666687 0.8854675 5.9427795 2.4615936c1.5761414 1.5761261 2.4615784 3.7138062 2.4615784 5.9427795l0 33.616455c0 4.6416016 -3.7627563 8.404388 -8.404358 8.404388l-80.95505 0c-4.6416016 0 -8.404373 -3.7627869 -8.404373 -8.404388z" fill-rule="evenodd"/><path stroke="#000000" stroke-width="1.0" stroke-linejoin="round" stroke-linecap="butt" d="m235.34383 245.27051l0 0c0 -4.6416016 3.7627716 -8.404373 8.404373 -8.404373l80.95505 0c2.2289734 0 4.3666687 0.8854675 5.9427795 2.4615936c1.5761414 1.5761261 2.4615784 3.7138062 2.4615784 5.9427795l0 33.616455c0 4.6416016 -3.7627563 8.404388 -8.404358 8.404388l-80.95505 0c-4.6416016 0 -8.404373 -3.7627869 -8.404373 -8.404388z" fill-rule="evenodd"/><path fill="#000000" fill-opacity="0.0" d="m284.2257 236.86613l0 50.425217" fill-rule="evenodd"/><path stroke="#000000" stroke-width="1.0" stroke-linejoin="round" stroke-linecap="butt" d="m284.2257 236.86613l0 50.425217" fill-rule="evenodd"/><path fill="#000000" d="m255.51443 262.0777l0 0c0 -3.0006104 2.4324646 -5.433075 5.433075 -5.433075l0 0c1.4409485 0 2.8228455 0.5724182 3.8417664 1.5913086c1.0188904 1.0188904 1.5913086 2.4008179 1.5913086 3.8417664l0 0c0 3.0006104 -2.4324646 5.433075 -5.433075 5.433075l0 0c-3.0006104 0 -5.433075 -2.4324646 -5.433075 -5.433075z" fill-rule="evenodd"/><path stroke="#000000" stroke-width="1.0" stroke-linejoin="round" stroke-linecap="butt" d="m255.51443 262.0777l0 0c0 -3.0006104 2.4324646 -5.433075 5.433075 -5.433075l0 0c1.4409485 0 2.8228455 0.5724182 3.8417664 1.5913086c1.0188904 1.0188904 1.5913086 2.4008179 1.5913086 3.8417664l0 0c0 3.0006104 -2.4324646 5.433075 -5.433075 5.433075l0 0c-3.0006104 0 -5.433075 -2.4324646 -5.433075 -5.433075z" fill-rule="evenodd"/><path fill="#000000" d="m302.54697 262.0777l0 0c0 -3.0006104 2.4324646 -5.433075 5.433075 -5.433075l0 0c1.4409485 0 2.822876 0.5724182 3.8417664 1.5913086c1.0188904 1.0188904 1.5913086 2.4008179 1.5913086 3.8417664l0 0c0 3.0006104 -2.4324646 5.433075 -5.433075 5.433075l0 0c-3.0006104 0 -5.433075 -2.4324646 -5.433075 -5.433075z" fill-rule="evenodd"/><path stroke="#000000" stroke-width="1.0" stroke-linejoin="round" stroke-linecap="butt" d="m302.54697 262.0777l0 0c0 -3.0006104 2.4324646 -5.433075 5.433075 -5.433075l0 0c1.4409485 0 2.822876 0.5724182 3.8417664 1.5913086c1.0188904 1.0188904 1.5913086 2.4008179 1.5913086 3.8417664l0 0c0 3.0006104 -2.4324646 5.433075 -5.433075 5.433075l0 0c-3.0006104 0 -5.433075 -2.4324646 -5.433075 -5.433075z" fill-rule="evenodd"/><path fill="#000000" fill-opacity="0.0" d="m130.60472 262.0777l104.72441 0" fill-rule="evenodd"/><path stroke="#000000" stroke-width="1.0" stroke-linejoin="round" stroke-linecap="butt" d="m130.60472 262.0777l98.72441 0" fill-rule="evenodd"/><path fill="#000000" stroke="#000000" stroke-width="1.0" stroke-linecap="butt" d="m229.32913 263.72943l4.538101 -1.6517334l-4.538101 -1.6517334z" fill-rule="evenodd"/><path fill="#000000" fill-opacity="0.0" d="m77.66404 267.51077l-1.0708618 79.433075" fill-rule="evenodd"/><path stroke="#000000" stroke-width="1.0" stroke-linejoin="round" stroke-linecap="butt" d="m77.66404 267.51077l-0.9899826 73.433624" fill-rule="evenodd"/><path fill="#000000" stroke="#000000" stroke-width="1.0" stroke-linecap="butt" d="m75.02248 340.92215l1.5904083 4.5599365l1.7127533 -4.5154114z" fill-rule="evenodd"/><path fill="#ffffff" d="m52.535435 354.9608l0 0c0 -4.427063 3.5888443 -8.0159 8.015907 -8.0159l32.06267 0l0 0c2.1259537 0 4.1648254 0.84451294 5.668106 2.3478088c1.503273 1.5032654 2.3478012 3.5421448 2.3478012 5.668091l0 34.39337c0 4.427063 -3.5888443 8.01593 -8.015907 8.01593l-32.06267 0l0 0c-4.427063 0 -8.015907 -3.5888672 -8.015907 -8.01593z" fill-rule="evenodd"/><path stroke="#000000" stroke-width="1.0" stroke-linejoin="round" stroke-linecap="butt" d="m52.535435 354.9608l0 0c0 -4.427063 3.5888443 -8.0159 8.015907 -8.0159l32.06267 0l0 0c2.1259537 0 4.1648254 0.84451294 5.668106 2.3478088c1.503273 1.5032654 2.3478012 3.5421448 2.3478012 5.668091l0 34.39337c0 4.427063 -3.5888443 8.01593 -8.015907 8.01593l-32.06267 0l0 0c-4.427063 0 -8.015907 -3.5888672 -8.015907 -8.01593z" fill-rule="evenodd"/><path fill="#000000" fill-opacity="0.0" d="m53.32021 346.09448l48.094486 0l0 52.125977l-48.094486 0z" fill-rule="evenodd"/><path fill="#000000" d="m70.40348 379.07748l-3.6875 -9.671875l1.734375 0l2.078125 5.796875q0.328125 0.9375 0.625 1.9375q0.203125 -0.765625 0.609375 -1.828125l2.140625 -5.90625l1.6875 0l-3.65625 9.671875l-1.53125 0zm10.609375 0l0 -5.65625l-5.15625 -7.703125l2.15625 0l2.640625 4.03125q0.71875 1.125 1.34375 2.265625q0.609375 -1.046875 1.46875 -2.359375l2.578125 -3.9375l2.0625 0l-5.328125 7.703125l0 5.65625l-1.765625 0z" fill-rule="nonzero"/><path fill="#ffffff" d="m235.34383 355.8112l0 0c0 -4.427063 3.588852 -8.0159 8.015915 -8.0159l32.062683 0l0 0c2.125946 0 4.1648254 0.84451294 5.668091 2.3477783c1.5032654 1.5032959 2.3478088 3.5421753 2.3478088 5.6681213l0 34.39337c0 4.427063 -3.5888367 8.0159 -8.0159 8.0159l-32.062683 0l0 0c-4.427063 0 -8.015915 -3.5888367 -8.015915 -8.0159z" fill-rule="evenodd"/><path stroke="#000000" stroke-width="1.0" stroke-linejoin="round" stroke-linecap="butt" d="m235.34383 355.8112l0 0c0 -4.427063 3.588852 -8.0159 8.015915 -8.0159l32.062683 0l0 0c2.125946 0 4.1648254 0.84451294 5.668091 2.3477783c1.5032654 1.5032959 2.3478088 3.5421753 2.3478088 5.6681213l0 34.39337c0 4.427063 -3.5888367 8.0159 -8.0159 8.0159l-32.062683 0l0 0c-4.427063 0 -8.015915 -3.5888367 -8.015915 -8.0159z" fill-rule="evenodd"/><path fill="#000000" fill-opacity="0.0" d="m236.12862 346.9449l48.094467 0l0 52.125977l-48.094467 0z" fill-rule="evenodd"/><path fill="#000000" d="m251.03452 383.631l0 -13.375l1.484375 0l0 1.25q0.53125 -0.734375 1.1875 -1.09375q0.671875 -0.375 1.625 -0.375q1.234375 0 2.171875 0.640625q0.953125 0.625 1.4375 1.796875q0.484375 1.15625 0.484375 2.546875q0 1.484375 -0.53125 2.671875q-0.53125 1.1875 -1.546875 1.828125q-1.015625 0.625 -2.140625 0.625q-0.8125 0 -1.46875 -0.34375q-0.65625 -0.34375 -1.0625 -0.875l0 4.703125l-1.640625 0zm1.484375 -8.484375q0 1.859375 0.75 2.765625q0.765625 0.890625 1.828125 0.890625q1.09375 0 1.875 -0.921875q0.78125 -0.9375 0.78125 -2.875q0 -1.84375 -0.765625 -2.765625q-0.75 -0.921875 -1.8125 -0.921875q-1.046875 0 -1.859375 0.984375q-0.796875 0.96875 -0.796875 2.84375zm14.610077 4.78125l-1.640625 0l0 -10.453125q-0.59375 0.5625 -1.5625 1.140625q-0.953125 0.5625 -1.71875 0.84375l0 -1.59375q1.375 -0.640625 2.40625 -1.5625q1.03125 -0.921875 1.453125 -1.78125l1.0625 0l0 13.40625z" fill-rule="nonzero"/><path fill="#000000" fill-opacity="0.0" d="m260.93176 267.5118l-0.7559204 79.433075" fill-rule="evenodd"/><path stroke="#000000" stroke-width="1.0" stroke-linejoin="round" stroke-linecap="butt" d="m260.93176 267.5118l-0.698822 73.43335" fill-rule="evenodd"/><path fill="#000000" stroke="#000000" stroke-width="1.0" stroke-linecap="butt" d="m258.5813 340.92944l1.6084595 4.553589l1.6948547 -4.522156z" fill-rule="evenodd"/><path fill="#000000" fill-opacity="0.0" d="m313.41312 262.0777l104.724396 0" fill-rule="evenodd"/><path stroke="#000000" stroke-width="1.0" stroke-linejoin="round" stroke-linecap="butt" d="m313.41312 262.0777l98.724396 0" fill-rule="evenodd"/><path fill="#000000" stroke="#000000" stroke-width="1.0" stroke-linecap="butt" d="m412.1375 263.72943l4.538086 -1.6517334l-4.538086 -1.6517334z" fill-rule="evenodd"/><path fill="#efefef" d="m418.15222 245.27051l0 0c0 -4.6416016 3.7627869 -8.404373 8.404388 -8.404373l80.95505 0c2.2289734 0 4.366638 0.8854675 5.942749 2.4615936c1.5761719 1.5761261 2.461609 3.7138062 2.461609 5.9427795l0 33.616455c0 4.6416016 -3.7627563 8.404388 -8.404358 8.404388l-80.95505 0c-4.6416016 0 -8.404388 -3.7627869 -8.404388 -8.404388z" fill-rule="evenodd"/><path stroke="#000000" stroke-width="1.0" stroke-linejoin="round" stroke-linecap="butt" d="m418.15222 245.27051l0 0c0 -4.6416016 3.7627869 -8.404373 8.404388 -8.404373l80.95505 0c2.2289734 0 4.366638 0.8854675 5.942749 2.4615936c1.5761719 1.5761261 2.461609 3.7138062 2.461609 5.9427795l0 33.616455c0 4.6416016 -3.7627563 8.404388 -8.404358 8.404388l-80.95505 0c-4.6416016 0 -8.404388 -3.7627869 -8.404388 -8.404388z" fill-rule="evenodd"/><path fill="#000000" fill-opacity="0.0" d="m467.03412 236.86613l0 50.425217" fill-rule="evenodd"/><path stroke="#000000" stroke-width="1.0" stroke-linejoin="round" stroke-linecap="butt" d="m467.03412 236.86613l0 50.425217" fill-rule="evenodd"/><path fill="#000000" fill-opacity="0.0" d="m467.03412 287.29135l46.519714 -48.094498" fill-rule="evenodd"/><path stroke="#000000" stroke-width="1.0" stroke-linejoin="round" stroke-linecap="butt" d="m467.03412 287.29135l46.519714 -48.094498" fill-rule="evenodd"/><path fill="#000000" d="m438.49448 262.8546l0 0c0 -3.0006104 2.4324646 -5.433075 5.433075 -5.433075l0 0c1.4409485 0 2.822876 0.5724182 3.8417664 1.5913086c1.0188904 1.0188904 1.5913086 2.4008179 1.5913086 3.8417664l0 0c0 3.0005798 -2.4324646 5.4330444 -5.433075 5.4330444l0 0c-3.0006104 0 -5.433075 -2.4324646 -5.433075 -5.4330444z" fill-rule="evenodd"/><path stroke="#000000" stroke-width="1.0" stroke-linejoin="round" stroke-linecap="butt" d="m438.49448 262.8546l0 0c0 -3.0006104 2.4324646 -5.433075 5.433075 -5.433075l0 0c1.4409485 0 2.822876 0.5724182 3.8417664 1.5913086c1.0188904 1.0188904 1.5913086 2.4008179 1.5913086 3.8417664l0 0c0 3.0005798 -2.4324646 5.4330444 -5.433075 5.4330444l0 0c-3.0006104 0 -5.433075 -2.4324646 -5.433075 -5.4330444z" fill-rule="evenodd"/><path fill="#ffffff" d="m418.15222 355.8112l0 0c0 -4.427063 3.5888672 -8.0159 8.01593 -8.0159l32.062653 0l0 0c2.125946 0 4.1648254 0.84451294 5.6681213 2.3477783c1.5032654 1.5032959 2.3477783 3.5421753 2.3477783 5.6681213l0 34.39337c0 4.427063 -3.5888367 8.0159 -8.0159 8.0159l-32.062653 0l0 0c-4.427063 0 -8.01593 -3.5888367 -8.01593 -8.0159z" fill-rule="evenodd"/><path stroke="#000000" stroke-width="1.0" stroke-linejoin="round" stroke-linecap="butt" d="m418.15222 355.8112l0 0c0 -4.427063 3.5888672 -8.0159 8.01593 -8.0159l32.062653 0l0 0c2.125946 0 4.1648254 0.84451294 5.6681213 2.3477783c1.5032654 1.5032959 2.3477783 3.5421753 2.3477783 5.6681213l0 34.39337c0 4.427063 -3.5888367 8.0159 -8.0159 8.0159l-32.062653 0l0 0c-4.427063 0 -8.01593 -3.5888367 -8.01593 -8.0159z" fill-rule="evenodd"/><path fill="#000000" fill-opacity="0.0" d="m418.937 346.9449l48.094482 0l0 52.125977l-48.094482 0z" fill-rule="evenodd"/><path fill="#000000" d="m433.8429 383.631l0 -13.375l1.484375 0l0 1.25q0.53125 -0.734375 1.1875 -1.09375q0.671875 -0.375 1.625 -0.375q1.234375 0 2.171875 0.640625q0.953125 0.625 1.4375 1.796875q0.484375 1.15625 0.484375 2.546875q0 1.484375 -0.53125 2.671875q-0.53125 1.1875 -1.546875 1.828125q-1.015625 0.625 -2.140625 0.625q-0.8125 0 -1.46875 -0.34375q-0.65625 -0.34375 -1.0625 -0.875l0 4.703125l-1.640625 0zm1.484375 -8.484375q0 1.859375 0.75 2.765625q0.765625 0.890625 1.828125 0.890625q1.09375 0 1.875 -0.921875q0.78125 -0.9375 0.78125 -2.875q0 -1.84375 -0.765625 -2.765625q-0.75 -0.921875 -1.8125 -0.921875q-1.046875 0 -1.859375 0.984375q-0.796875 0.96875 -0.796875 2.84375zm14.610107 4.78125l-1.640625 0l0 -10.453125q-0.59375 0.5625 -1.5625 1.140625q-0.953125 0.5625 -1.71875 0.84375l0 -1.59375q1.375 -0.640625 2.40625 -1.5625q1.03125 -0.921875 1.453125 -1.78125l1.0625 0l0 13.40625z" fill-rule="nonzero"/><path fill="#000000" fill-opacity="0.0" d="m443.74014 267.5118l-0.7558899 79.433075" fill-rule="evenodd"/><path stroke="#000000" stroke-width="1.0" stroke-linejoin="round" stroke-linecap="butt" d="m443.74014 267.5118l-0.6987915 73.43335" fill-rule="evenodd"/><path fill="#000000" stroke="#000000" stroke-width="1.0" stroke-linecap="butt" d="m441.38968 340.92944l1.60849 4.553589l1.6948242 -4.522156z" fill-rule="evenodd"/><path fill="#000000" fill-opacity="0.0" d="m18.391798 51.311028l51.212593 0l0 52.125984l-51.212593 0z" fill-rule="evenodd"/><path fill="#000000" d="m45.763363 84.294014l-1.640625 0l0 -10.453125q-0.59375 0.5625 -1.5625 1.140625q-0.953125 0.5625 -1.71875 0.84375l0 -1.59375q1.375 -0.640625 2.40625 -1.5625q1.03125 -0.921875 1.453125 -1.78125l1.0625 0l0 13.40625z" fill-rule="nonzero"/><path fill="#000000" fill-opacity="0.0" d="m203.54823 50.23749l51.2126 0l0 52.125988l-51.2126 0z" fill-rule="evenodd"/><path fill="#000000" d="m233.3573 81.64236l0 1.578125l-8.828125 0q-0.015625 -0.59375 0.1875 -1.140625q0.34375 -0.90625 1.078125 -1.78125q0.75 -0.875 2.15625 -2.015625q2.171875 -1.78125 2.9375 -2.828125q0.765625 -1.046875 0.765625 -1.96875q0 -0.984375 -0.703125 -1.640625q-0.6875 -0.671875 -1.8125 -0.671875q-1.1875 0 -1.90625 0.71875q-0.703125 0.703125 -0.703125 1.953125l-1.6875 -0.171875q0.171875 -1.890625 1.296875 -2.875q1.140625 -0.984375 3.03125 -0.984375q1.921875 0 3.046875 1.0625q1.125 1.0625 1.125 2.640625q0 0.796875 -0.328125 1.578125q-0.328125 0.78125 -1.09375 1.640625q-0.75 0.84375 -2.53125 2.34375q-1.46875 1.234375 -1.890625 1.6875q-0.421875 0.4375 -0.6875 0.875l6.546875 0z" fill-rule="nonzero"/><path fill="#000000" fill-opacity="0.0" d="m21.495245 272.7851l51.212593 0l0 52.125977l-51.212593 0z" fill-rule="evenodd"/><path fill="#000000" d="m47.944935 305.7681l0 -3.203125l-5.796875 0l0 -1.5l6.09375 -8.65625l1.34375 0l0 8.65625l1.796875 0l0 1.5l-1.796875 0l0 3.203125l-1.640625 0zm0 -4.703125l0 -6.015625l-4.1875 6.015625l4.1875 0z" fill-rule="nonzero"/><path fill="#000000" fill-opacity="0.0" d="m205.09996 272.43442l51.2126 0l0 52.126007l-51.2126 0z" fill-rule="evenodd"/><path fill="#000000" d="m226.29965 301.91742l1.71875 -0.140625q0.1875 1.25 0.875 1.890625q0.703125 0.625 1.6875 0.625q1.1875 0 2.0 -0.890625q0.828125 -0.890625 0.828125 -2.359375q0 -1.40625 -0.796875 -2.21875q-0.78125 -0.8125 -2.0625 -0.8125q-0.78125 0 -1.421875 0.359375q-0.640625 0.359375 -1.0 0.9375l-1.546875 -0.203125l1.296875 -6.859375l6.640625 0l0 1.5625l-5.328125 0l-0.71875 3.59375q1.203125 -0.84375 2.515625 -0.84375q1.75 0 2.953125 1.21875q1.203125 1.203125 1.203125 3.109375q0 1.8125 -1.046875 3.140625q-1.296875 1.625 -3.515625 1.625q-1.8125 0 -2.96875 -1.015625q-1.15625 -1.03125 -1.3125 -2.71875z" fill-rule="nonzero"/><path fill="#000000" fill-opacity="0.0" d="m370.08398 291.0551l51.212616 0l0 52.125977l-51.212616 0z" fill-rule="evenodd"/><path fill="#000000" d="m399.7837 313.96l-1.625 0.125q-0.21875 -0.96875 -0.625 -1.40625q-0.65625 -0.703125 -1.640625 -0.703125q-0.78125 0 -1.375 0.4375q-0.765625 0.5625 -1.21875 1.65625q-0.453125 1.078125 -0.46875 3.078125q0.59375 -0.890625 1.453125 -1.328125q0.859375 -0.4375 1.796875 -0.4375q1.640625 0 2.78125 1.203125q1.15625 1.203125 1.15625 3.109375q0 1.265625 -0.546875 2.34375q-0.53125 1.078125 -1.484375 1.65625q-0.9375 0.578125 -2.140625 0.578125q-2.0625 0 -3.359375 -1.5q-1.28125 -1.515625 -1.28125 -4.984375q0 -3.875 1.421875 -5.625q1.25 -1.53125 3.375 -1.53125q1.5625 0 2.5625 0.890625q1.015625 0.875 1.21875 2.4375zm-6.6875 5.75q0 0.84375 0.359375 1.625q0.359375 0.765625 1.0 1.171875q0.640625 0.40625 1.359375 0.40625q1.03125 0 1.78125 -0.828125q0.75 -0.84375 0.75 -2.28125q0 -1.390625 -0.734375 -2.1875q-0.734375 -0.796875 -1.859375 -0.796875q-1.109375 0 -1.890625 0.796875q-0.765625 0.796875 -0.765625 2.09375z" fill-rule="nonzero"/><path stroke="#9e9e9e" stroke-width="1.0" stroke-linecap="butt" d="m15.687664 467.51706l0 124.58792" fill-rule="nonzero"/><path stroke="#9e9e9e" stroke-width="1.0" stroke-linecap="butt" d="m110.68767 467.51706l0 124.58792" fill-rule="nonzero"/><path stroke="#9e9e9e" stroke-width="1.0" stroke-linecap="butt" d="m205.68767 467.51706l0 124.58792" fill-rule="nonzero"/><path stroke="#9e9e9e" stroke-width="1.0" stroke-linecap="butt" d="m300.68765 467.51706l0 124.58792" fill-rule="nonzero"/><path stroke="#9e9e9e" stroke-width="1.0" stroke-linecap="butt" d="m395.68765 467.51706l0 124.58792" fill-rule="nonzero"/><path stroke="#9e9e9e" stroke-width="1.0" stroke-linecap="butt" d="m490.68765 467.51706l0 124.58792" fill-rule="nonzero"/><path stroke="#9e9e9e" stroke-width="1.0" stroke-linecap="butt" d="m585.6877 467.51706l0 124.58792" fill-rule="nonzero"/><path stroke="#9e9e9e" stroke-width="1.0" stroke-linecap="butt" d="m680.6877 467.51706l0 124.58792" fill-rule="nonzero"/><path stroke="#9e9e9e" stroke-width="1.0" stroke-linecap="butt" d="m775.6877 467.51706l0 124.58792" fill-rule="nonzero"/><path stroke="#9e9e9e" stroke-width="1.0" stroke-linecap="butt" d="m15.188976 468.01575l760.9974 0" fill-rule="nonzero"/><path stroke="#9e9e9e" stroke-width="1.0" stroke-linecap="butt" d="m15.188976 509.2126l760.9974 0" fill-rule="nonzero"/><path stroke="#9e9e9e" stroke-width="1.0" stroke-linecap="butt" d="m15.188976 550.4094l760.9974 0" fill-rule="nonzero"/><path stroke="#9e9e9e" stroke-width="1.0" stroke-linecap="butt" d="m15.188976 591.6063l760.9974 0" fill-rule="nonzero"/><path fill="#000000" d="m26.422039 494.93576l0 -13.359375l1.765625 0l0 13.359375l-1.765625 0zm4.683304 0l0 -9.671875l1.46875 0l0 1.375q1.0625 -1.59375 3.078125 -1.59375q0.875 0 1.609375 0.3125q0.734375 0.3125 1.09375 0.828125q0.375 0.5 0.515625 1.203125q0.09375 0.453125 0.09375 1.59375l0 5.953125l-1.640625 0l0 -5.890625q0 -1.0 -0.203125 -1.484375q-0.1875 -0.5 -0.671875 -0.796875q-0.484375 -0.296875 -1.140625 -0.296875q-1.046875 0 -1.8125 0.671875q-0.75 0.65625 -0.75 2.515625l0 5.28125l-1.640625 0zm16.641342 0l0 -1.21875q-0.90625 1.4375 -2.703125 1.4375q-1.15625 0 -2.125 -0.640625q-0.96875 -0.640625 -1.5 -1.78125q-0.53125 -1.140625 -0.53125 -2.625q0 -1.453125 0.484375 -2.625q0.484375 -1.1875 1.4375 -1.8125q0.96875 -0.625 2.171875 -0.625q0.875 0 1.546875 0.375q0.6875 0.359375 1.109375 0.953125l0 -4.796875l1.640625 0l0 13.359375l-1.53125 0zm-5.171875 -4.828125q0 1.859375 0.78125 2.78125q0.78125 0.921875 1.84375 0.921875q1.078125 0 1.828125 -0.875q0.75 -0.890625 0.75 -2.6875q0 -1.984375 -0.765625 -2.90625q-0.765625 -0.9375 -1.890625 -0.9375q-1.078125 0 -1.8125 0.890625q-0.734375 0.890625 -0.734375 2.8125zm15.906967 1.71875l1.6875 0.203125q-0.40625 1.484375 -1.484375 2.3125q-1.078125 0.8125 -2.765625 0.8125q-2.125 0 -3.375 -1.296875q-1.234375 -1.3125 -1.234375 -3.671875q0 -2.453125 1.25 -3.796875q1.265625 -1.34375 3.265625 -1.34375q1.9375 0 3.15625 1.328125q1.234375 1.3125 1.234375 3.703125q0 0.15625 0 0.4375l-7.21875 0q0.09375 1.59375 0.90625 2.453125q0.8125 0.84375 2.015625 0.84375q0.90625 0 1.546875 -0.46875q0.640625 -0.484375 1.015625 -1.515625zm-5.390625 -2.65625l5.40625 0q-0.109375 -1.21875 -0.625 -1.828125q-0.78125 -0.953125 -2.03125 -0.953125q-1.125 0 -1.90625 0.765625q-0.765625 0.75 -0.84375 2.015625zm8.047592 5.765625l3.5312538 -5.03125l-3.2656288 -4.640625l2.046875 0l1.4843788 2.265625q0.421875 0.640625 0.671875 1.078125q0.40625 -0.59375 0.734375 -1.0625l1.640625 -2.28125l1.953125 0l-3.34375 4.546875l3.59375 5.125l-2.015625 0l-1.984375 -3.0l-0.515625 -0.8125l-2.5468788 3.8125l-1.984375 0z" fill-rule="nonzero"/><path fill="#000000" d="m153.78105 488.342q0 -2.359375 0.484375 -3.796875q0.484375 -1.453125 1.4375 -2.234375q0.96875 -0.78125 2.421875 -0.78125q1.078125 0 1.890625 0.4375q0.8125 0.421875 1.328125 1.25q0.53125 0.8125 0.828125 1.984375q0.3125 1.15625 0.3125 3.140625q0 2.359375 -0.484375 3.8125q-0.484375 1.4375 -1.453125 2.234375q-0.953125 0.78125 -2.421875 0.78125q-1.921875 0 -3.03125 -1.390625q-1.3125 -1.671875 -1.3125 -5.4375zm1.671875 0q0 3.296875 0.765625 4.390625q0.78125 1.078125 1.90625 1.078125q1.140625 0 1.90625 -1.09375q0.765625 -1.09375 0.765625 -4.375q0 -3.296875 -0.765625 -4.375q-0.765625 -1.078125 -1.921875 -1.078125q-1.125 0 -1.796875 0.953125q-0.859375 1.21875 -0.859375 4.5z" fill-rule="nonzero"/><path fill="#000000" d="m254.95293 494.93576l-1.640625 0l0 -10.453125q-0.59375 0.5625 -1.5625 1.140625q-0.953125 0.5625 -1.71875 0.84375l0 -1.59375q1.375 -0.640625 2.40625 -1.5625q1.03125 -0.921875 1.453125 -1.78125l1.0625 0l0 13.40625z" fill-rule="nonzero"/><path fill="#000000" d="m352.39044 493.35764l0 1.578125l-8.828125 0q-0.015625 -0.59375 0.1875 -1.140625q0.34375 -0.90625 1.078125 -1.78125q0.75 -0.875 2.15625 -2.015625q2.171875 -1.78125 2.9375 -2.828125q0.765625 -1.046875 0.765625 -1.96875q0 -0.984375 -0.703125 -1.640625q-0.6875 -0.671875 -1.8125 -0.671875q-1.1875 0 -1.90625 0.71875q-0.703125 0.703125 -0.703125 1.953125l-1.6875 -0.171875q0.171875 -1.890625 1.296875 -2.875q1.140625 -0.984375 3.03125 -0.984375q1.921875 0 3.046875 1.0625q1.125 1.0625 1.125 2.640625q0 0.796875 -0.328125 1.578125q-0.328125 0.78125 -1.09375 1.640625q-0.75 0.84375 -2.53125 2.34375q-1.46875 1.234375 -1.890625 1.6875q-0.421875 0.4375 -0.6875 0.875l6.546875 0z" fill-rule="nonzero"/><path fill="#000000" d="m438.78107 491.4045l1.640625 -0.21875q0.28125 1.40625 0.953125 2.015625q0.6875 0.609375 1.65625 0.609375q1.15625 0 1.953125 -0.796875q0.796875 -0.796875 0.796875 -1.984375q0 -1.125 -0.734375 -1.859375q-0.734375 -0.734375 -1.875 -0.734375q-0.46875 0 -1.15625 0.171875l0.1875 -1.4375q0.15625 0.015625 0.265625 0.015625q1.046875 0 1.875 -0.546875q0.84375 -0.546875 0.84375 -1.671875q0 -0.90625 -0.609375 -1.5q-0.609375 -0.59375 -1.578125 -0.59375q-0.953125 0 -1.59375 0.609375q-0.640625 0.59375 -0.8125 1.796875l-1.640625 -0.296875q0.296875 -1.640625 1.359375 -2.546875q1.0625 -0.90625 2.65625 -0.90625q1.09375 0 2.0 0.46875q0.921875 0.46875 1.40625 1.28125q0.5 0.8125 0.5 1.71875q0 0.859375 -0.46875 1.578125q-0.46875 0.703125 -1.375 1.125q1.1875 0.28125 1.84375 1.140625q0.65625 0.859375 0.65625 2.15625q0 1.734375 -1.28125 2.953125q-1.265625 1.21875 -3.21875 1.21875q-1.765625 0 -2.921875 -1.046875q-1.15625 -1.046875 -1.328125 -2.71875z" fill-rule="nonzero"/><path fill="#000000" d="m539.03107 494.93576l0 -3.203125l-5.796875 0l0 -1.5l6.09375 -8.65625l1.34375 0l0 8.65625l1.796875 0l0 1.5l-1.796875 0l0 3.203125l-1.640625 0zm0 -4.703125l0 -6.015625l-4.1875 6.015625l4.1875 0z" fill-rule="nonzero"/><path fill="#000000" d="m628.78107 491.43576l1.71875 -0.140625q0.1875 1.25 0.875 1.890625q0.703125 0.625 1.6875 0.625q1.1875 0 2.0 -0.890625q0.828125 -0.890625 0.828125 -2.359375q0 -1.40625 -0.796875 -2.21875q-0.78125 -0.8125 -2.0625 -0.8125q-0.78125 0 -1.421875 0.359375q-0.640625 0.359375 -1.0 0.9375l-1.546875 -0.203125l1.296875 -6.859375l6.640625 0l0 1.5625l-5.328125 0l-0.71875 3.59375q1.203125 -0.84375 2.515625 -0.84375q1.75 0 2.953125 1.21875q1.203125 1.203125 1.203125 3.109375q0 1.8125 -1.046875 3.140625q-1.296875 1.625 -3.515625 1.625q-1.8125 0 -2.96875 -1.015625q-1.15625 -1.03125 -1.3125 -2.71875z" fill-rule="nonzero"/><path fill="#000000" d="m732.28107 484.85764l-1.625 0.125q-0.21875 -0.96875 -0.625 -1.40625q-0.65625 -0.703125 -1.640625 -0.703125q-0.78125 0 -1.375 0.4375q-0.765625 0.5625 -1.21875 1.65625q-0.453125 1.078125 -0.46875 3.078125q0.59375 -0.890625 1.453125 -1.328125q0.859375 -0.4375 1.796875 -0.4375q1.640625 0 2.78125 1.203125q1.15625 1.203125 1.15625 3.109375q0 1.265625 -0.546875 2.34375q-0.53125 1.078125 -1.484375 1.65625q-0.9375 0.578125 -2.140625 0.578125q-2.0625 0 -3.359375 -1.5q-1.28125 -1.515625 -1.28125 -4.984375q0 -3.875 1.421875 -5.625q1.25 -1.53125 3.375 -1.53125q1.5625 0 2.5625 0.890625q1.015625 0.875 1.21875 2.4375zm-6.6875 5.75q0 0.84375 0.359375 1.625q0.359375 0.765625 1.0 1.171875q0.640625 0.40625 1.359375 0.40625q1.03125 0 1.78125 -0.828125q0.75 -0.84375 0.75 -2.28125q0 -1.390625 -0.734375 -2.1875q-0.734375 -0.796875 -1.859375 -0.796875q-1.109375 0 -1.890625 0.796875q-0.765625 0.796875 -0.765625 2.09375z" fill-rule="nonzero"/><path fill="#000000" d="m29.500164 534.6638l0.234375 1.453125q-0.6875 0.140625 -1.234375 0.140625q-0.890625 0 -1.390625 -0.28125q-0.484375 -0.28125 -0.6875 -0.734375q-0.203125 -0.46875 -0.203125 -1.9375l0 -5.578125l-1.203125 0l0 -1.265625l1.203125 0l0 -2.390625l1.625 -0.984375l0 3.375l1.65625 0l0 1.265625l-1.65625 0l0 5.671875q0 0.6875 0.078125 0.890625q0.09375 0.203125 0.28125 0.328125q0.203125 0.109375 0.578125 0.109375q0.265625 0 0.71875 -0.0625zm1.6051788 1.46875l0 -13.359375l1.640625 0l0 4.796875q1.140625 -1.328125 2.890625 -1.328125q1.078125 0 1.859375 0.421875q0.796875 0.421875 1.140625 1.171875q0.34375 0.75 0.34375 2.171875l0 6.125l-1.640625 0l0 -6.125q0 -1.234375 -0.53125 -1.796875q-0.53125 -0.5625 -1.515625 -0.5625q-0.71875 0 -1.359375 0.390625q-0.640625 0.375 -0.921875 1.015625q-0.265625 0.640625 -0.265625 1.78125l0 5.296875l-1.640625 0zm17.000717 -3.109375l1.6875 0.203125q-0.40625 1.484375 -1.484375 2.3125q-1.078125 0.8125 -2.765625 0.8125q-2.125 0 -3.375 -1.296875q-1.234375 -1.3125 -1.234375 -3.671875q0 -2.453125 1.25 -3.796875q1.265625 -1.34375 3.265625 -1.34375q1.9375 0 3.15625 1.328125q1.234375 1.3125 1.234375 3.703125q0 0.15625 0 0.4375l-7.21875 0q0.09375 1.59375 0.90625 2.453125q0.8125 0.84375 2.015625 0.84375q0.90625 0 1.546875 -0.46875q0.640625 -0.484375 1.015625 -1.515625zm-5.390625 -2.65625l5.40625 0q-0.109375 -1.21875 -0.625 -1.828125q-0.78125 -0.953125 -2.03125 -0.953125q-1.125 0 -1.90625 0.765625q-0.765625 0.75 -0.84375 2.015625zm8.500717 1.75l0 -1.640625l5.03125 0l0 1.640625l-5.03125 0zm13.165806 0.46875l1.609375 0.21875q-0.265625 1.65625 -1.359375 2.609375q-1.0781288 0.9375 -2.6718788 0.9375q-1.984375 0 -3.1875 -1.296875q-1.203125 -1.296875 -1.203125 -3.71875q0 -1.578125 0.515625 -2.75q0.515625 -1.171875 1.578125 -1.75q1.0625 -0.59375 2.3125 -0.59375q1.578125 0 2.5781288 0.796875q1.0 0.796875 1.28125 2.265625l-1.59375 0.234375q-0.234375 -0.96875 -0.8125038 -1.453125q-0.578125 -0.5 -1.390625 -0.5q-1.234375 0 -2.015625 0.890625q-0.78125 0.890625 -0.78125 2.8125q0 1.953125 0.75 2.84375q0.75 0.875 1.953125 0.875q0.96875 0 1.609375 -0.59375q0.6562538 -0.59375 0.8281288 -1.828125zm9.328125 2.359375q-0.921875 0.765625 -1.765625 1.09375q-0.828125 0.3125 -1.796875 0.3125q-1.59375 0 -2.453125 -0.78125q-0.859375 -0.78125 -0.859375 -1.984375q0 -0.71875 0.328125 -1.296875q0.328125 -0.59375 0.84375 -0.9375q0.53125 -0.359375 1.1875 -0.546875q0.46875 -0.125 1.453125 -0.25q1.984375 -0.234375 2.921875 -0.5625q0.015625 -0.34375 0.015625 -0.421875q0 -1.0 -0.46875 -1.421875q-0.625 -0.546875 -1.875 -0.546875q-1.15625 0 -1.703125 0.40625q-0.546875 0.40625 -0.8125 1.421875l-1.609375 -0.21875q0.21875 -1.015625 0.71875 -1.640625q0.5 -0.640625 1.453125 -0.984375q0.953125 -0.34375 2.1875 -0.34375q1.25 0 2.015625 0.296875q0.78125 0.28125 1.140625 0.734375q0.375 0.4375 0.515625 1.109375q0.078125 0.421875 0.078125 1.515625l0 2.1875q0 2.28125 0.109375 2.890625q0.109375 0.59375 0.40625 1.15625l-1.703125 0q-0.265625 -0.515625 -0.328125 -1.1875zm-0.140625 -3.671875q-0.890625 0.375 -2.671875 0.625q-1.015625 0.140625 -1.4375 0.328125q-0.421875 0.1875 -0.65625 0.53125q-0.21875 0.34375 -0.21875 0.78125q0 0.65625 0.5 1.09375q0.5 0.4375 1.453125 0.4375q0.9375 0 1.671875 -0.40625q0.75 -0.421875 1.09375 -1.140625q0.265625 -0.5625 0.265625 -1.640625l0 -0.609375zm4.188217 4.859375l0 -9.671875l1.46875 0l0 1.46875q0.5625 -1.03125 1.03125 -1.359375q0.484375 -0.328125 1.0625 -0.328125q0.828125 0 1.6875 0.53125l-0.5625 1.515625q-0.609375 -0.359375 -1.203125 -0.359375q-0.546875 0 -0.96875 0.328125q-0.421875 0.328125 -0.609375 0.890625q-0.28125 0.875 -0.28125 1.921875l0 5.0625l-1.625 0zm5.572052 -2.890625l1.625 -0.25q0.125 0.96875 0.75 1.5q0.625 0.515625 1.75 0.515625q1.125 0 1.671875 -0.453125q0.546875 -0.46875 0.546875 -1.09375q0 -0.546875 -0.484375 -0.875q-0.328125 -0.21875 -1.671875 -0.546875q-1.8125 -0.46875 -2.515625 -0.796875q-0.6875 -0.328125 -1.046875 -0.90625q-0.359375 -0.59375 -0.359375 -1.3125q0 -0.640625 0.296875 -1.1875q0.296875 -0.5625 0.8125 -0.921875q0.375 -0.28125 1.03125 -0.46875q0.671875 -0.203125 1.421875 -0.203125q1.140625 0 2.0 0.328125q0.859375 0.328125 1.265625 0.890625q0.421875 0.5625 0.578125 1.5l-1.609375 0.21875q-0.109375 -0.75 -0.640625 -1.171875q-0.515625 -0.421875 -1.46875 -0.421875q-1.140625 0 -1.625 0.375q-0.46875 0.375 -0.46875 0.875q0 0.3125 0.1875 0.578125q0.203125 0.265625 0.640625 0.4375q0.234375 0.09375 1.4375 0.421875q1.75 0.453125 2.4375 0.75q0.6875 0.296875 1.078125 0.859375q0.390625 0.5625 0.390625 1.40625q0 0.828125 -0.484375 1.546875q-0.46875 0.71875 -1.375 1.125q-0.90625 0.390625 -2.046875 0.390625q-1.875 0 -2.875 -0.78125q-0.984375 -0.78125 -1.25 -2.328125z" fill-rule="nonzero"/><path fill="#000000" d="m246.2237 536.731l-3.6875 -9.671875l1.734375 0l2.078125 5.796875q0.328125 0.9375 0.625 1.9375q0.203125 -0.765625 0.609375 -1.828125l2.140625 -5.90625l1.6875 0l-3.65625 9.671875l-1.53125 0zm5.484375 0l5.171875 -6.953125l-4.5625 -6.40625l2.109375 0l2.421875 3.4375q0.75 1.0625 1.078125 1.625q0.4375 -0.71875 1.046875 -1.515625l2.6875 -3.546875l1.921875 0l-4.6875 6.296875l5.0625 7.0625l-2.1875 0l-3.359375 -4.765625q-0.28125 -0.40625 -0.59375 -0.890625q-0.4375 0.734375 -0.625 1.0l-3.359375 4.65625l-2.125 0z" fill-rule="nonzero"/><path fill="#000000" d="m339.04633 536.731l0 -9.671875l1.46875 0l0 1.375q1.0625 -1.59375 3.078125 -1.59375q0.875 0 1.609375 0.3125q0.734375 0.3125 1.09375 0.828125q0.375 0.5 0.515625 1.203125q0.09375 0.453125 0.09375 1.59375l0 5.953125l-1.640625 0l0 -5.890625q0 -1.0 -0.203125 -1.484375q-0.1875 -0.5 -0.671875 -0.796875q-0.484375 -0.296875 -1.140625 -0.296875q-1.046875 0 -1.8125 0.671875q-0.75 0.65625 -0.75 2.515625l0 5.28125l-1.640625 0zm16.094452 0l-1.640625 0l0 -10.453125q-0.59375 0.5625 -1.5625 1.140625q-0.953125 0.5625 -1.71875 0.84375l0 -1.59375q1.375 -0.640625 2.40625 -1.5625q1.03125 -0.921875 1.453125 -1.78125l1.0625 0l0 13.40625z" fill-rule="nonzero"/><path fill="#000000" d="m531.2237 536.731l-3.6875 -9.671875l1.734375 0l2.078125 5.796875q0.328125 0.9375 0.625 1.9375q0.203125 -0.765625 0.609375 -1.828125l2.140625 -5.90625l1.6875 0l-3.65625 9.671875l-1.53125 0zm10.609375 0l0 -5.65625l-5.15625 -7.703125l2.15625 0l2.640625 4.03125q0.71875 1.125 1.34375 2.265625q0.609375 -1.046875 1.46875 -2.359375l2.578125 -3.9375l2.0625 0l-5.328125 7.703125l0 5.65625l-1.765625 0z" fill-rule="nonzero"/><path fill="#000000" d="m624.0463 540.43414l0 -13.375l1.484375 0l0 1.25q0.53125 -0.734375 1.1875 -1.09375q0.671875 -0.375 1.625 -0.375q1.234375 0 2.171875 0.640625q0.953125 0.625 1.4375 1.796875q0.484375 1.15625 0.484375 2.546875q0 1.484375 -0.53125 2.671875q-0.53125 1.1875 -1.546875 1.828125q-1.015625 0.625 -2.140625 0.625q-0.8125 0 -1.46875 -0.34375q-0.65625 -0.34375 -1.0625 -0.875l0 4.703125l-1.640625 0zm1.484375 -8.484375q0 1.859375 0.75 2.765625q0.765625 0.890625 1.828125 0.890625q1.09375 0 1.875 -0.921875q0.78125 -0.9375 0.78125 -2.875q0 -1.84375 -0.765625 -2.765625q-0.75 -0.921875 -1.8125 -0.921875q-1.046875 0 -1.859375 0.984375q-0.796875 0.96875 -0.796875 2.84375zm14.610107 4.78125l-1.640625 0l0 -10.453125q-0.59375 0.5625 -1.5625 1.140625q-0.953125 0.5625 -1.71875 0.84375l0 -1.59375q1.375 -0.640625 2.40625 -1.5625q1.03125 -0.921875 1.453125 -1.78125l1.0625 0l0 13.40625z" fill-rule="nonzero"/><path fill="#000000" d="m719.0463 540.43414l0 -13.375l1.484375 0l0 1.25q0.53125 -0.734375 1.1875 -1.09375q0.671875 -0.375 1.625 -0.375q1.234375 0 2.171875 0.640625q0.953125 0.625 1.4375 1.796875q0.484375 1.15625 0.484375 2.546875q0 1.484375 -0.53125 2.671875q-0.53125 1.1875 -1.546875 1.828125q-1.015625 0.625 -2.140625 0.625q-0.8125 0 -1.46875 -0.34375q-0.65625 -0.34375 -1.0625 -0.875l0 4.703125l-1.640625 0zm1.484375 -8.484375q0 1.859375 0.75 2.765625q0.765625 0.890625 1.828125 0.890625q1.09375 0 1.875 -0.921875q0.78125 -0.9375 0.78125 -2.875q0 -1.84375 -0.765625 -2.765625q-0.75 -0.921875 -1.8125 -0.921875q-1.046875 0 -1.859375 0.984375q-0.796875 0.96875 -0.796875 2.84375zm14.610107 4.78125l-1.640625 0l0 -10.453125q-0.59375 0.5625 -1.5625 1.140625q-0.953125 0.5625 -1.71875 0.84375l0 -1.59375q1.375 -0.640625 2.40625 -1.5625q1.03125 -0.921875 1.453125 -1.78125l1.0625 0l0 13.40625z" fill-rule="nonzero"/><path fill="#000000" d="m29.500164 575.8607l0.234375 1.453125q-0.6875 0.140625 -1.234375 0.140625q-0.890625 0 -1.390625 -0.28125q-0.484375 -0.28125 -0.6875 -0.734375q-0.203125 -0.46875 -0.203125 -1.9375l0 -5.578125l-1.203125 0l0 -1.265625l1.203125 0l0 -2.390625l1.625 -0.984375l0 3.375l1.65625 0l0 1.265625l-1.65625 0l0 5.671875q0 0.6875 0.078125 0.890625q0.09375 0.203125 0.28125 0.328125q0.203125 0.109375 0.578125 0.109375q0.265625 0 0.71875 -0.0625zm1.6051788 1.46875l0 -13.359375l1.640625 0l0 4.796875q1.140625 -1.328125 2.890625 -1.328125q1.078125 0 1.859375 0.421875q0.796875 0.421875 1.140625 1.171875q0.34375 0.75 0.34375 2.171875l0 6.125l-1.640625 0l0 -6.125q0 -1.234375 -0.53125 -1.796875q-0.53125 -0.5625 -1.515625 -0.5625q-0.71875 0 -1.359375 0.390625q-0.640625 0.375 -0.921875 1.015625q-0.265625 0.640625 -0.265625 1.78125l0 5.296875l-1.640625 0zm17.000717 -3.109375l1.6875 0.203125q-0.40625 1.484375 -1.484375 2.3125q-1.078125 0.8125 -2.765625 0.8125q-2.125 0 -3.375 -1.296875q-1.234375 -1.3125 -1.234375 -3.671875q0 -2.453125 1.25 -3.796875q1.265625 -1.34375 3.265625 -1.34375q1.9375 0 3.15625 1.328125q1.234375 1.3125 1.234375 3.703125q0 0.15625 0 0.4375l-7.21875 0q0.09375 1.59375 0.90625 2.453125q0.8125 0.84375 2.015625 0.84375q0.90625 0 1.546875 -0.46875q0.640625 -0.484375 1.015625 -1.515625zm-5.390625 -2.65625l5.40625 0q-0.109375 -1.21875 -0.625 -1.828125q-0.78125 -0.953125 -2.03125 -0.953125q-1.125 0 -1.90625 0.765625q-0.765625 0.75 -0.84375 2.015625zm8.500717 1.75l0 -1.640625l5.03125 0l0 1.640625l-5.03125 0zm13.165806 0.46875l1.609375 0.21875q-0.265625 1.65625 -1.359375 2.609375q-1.0781288 0.9375 -2.6718788 0.9375q-1.984375 0 -3.1875 -1.296875q-1.203125 -1.296875 -1.203125 -3.71875q0 -1.578125 0.515625 -2.75q0.515625 -1.171875 1.578125 -1.75q1.0625 -0.59375 2.3125 -0.59375q1.578125 0 2.5781288 0.796875q1.0 0.796875 1.28125 2.265625l-1.59375 0.234375q-0.234375 -0.96875 -0.8125038 -1.453125q-0.578125 -0.5 -1.390625 -0.5q-1.234375 0 -2.015625 0.890625q-0.78125 0.890625 -0.78125 2.8125q0 1.953125 0.75 2.84375q0.75 0.875 1.953125 0.875q0.96875 0 1.609375 -0.59375q0.6562538 -0.59375 0.8281288 -1.828125zm9.28125 3.546875l0 -1.21875q-0.90625 1.4375 -2.703125 1.4375q-1.15625 0 -2.125 -0.640625q-0.96875 -0.640625 -1.5 -1.78125q-0.53125 -1.140625 -0.53125 -2.625q0 -1.453125 0.484375 -2.625q0.484375 -1.1875 1.4375 -1.8125q0.96875 -0.625 2.171875 -0.625q0.875 0 1.546875 0.375q0.6875 0.359375 1.109375 0.953125l0 -4.796875l1.640625 0l0 13.359375l-1.53125 0zm-5.171875 -4.828125q0 1.859375 0.78125 2.78125q0.78125 0.921875 1.84375 0.921875q1.078125 0 1.828125 -0.875q0.75 -0.890625 0.75 -2.6875q0 -1.984375 -0.765625 -2.90625q-0.765625 -0.9375 -1.890625 -0.9375q-1.078125 0 -1.8125 0.890625q-0.734375 0.890625 -0.734375 2.8125zm9.266342 4.828125l0 -9.671875l1.46875 0l0 1.46875q0.5625 -1.03125 1.03125 -1.359375q0.484375 -0.328125 1.0625 -0.328125q0.828125 0 1.6875 0.53125l-0.5625 1.515625q-0.609375 -0.359375 -1.203125 -0.359375q-0.546875 0 -0.96875 0.328125q-0.421875 0.328125 -0.609375 0.890625q-0.28125 0.875 -0.28125 1.921875l0 5.0625l-1.625 0zm5.572052 -2.890625l1.625 -0.25q0.125 0.96875 0.75 1.5q0.625 0.515625 1.75 0.515625q1.125 0 1.671875 -0.453125q0.546875 -0.46875 0.546875 -1.09375q0 -0.546875 -0.484375 -0.875q-0.328125 -0.21875 -1.671875 -0.546875q-1.8125 -0.46875 -2.515625 -0.796875q-0.6875 -0.328125 -1.046875 -0.90625q-0.359375 -0.59375 -0.359375 -1.3125q0 -0.640625 0.296875 -1.1875q0.296875 -0.5625 0.8125 -0.921875q0.375 -0.28125 1.03125 -0.46875q0.671875 -0.203125 1.421875 -0.203125q1.140625 0 2.0 0.328125q0.859375 0.328125 1.265625 0.890625q0.421875 0.5625 0.578125 1.5l-1.609375 0.21875q-0.109375 -0.75 -0.640625 -1.171875q-0.515625 -0.421875 -1.46875 -0.421875q-1.140625 0 -1.625 0.375q-0.46875 0.375 -0.46875 0.875q0 0.3125 0.1875 0.578125q0.203125 0.265625 0.640625 0.4375q0.234375 0.09375 1.4375 0.421875q1.75 0.453125 2.4375 0.75q0.6875 0.296875 1.078125 0.859375q0.390625 0.5625 0.390625 1.40625q0 0.828125 -0.484375 1.546875q-0.46875 0.71875 -1.375 1.125q-0.90625 0.390625 -2.046875 0.390625q-1.875 0 -2.875 -0.78125q-0.984375 -0.78125 -1.25 -2.328125z" fill-rule="nonzero"/><path fill="#000000" d="m244.04633 581.631l0 -13.375l1.484375 0l0 1.25q0.53125 -0.734375 1.1875 -1.09375q0.671875 -0.375 1.625 -0.375q1.234375 0 2.171875 0.640625q0.953125 0.625 1.4375 1.796875q0.484375 1.15625 0.484375 2.546875q0 1.484375 -0.53125 2.671875q-0.53125 1.1875 -1.546875 1.828125q-1.015625 0.625 -2.140625 0.625q-0.8125 0 -1.46875 -0.34375q-0.65625 -0.34375 -1.0625 -0.875l0 4.703125l-1.640625 0zm1.484375 -8.484375q0 1.859375 0.75 2.765625q0.765625 0.890625 1.828125 0.890625q1.09375 0 1.875 -0.921875q0.78125 -0.9375 0.78125 -2.875q0 -1.84375 -0.765625 -2.765625q-0.75 -0.921875 -1.8125 -0.921875q-1.046875 0 -1.859375 0.984375q-0.796875 0.96875 -0.796875 2.84375zm17.047577 3.203125l0 1.578125l-8.82811 0q-0.015625 -0.59375 0.1875 -1.140625q0.34375 -0.90625 1.078125 -1.78125q0.75 -0.875 2.1562347 -2.015625q2.171875 -1.78125 2.9375 -2.828125q0.765625 -1.046875 0.765625 -1.96875q0 -0.984375 -0.703125 -1.640625q-0.6875 -0.671875 -1.8125 -0.671875q-1.1875 0 -1.90625 0.71875q-0.70310974 0.703125 -0.70310974 1.953125l-1.6875 -0.171875q0.171875 -1.890625 1.296875 -2.875q1.1406097 -0.984375 3.0312347 -0.984375q1.921875 0 3.046875 1.0625q1.125 1.0625 1.125 2.640625q0 0.796875 -0.328125 1.578125q-0.328125 0.78125 -1.09375 1.640625q-0.75 0.84375 -2.53125 2.34375q-1.46875 1.234375 -1.890625 1.6875q-0.421875 0.4375 -0.6875 0.875l6.546875 0z" fill-rule="nonzero"/><path fill="#000000" d="m339.04633 577.92786l0 -9.671875l1.46875 0l0 1.375q1.0625 -1.59375 3.078125 -1.59375q0.875 0 1.609375 0.3125q0.734375 0.3125 1.09375 0.828125q0.375 0.5 0.515625 1.203125q0.09375 0.453125 0.09375 1.59375l0 5.953125l-1.640625 0l0 -5.890625q0 -1.0 -0.203125 -1.484375q-0.1875 -0.5 -0.671875 -0.796875q-0.484375 -0.296875 -1.140625 -0.296875q-1.046875 0 -1.8125 0.671875q-0.75 0.65625 -0.75 2.515625l0 5.28125l-1.640625 0zm18.531952 -1.578125l0 1.578125l-8.828125 0q-0.015625 -0.59375 0.1875 -1.140625q0.34375 -0.90625 1.078125 -1.78125q0.75 -0.875 2.15625 -2.015625q2.171875 -1.78125 2.9375 -2.828125q0.765625 -1.046875 0.765625 -1.96875q0 -0.984375 -0.703125 -1.640625q-0.6875 -0.671875 -1.8125 -0.671875q-1.1875 0 -1.90625 0.71875q-0.703125 0.703125 -0.703125 1.953125l-1.6875 -0.171875q0.171875 -1.890625 1.296875 -2.875q1.140625 -0.984375 3.03125 -0.984375q1.921875 0 3.046875 1.0625q1.125 1.0625 1.125 2.640625q0 0.796875 -0.328125 1.578125q-0.328125 0.78125 -1.09375 1.640625q-0.75 0.84375 -2.53125 2.34375q-1.46875 1.234375 -1.890625 1.6875q-0.421875 0.4375 -0.6875 0.875l6.546875 0z" fill-rule="nonzero"/><path fill="#000000" d="m529.0463 581.631l0 -13.375l1.484375 0l0 1.25q0.53125 -0.734375 1.1875 -1.09375q0.671875 -0.375 1.625 -0.375q1.234375 0 2.171875 0.640625q0.953125 0.625 1.4375 1.796875q0.484375 1.15625 0.484375 2.546875q0 1.484375 -0.53125 2.671875q-0.53125 1.1875 -1.546875 1.828125q-1.015625 0.625 -2.140625 0.625q-0.8125 0 -1.46875 -0.34375q-0.65625 -0.34375 -1.0625 -0.875l0 4.703125l-1.640625 0zm1.484375 -8.484375q0 1.859375 0.75 2.765625q0.765625 0.890625 1.828125 0.890625q1.09375 0 1.875 -0.921875q0.78125 -0.9375 0.78125 -2.875q0 -1.84375 -0.765625 -2.765625q-0.75 -0.921875 -1.8125 -0.921875q-1.046875 0 -1.859375 0.984375q-0.796875 0.96875 -0.796875 2.84375zm8.438232 1.28125l1.71875 -0.140625q0.1875 1.25 0.875 1.890625q0.703125 0.625 1.6875 0.625q1.1875 0 2.0 -0.890625q0.828125 -0.890625 0.828125 -2.359375q0 -1.40625 -0.796875 -2.21875q-0.78125 -0.8125 -2.0625 -0.8125q-0.78125 0 -1.421875 0.359375q-0.640625 0.359375 -1.0 0.9375l-1.546875 -0.203125l1.296875 -6.859375l6.640625 0l0 1.5625l-5.328125 0l-0.71875 3.59375q1.203125 -0.84375 2.515625 -0.84375q1.75 0 2.953125 1.21875q1.203125 1.203125 1.203125 3.109375q0 1.8125 -1.046875 3.140625q-1.296875 1.625 -3.515625 1.625q-1.8125 0 -2.96875 -1.015625q-1.15625 -1.03125 -1.3125 -2.71875z" fill-rule="nonzero"/><path fill="#000000" d="m624.0463 581.631l0 -13.375l1.484375 0l0 1.25q0.53125 -0.734375 1.1875 -1.09375q0.671875 -0.375 1.625 -0.375q1.234375 0 2.171875 0.640625q0.953125 0.625 1.4375 1.796875q0.484375 1.15625 0.484375 2.546875q0 1.484375 -0.53125 2.671875q-0.53125 1.1875 -1.546875 1.828125q-1.015625 0.625 -2.140625 0.625q-0.8125 0 -1.46875 -0.34375q-0.65625 -0.34375 -1.0625 -0.875l0 4.703125l-1.640625 0zm1.484375 -8.484375q0 1.859375 0.75 2.765625q0.765625 0.890625 1.828125 0.890625q1.09375 0 1.875 -0.921875q0.78125 -0.9375 0.78125 -2.875q0 -1.84375 -0.765625 -2.765625q-0.75 -0.921875 -1.8125 -0.921875q-1.046875 0 -1.859375 0.984375q-0.796875 0.96875 -0.796875 2.84375zm16.938232 -5.296875l-1.625 0.125q-0.21875 -0.96875 -0.625 -1.40625q-0.65625 -0.703125 -1.640625 -0.703125q-0.78125 0 -1.375 0.4375q-0.765625 0.5625 -1.21875 1.65625q-0.453125 1.078125 -0.46875 3.078125q0.59375 -0.890625 1.453125 -1.328125q0.859375 -0.4375 1.796875 -0.4375q1.640625 0 2.78125 1.203125q1.15625 1.203125 1.15625 3.109375q0 1.265625 -0.546875 2.34375q-0.53125 1.078125 -1.484375 1.65625q-0.9375 0.578125 -2.140625 0.578125q-2.0625 0 -3.359375 -1.5q-1.28125 -1.515625 -1.28125 -4.984375q0 -3.875 1.421875 -5.625q1.25 -1.53125 3.375 -1.53125q1.5625 0 2.5625 0.890625q1.015625 0.875 1.21875 2.4375zm-6.6875 5.75q0 0.84375 0.359375 1.625q0.359375 0.765625 1.0 1.171875q0.640625 0.40625 1.359375 0.40625q1.03125 0 1.78125 -0.828125q0.75 -0.84375 0.75 -2.28125q0 -1.390625 -0.734375 -2.1875q-0.734375 -0.796875 -1.859375 -0.796875q-1.109375 0 -1.890625 0.796875q-0.765625 0.796875 -0.765625 2.09375z" fill-rule="nonzero"/><path fill="#000000" d="m725.6713 574.8185l1.6875 0.203125q-0.40625 1.484375 -1.484375 2.3125q-1.078125 0.8125 -2.765625 0.8125q-2.125 0 -3.375 -1.296875q-1.234375 -1.3125 -1.234375 -3.671875q0 -2.453125 1.25 -3.796875q1.265625 -1.34375 3.265625 -1.34375q1.9375 0 3.15625 1.328125q1.234375 1.3125 1.234375 3.703125q0 0.15625 0 0.4375l-7.21875 0q0.09375 1.59375 0.90625 2.453125q0.8125 0.84375 2.015625 0.84375q0.90625 0 1.546875 -0.46875q0.640625 -0.484375 1.015625 -1.515625zm-5.390625 -2.65625l5.40625 0q-0.109375 -1.21875 -0.625 -1.828125q-0.78125 -0.953125 -2.03125 -0.953125q-1.125 0 -1.90625 0.765625q-0.765625 0.75 -0.84375 2.015625zm8.688232 -0.828125q0 -2.359375 0.484375 -3.796875q0.484375 -1.453125 1.4375 -2.234375q0.96875 -0.78125 2.421875 -0.78125q1.078125 0 1.890625 0.4375q0.8125 0.421875 1.328125 1.25q0.53125 0.8125 0.828125 1.984375q0.3125 1.15625 0.3125 3.140625q0 2.359375 -0.484375 3.8125q-0.484375 1.4375 -1.453125 2.234375q-0.953125 0.78125 -2.421875 0.78125q-1.921875 0 -3.03125 -1.390625q-1.3125 -1.671875 -1.3125 -5.4375zm1.671875 0q0 3.296875 0.765625 4.390625q0.78125 1.078125 1.90625 1.078125q1.140625 0 1.90625 -1.09375q0.765625 -1.09375 0.765625 -4.375q0 -3.296875 -0.765625 -4.375q-0.765625 -1.078125 -1.921875 -1.078125q-1.125 0 -1.796875 0.953125q-0.859375 1.21875 -0.859375 4.5z" fill-rule="nonzero"/></g></svg>