<svg version="1.1" viewBox="0.0 0.0 956.0 586.0" fill="none" stroke="none" stroke-linecap="square" stroke-miterlimit="10" xmlns:xlink="http://www.w3.org/1999/xlink" xmlns="http://www.w3.org/2000/svg"><clipPath id="p.0"><path d="m0 0l956.0 0l0 586.0l-956.0 0l0 -586.0z" clip-rule="nonzero"/></clipPath><g clip-path="url(#p.0)"><path fill="#000000" fill-opacity="0.0" d="m0 0l956.0 0l0 586.0l-956.0 0z" fill-rule="evenodd"/><path fill="#d9d9d9" d="m122.84777 138.88213l0 0c0 -6.534775 5.2974777 -11.83226 11.8322525 -11.83226l82.823685 0c3.1381073 0 6.14769 1.2466125 8.366669 3.4655914c2.218979 2.218979 3.4655762 5.2285614 3.4655762 8.366669l0 47.327606c0 6.534775 -5.29747 11.83226 -11.832245 11.83226l-82.823685 0c-6.534775 0 -11.8322525 -5.2974854 -11.8322525 -11.83226z" fill-rule="evenodd"/><path stroke="#000000" stroke-width="1.0" stroke-linejoin="round" stroke-linecap="butt" d="m122.84777 138.88213l0 0c0 -6.534775 5.2974777 -11.83226 11.8322525 -11.83226l82.823685 0c3.1381073 0 6.14769 1.2466125 8.366669 3.4655914c2.218979 2.218979 3.4655762 5.2285614 3.4655762 8.366669l0 47.327606c0 6.534775 -5.29747 11.83226 -11.832245 11.83226l-82.823685 0c-6.534775 0 -11.8322525 -5.2974854 -11.8322525 -11.83226z" fill-rule="evenodd"/><path fill="#000000" d="m168.0894 169.46593l-3.6875 -9.671875l1.734375 0l2.078125 5.796875q0.328125 0.9375 0.625 1.9375q0.203125 -0.765625 0.609375 -1.828125l2.140625 -5.90625l1.6875 0l-3.65625 9.671875l-1.53125 0zm12.953125 -1.1875q-0.921875 0.765625 -1.765625 1.09375q-0.828125 0.3125 -1.796875 0.3125q-1.59375 0 -2.453125 -0.78125q-0.859375 -0.78125 -0.859375 -1.984375q0 -0.71875 0.328125 -1.296875q0.328125 -0.59375 0.84375 -0.9375q0.53125 -0.359375 1.1875 -0.546875q0.46875 -0.125 1.453125 -0.25q1.984375 -0.234375 2.921875 -0.5625q0.015625 -0.34375 0.015625 -0.421875q0 -1.0 -0.46875 -1.421875q-0.625 -0.546875 -1.875 -0.546875q-1.15625 0 -1.703125 0.40625q-0.546875 0.40625 -0.8125 1.421875l-1.609375 -0.21875q0.21875 -1.015625 0.71875 -1.640625q0.5 -0.640625 1.453125 -0.984375q0.953125 -0.34375 2.1875 -0.34375q1.25 0 2.015625 0.296875q0.78125 0.28125 1.140625 0.734375q0.375 0.4375 0.515625 1.109375q0.078125 0.421875 0.078125 1.515625l0 2.1875q0 2.28125 0.109375 2.890625q0.109375 0.59375 0.40625 1.15625l-1.703125 0q-0.265625 -0.515625 -0.328125 -1.1875zm-0.140625 -3.671875q-0.890625 0.375 -2.671875 0.625q-1.015625 0.140625 -1.4375 0.328125q-0.421875 0.1875 -0.65625 0.53125q-0.21875 0.34375 -0.21875 0.78125q0 0.65625 0.5 1.09375q0.5 0.4375 1.453125 0.4375q0.9375 0 1.671875 -0.40625q0.75 -0.421875 1.09375 -1.140625q0.265625 -0.5625 0.265625 -1.640625l0 -0.609375zm4.156967 4.859375l0 -13.359375l1.640625 0l0 13.359375l-1.640625 0z" fill-rule="nonzero"/><path fill="#d9d9d9" d="m468.75854 138.88213l0 0c0 -6.534775 5.297455 -11.83226 11.832245 -11.83226l82.8237 0c3.1380615 0 6.147644 1.2466125 8.366638 3.4655914c2.2189941 2.218979 3.4655762 5.2285614 3.4655762 8.366669l0 47.327606c0 6.534775 -5.2974854 11.83226 -11.832214 11.83226l-82.8237 0c-6.53479 0 -11.832245 -5.2974854 -11.832245 -11.83226z" fill-rule="evenodd"/><path stroke="#000000" stroke-width="1.0" stroke-linejoin="round" stroke-linecap="butt" d="m468.75854 138.88213l0 0c0 -6.534775 5.297455 -11.83226 11.832245 -11.83226l82.8237 0c3.1380615 0 6.147644 1.2466125 8.366638 3.4655914c2.2189941 2.218979 3.4655762 5.2285614 3.4655762 8.366669l0 47.327606c0 6.534775 -5.2974854 11.83226 -11.832214 11.83226l-82.8237 0c-6.53479 0 -11.832245 -5.2974854 -11.832245 -11.83226z" fill-rule="evenodd"/><path fill="#000000" d="m518.04913 169.46593l0 -9.671875l1.46875 0l0 1.375q1.0625 -1.59375 3.078125 -1.59375q0.875 0 1.609375 0.3125q0.734375 0.3125 1.09375 0.828125q0.375 0.5 0.515625 1.203125q0.09375 0.453125 0.09375 1.59375l0 5.953125l-1.640625 0l0 -5.890625q0 -1.0 -0.203125 -1.484375q-0.1875 -0.5 -0.671875 -0.796875q-0.484375 -0.296875 -1.140625 -0.296875q-1.046875 0 -1.8125 0.671875q-0.75 0.65625 -0.75 2.515625l0 5.28125l-1.640625 0z" fill-rule="nonzero"/><path fill="#d9d9d9" d="m686.6693 138.88213l0 0c0 -6.534775 5.2974854 -11.83226 11.832214 -11.83226l82.82367 0c3.1381226 0 6.147705 1.2466125 8.366699 3.4655914c2.2189941 2.218979 3.4655762 5.2285614 3.4655762 8.366669l0 47.327606c0 6.534775 -5.2974854 11.83226 -11.832275 11.83226l-82.82367 0c-6.534729 0 -11.832214 -5.2974854 -11.832214 -11.83226z" fill-rule="evenodd"/><path stroke="#000000" stroke-width="1.0" stroke-linejoin="round" stroke-linecap="butt" d="m686.6693 138.88213l0 0c0 -6.534775 5.2974854 -11.83226 11.832214 -11.83226l82.82367 0c3.1381226 0 6.147705 1.2466125 8.366699 3.4655914c2.2189941 2.218979 3.4655762 5.2285614 3.4655762 8.366669l0 47.327606c0 6.534775 -5.2974854 11.83226 -11.832275 11.83226l-82.82367 0c-6.534729 0 -11.832214 -5.2974854 -11.832214 -11.83226z" fill-rule="evenodd"/><path fill="#000000" d="m718.7198 166.5753l1.625 -0.25q0.125 0.96875 0.75 1.5q0.625 0.515625 1.75 0.515625q1.125 0 1.671875 -0.453125q0.546875 -0.46875 0.546875 -1.09375q0 -0.546875 -0.484375 -0.875q-0.328125 -0.21875 -1.671875 -0.546875q-1.8125 -0.46875 -2.515625 -0.796875q-0.6875 -0.328125 -1.046875 -0.90625q-0.359375 -0.59375 -0.359375 -1.3125q0 -0.640625 0.296875 -1.1875q0.296875 -0.5625 0.8125 -0.921875q0.375 -0.28125 1.03125 -0.46875q0.671875 -0.203125 1.421875 -0.203125q1.140625 0 2.0 0.328125q0.859375 0.328125 1.265625 0.890625q0.421875 0.5625 0.578125 1.5l-1.609375 0.21875q-0.109375 -0.75 -0.640625 -1.171875q-0.515625 -0.421875 -1.46875 -0.421875q-1.140625 0 -1.625 0.375q-0.46875 0.375 -0.46875 0.875q0 0.3125 0.1875 0.578125q0.203125 0.265625 0.640625 0.4375q0.234375 0.09375 1.4375 0.421875q1.75 0.453125 2.4375 0.75q0.6875 0.296875 1.078125 0.859375q0.390625 0.5625 0.390625 1.40625q0 0.828125 -0.484375 1.546875q-0.46875 0.71875 -1.375 1.125q-0.90625 0.390625 -2.046875 0.390625q-1.875 0 -2.875 -0.78125q-0.984375 -0.78125 -1.25 -2.328125zm13.5625 1.421875l0.234375 1.453125q-0.6875 0.140625 -1.234375 0.140625q-0.890625 0 -1.390625 -0.28125q-0.484375 -0.28125 -0.6875 -0.734375q-0.203125 -0.46875 -0.203125 -1.9375l0 -5.578125l-1.203125 0l0 -1.265625l1.203125 0l0 -2.390625l1.625 -0.984375l0 3.375l1.65625 0l0 1.265625l-1.65625 0l0 5.671875q0 0.6875 0.078125 0.890625q0.09375 0.203125 0.28125 0.328125q0.203125 0.109375 0.578125 0.109375q0.265625 0 0.71875 -0.0625zm7.9177246 0.28125q-0.921875 0.765625 -1.765625 1.09375q-0.828125 0.3125 -1.796875 0.3125q-1.59375 0 -2.453125 -0.78125q-0.859375 -0.78125 -0.859375 -1.984375q0 -0.71875 0.328125 -1.296875q0.328125 -0.59375 0.84375 -0.9375q0.53125 -0.359375 1.1875 -0.546875q0.46875 -0.125 1.453125 -0.25q1.984375 -0.234375 2.921875 -0.5625q0.015625 -0.34375 0.015625 -0.421875q0 -1.0 -0.46875 -1.421875q-0.625 -0.546875 -1.875 -0.546875q-1.15625 0 -1.703125 0.40625q-0.546875 0.40625 -0.8125 1.421875l-1.609375 -0.21875q0.21875 -1.015625 0.71875 -1.640625q0.5 -0.640625 1.453125 -0.984375q0.953125 -0.34375 2.1875 -0.34375q1.25 0 2.015625 0.296875q0.78125 0.28125 1.140625 0.734375q0.375 0.4375 0.515625 1.109375q0.078125 0.421875 0.078125 1.515625l0 2.1875q0 2.28125 0.109375 2.890625q0.109375 0.59375 0.40625 1.15625l-1.703125 0q-0.265625 -0.515625 -0.328125 -1.1875zm-0.140625 -3.671875q-0.890625 0.375 -2.671875 0.625q-1.015625 0.140625 -1.4375 0.328125q-0.421875 0.1875 -0.65625 0.53125q-0.21875 0.34375 -0.21875 0.78125q0 0.65625 0.5 1.09375q0.5 0.4375 1.453125 0.4375q0.9375 0 1.671875 -0.40625q0.75 -0.421875 1.09375 -1.140625q0.265625 -0.5625 0.265625 -1.640625l0 -0.609375zm10.516296 1.3125l1.609375 0.21875q-0.265625 1.65625 -1.359375 2.609375q-1.078125 0.9375 -2.671875 0.9375q-1.984375 0 -3.1875 -1.296875q-1.203125 -1.296875 -1.203125 -3.71875q0 -1.578125 0.515625 -2.75q0.515625 -1.171875 1.578125 -1.75q1.0625 -0.59375 2.3125 -0.59375q1.578125 0 2.578125 0.796875q1.0 0.796875 1.28125 2.265625l-1.59375 0.234375q-0.234375 -0.96875 -0.8125 -1.453125q-0.578125 -0.5 -1.390625 -0.5q-1.234375 0 -2.015625 0.890625q-0.78125 0.890625 -0.78125 2.8125q0 1.953125 0.75 2.84375q0.75 0.875 1.953125 0.875q0.96875 0 1.609375 -0.59375q0.65625 -0.59375 0.828125 -1.828125zm3.015625 3.546875l0 -13.359375l1.640625 0l0 7.625l3.890625 -3.9375l2.109375 0l-3.6875 3.59375l4.0625 6.078125l-2.015625 0l-3.203125 -4.953125l-1.15625 1.125l0 3.828125l-1.640625 0z" fill-rule="nonzero"/><path fill="#000000" fill-opacity="0.0" d="m624.3018 143.04987l0 0c0 -6.627411 5.4642334 -12.0 12.204773 -12.0l0 0c3.2368774 0 6.3411865 1.2642822 8.630005 3.5147247c2.2888184 2.2504272 3.574707 5.3026733 3.574707 8.485275l0 0c0 6.627426 -5.4642334 12.0 -12.204712 12.0l0 0c-6.7405396 0 -12.204773 -5.372574 -12.204773 -12.0z" fill-rule="evenodd"/><path fill="#000000" fill-opacity="0.0" d="m627.8765 134.56459l17.26007 16.970566m0 -16.970566l-17.26007 16.970566" fill-rule="evenodd"/><path fill="#000000" fill-opacity="0.0" d="m624.3018 143.04987l0 0c0 -6.627411 5.4642334 -12.0 12.204773 -12.0l0 0c3.2368774 0 6.3411865 1.2642822 8.630005 3.5147247c2.2888184 2.2504272 3.574707 5.3026733 3.574707 8.485275l0 0c0 6.627426 -5.4642334 12.0 -12.204712 12.0l0 0c-6.7405396 0 -12.204773 -5.372574 -12.204773 -12.0z" fill-rule="evenodd"/><path stroke="#000000" stroke-width="1.0" stroke-linejoin="round" stroke-linecap="butt" d="m627.8765 134.56459l17.26007 16.970566m0 -16.970566l-17.26007 16.970566" fill-rule="evenodd"/><path stroke="#000000" stroke-width="1.0" stroke-linejoin="round" stroke-linecap="butt" d="m624.3018 143.04987l0 0c0 -6.627411 5.4642334 -12.0 12.204773 -12.0l0 0c3.2368774 0 6.3411865 1.2642822 8.630005 3.5147247c2.2888184 2.2504272 3.574707 5.3026733 3.574707 8.485275l0 0c0 6.627426 -5.4642334 12.0 -12.204712 12.0l0 0c-6.7405396 0 -12.204773 -5.372574 -12.204773 -12.0z" fill-rule="evenodd"/><path fill="#000000" fill-opacity="0.0" d="m611.40155 95.333336l51.02362 0l0 35.71653l-51.02362 0z" fill-rule="evenodd"/><path fill="#000000" d="m627.6396 117.22098l1.625 -0.25q0.125 0.96875 0.75 1.5q0.625 0.515625 1.75 0.515625q1.125 0 1.671875 -0.453125q0.546875 -0.46875 0.546875 -1.09375q0 -0.546875 -0.484375 -0.875q-0.328125 -0.21875 -1.671875 -0.546875q-1.8125 -0.46875 -2.515625 -0.796875q-0.6875 -0.328125 -1.046875 -0.90625q-0.359375 -0.59375 -0.359375 -1.3125q0 -0.640625 0.296875 -1.1875q0.296875 -0.5625 0.8125 -0.921875q0.375 -0.28125 1.03125 -0.46875q0.671875 -0.203125 1.421875 -0.203125q1.140625 0 2.0 0.328125q0.859375 0.328125 1.265625 0.890625q0.421875 0.5625 0.578125 1.5l-1.609375 0.21875q-0.109375 -0.75 -0.640625 -1.171875q-0.515625 -0.421875 -1.46875 -0.421875q-1.140625 0 -1.625 0.375q-0.46875 0.375 -0.46875 0.875q0 0.3125 0.1875 0.578125q0.203125 0.265625 0.640625 0.4375q0.234375 0.09375 1.4375 0.421875q1.75 0.453125 2.4375 0.75q0.6875 0.296875 1.078125 0.859375q0.390625 0.5625 0.390625 1.40625q0 0.828125 -0.484375 1.546875q-0.46875 0.71875 -1.375 1.125q-0.90625 0.390625 -2.046875 0.390625q-1.875 0 -2.875 -0.78125q-0.984375 -0.78125 -1.25 -2.328125zm9.984375 2.890625l0 -9.671875l1.46875 0l0 1.375q1.0625 -1.59375 3.078125 -1.59375q0.875 0 1.609375 0.3125q0.734375 0.3125 1.09375 0.828125q0.375 0.5 0.515625 1.203125q0.09375 0.453125 0.09375 1.59375l0 5.953125l-1.640625 0l0 -5.890625q0 -1.0 -0.203125 -1.484375q-0.1875 -0.5 -0.671875 -0.796875q-0.484375 -0.296875 -1.140625 -0.296875q-1.046875 0 -1.8125 0.671875q-0.75 0.65625 -0.75 2.515625l0 5.28125l-1.640625 0z" fill-rule="nonzero"/><path fill="#000000" fill-opacity="0.0" d="m624.7087 186.75066l0 0c0 -6.627411 5.4642334 -12.0 12.204712 -12.0l0 0c3.2368774 0 6.3411865 1.2642822 8.630066 3.5147247c2.2888184 2.2504272 3.574646 5.3026733 3.574646 8.485275l0 0c0 6.627411 -5.4642334 12.0 -12.204712 12.0l0 0c-6.7404785 0 -12.204712 -5.372589 -12.204712 -12.0z" fill-rule="evenodd"/><path fill="#000000" fill-opacity="0.0" d="m628.2833 178.26538l17.260132 16.97055m0 -16.97055l-17.260132 16.97055" fill-rule="evenodd"/><path fill="#000000" fill-opacity="0.0" d="m624.7087 186.75066l0 0c0 -6.627411 5.4642334 -12.0 12.204712 -12.0l0 0c3.2368774 0 6.3411865 1.2642822 8.630066 3.5147247c2.2888184 2.2504272 3.574646 5.3026733 3.574646 8.485275l0 0c0 6.627411 -5.4642334 12.0 -12.204712 12.0l0 0c-6.7404785 0 -12.204712 -5.372589 -12.204712 -12.0z" fill-rule="evenodd"/><path stroke="#000000" stroke-width="1.0" stroke-linejoin="round" stroke-linecap="butt" d="m628.2833 178.26538l17.260132 16.97055m0 -16.97055l-17.260132 16.97055" fill-rule="evenodd"/><path stroke="#000000" stroke-width="1.0" stroke-linejoin="round" stroke-linecap="butt" d="m624.7087 186.75066l0 0c0 -6.627411 5.4642334 -12.0 12.204712 -12.0l0 0c3.2368774 0 6.3411865 1.2642822 8.630066 3.5147247c2.2888184 2.2504272 3.574646 5.3026733 3.574646 8.485275l0 0c0 6.627411 -5.4642334 12.0 -12.204712 12.0l0 0c-6.7404785 0 -12.204712 -5.372589 -12.204712 -12.0z" fill-rule="evenodd"/><path fill="#000000" fill-opacity="0.0" d="m611.40155 198.75066l51.02362 0l0 35.716537l-51.02362 0z" fill-rule="evenodd"/><path fill="#000000" d="m629.83795 223.52893l0 -9.671875l1.46875 0l0 1.46875q0.5625 -1.03125 1.03125 -1.359375q0.484375 -0.328125 1.0625 -0.328125q0.828125 0 1.6875 0.53125l-0.5625 1.515625q-0.609375 -0.359375 -1.203125 -0.359375q-0.546875 0 -0.96875 0.328125q-0.421875 0.328125 -0.609375 0.890625q-0.28125 0.875 -0.28125 1.921875l0 5.0625l-1.625 0zm6.2282715 0l0 -9.671875l1.46875 0l0 1.375q1.0625 -1.59375 3.078125 -1.59375q0.875 0 1.609375 0.3125q0.734375 0.3125 1.09375 0.828125q0.375 0.5 0.515625 1.203125q0.09375 0.453125 0.09375 1.59375l0 5.953125l-1.640625 0l0 -5.890625q0 -1.0 -0.203125 -1.484375q-0.1875 -0.5 -0.671875 -0.796875q-0.484375 -0.296875 -1.140625 -0.296875q-1.046875 0 -1.8125 0.671875q-0.75 0.65625 -0.75 2.515625l0 5.28125l-1.640625 0z" fill-rule="nonzero"/><path fill="#000000" fill-opacity="0.0" d="m575.35693 143.14436l48.944885 -0.09449768" fill-rule="evenodd"/><path stroke="#000000" stroke-width="1.0" stroke-linejoin="round" stroke-linecap="butt" d="m575.35693 143.14436l48.944885 -0.09449768" fill-rule="evenodd"/><path fill="#000000" fill-opacity="0.0" d="m648.7113 143.04987l38.141724 0.09449768" fill-rule="evenodd"/><path stroke="#000000" stroke-width="1.0" stroke-linejoin="round" stroke-linecap="butt" d="m648.7113 143.04987l32.141724 0.07962036" fill-rule="evenodd"/><path fill="#000000" stroke="#000000" stroke-width="1.0" stroke-linecap="butt" d="m680.84894 144.78122l4.5421753 -1.6404877l-4.5339966 -1.6629639z" fill-rule="evenodd"/><path fill="#000000" fill-opacity="0.0" d="m624.7087 186.75066l-49.35437 -0.06298828" fill-rule="evenodd"/><path stroke="#000000" stroke-width="1.0" stroke-linejoin="round" stroke-linecap="butt" d="m624.7087 186.75066l-43.35437 -0.055343628" fill-rule="evenodd"/><path fill="#000000" stroke="#000000" stroke-width="1.0" stroke-linecap="butt" d="m581.35645 185.0436l-4.540222 1.645935l4.5360107 1.6575165z" fill-rule="evenodd"/><path fill="#000000" fill-opacity="0.0" d="m686.8504 186.97113l-37.7323 -0.22047424" fill-rule="evenodd"/><path stroke="#000000" stroke-width="1.0" stroke-linejoin="round" stroke-linecap="butt" d="m686.8504 186.97113l-37.7323 -0.22047424" fill-rule="evenodd"/><path fill="#d9d9d9" d="m686.6693 315.83224l0 0c0 -6.5347595 5.2974854 -11.832245 11.832214 -11.832245l82.82367 0c3.1381226 0 6.147705 1.2466125 8.366699 3.4655762c2.2189941 2.2189941 3.4655762 5.2285767 3.4655762 8.366669l0 47.327637c0 6.5347595 -5.2974854 11.832245 -11.832275 11.832245l-82.82367 0c-6.534729 0 -11.832214 -5.2974854 -11.832214 -11.832245z" fill-rule="evenodd"/><path stroke="#000000" stroke-width="1.0" stroke-linejoin="round" stroke-linecap="butt" d="m686.6693 315.83224l0 0c0 -6.5347595 5.2974854 -11.832245 11.832214 -11.832245l82.82367 0c3.1381226 0 6.147705 1.2466125 8.366699 3.4655762c2.2189941 2.2189941 3.4655762 5.2285767 3.4655762 8.366669l0 47.327637c0 6.5347595 -5.2974854 11.832245 -11.832275 11.832245l-82.82367 0c-6.534729 0 -11.832214 -5.2974854 -11.832214 -11.832245z" fill-rule="evenodd"/><path fill="#000000" d="m712.1929 342.8692l1.609375 0.21875q-0.265625 1.65625 -1.359375 2.609375q-1.078125 0.9375 -2.671875 0.9375q-1.984375 0 -3.1875 -1.296875q-1.203125 -1.296875 -1.203125 -3.71875q0 -1.578125 0.515625 -2.75q0.515625 -1.171875 1.578125 -1.75q1.0625 -0.59375 2.3125 -0.59375q1.578125 0 2.578125 0.796875q1.0 0.796875 1.28125 2.265625l-1.59375 0.234375q-0.234375 -0.96875 -0.8125 -1.453125q-0.578125 -0.5 -1.390625 -0.5q-1.234375 0 -2.015625 0.890625q-0.78125 0.890625 -0.78125 2.8125q0 1.953125 0.75 2.84375q0.75 0.875 1.953125 0.875q0.96875 0 1.609375 -0.59375q0.65625 -0.59375 0.828125 -1.828125zm2.40625 -1.296875q0 -2.6875 1.484375 -3.96875q1.25 -1.078125 3.046875 -1.078125q2.0 0 3.265625 1.3125q1.265625 1.296875 1.265625 3.609375q0 1.859375 -0.5625 2.9375q-0.5625 1.0625 -1.640625 1.65625q-1.0625 0.59375 -2.328125 0.59375q-2.03125 0 -3.28125 -1.296875q-1.25 -1.3125 -1.25 -3.765625zm1.6875 0q0 1.859375 0.796875 2.796875q0.8125 0.921875 2.046875 0.921875q1.21875 0 2.03125 -0.921875q0.8125 -0.9375 0.8125 -2.84375q0 -1.796875 -0.8125 -2.71875q-0.8125 -0.921875 -2.03125 -0.921875q-1.234375 0 -2.046875 0.921875q-0.796875 0.90625 -0.796875 2.765625zm9.297546 4.84375l0 -9.671875l1.46875 0l0 1.375q1.0625 -1.59375 3.078125 -1.59375q0.875 0 1.609375 0.3125q0.734375 0.3125 1.09375 0.828125q0.375 0.5 0.515625 1.203125q0.09375 0.453125 0.09375 1.59375l0 5.953125l-1.640625 0l0 -5.890625q0 -1.0 -0.203125 -1.484375q-0.1875 -0.5 -0.671875 -0.796875q-0.484375 -0.296875 -1.140625 -0.296875q-1.046875 0 -1.8125 0.671875q-0.75 0.65625 -0.75 2.515625l0 5.28125l-1.640625 0zm13.953857 -1.46875l0.234375 1.453125q-0.6875 0.140625 -1.234375 0.140625q-0.890625 0 -1.390625 -0.28125q-0.484375 -0.28125 -0.6875 -0.734375q-0.203125 -0.46875 -0.203125 -1.9375l0 -5.578125l-1.203125 0l0 -1.265625l1.203125 0l0 -2.390625l1.625 -0.984375l0 3.375l1.65625 0l0 1.265625l-1.65625 0l0 5.671875q0 0.6875 0.078125 0.890625q0.09375 0.203125 0.28125 0.328125q0.203125 0.109375 0.578125 0.109375q0.265625 0 0.71875 -0.0625zm1.6051636 -10.0l0 -1.890625l1.640625 0l0 1.890625l-1.640625 0zm0 11.46875l0 -9.671875l1.640625 0l0 9.671875l-1.640625 0zm4.1448364 0l0 -9.671875l1.46875 0l0 1.375q1.0625 -1.59375 3.078125 -1.59375q0.875 0 1.609375 0.3125q0.734375 0.3125 1.09375 0.828125q0.375 0.5 0.515625 1.203125q0.09375 0.453125 0.09375 1.59375l0 5.953125l-1.640625 0l0 -5.890625q0 -1.0 -0.203125 -1.484375q-0.1875 -0.5 -0.671875 -0.796875q-0.484375 -0.296875 -1.140625 -0.296875q-1.046875 0 -1.8125 0.671875q-0.75 0.65625 -0.75 2.515625l0 5.28125l-1.640625 0zm16.703857 0l0 -1.421875q-1.125 1.640625 -3.0625 1.640625q-0.859375 0 -1.609375 -0.328125q-0.734375 -0.328125 -1.09375 -0.828125q-0.359375 -0.5 -0.5 -1.21875q-0.109375 -0.46875 -0.109375 -1.53125l0 -5.984375l1.640625 0l0 5.359375q0 1.28125 0.109375 1.734375q0.15625 0.640625 0.65625 1.015625q0.5 0.375 1.234375 0.375q0.734375 0 1.375 -0.375q0.65625 -0.390625 0.921875 -1.03125q0.265625 -0.65625 0.265625 -1.890625l0 -5.1875l1.640625 0l0 9.671875l-1.46875 0zm10.672546 -3.109375l1.6875 0.203125q-0.40625 1.484375 -1.484375 2.3125q-1.078125 0.8125 -2.765625 0.8125q-2.125 0 -3.375 -1.296875q-1.234375 -1.3125 -1.234375 -3.671875q0 -2.453125 1.25 -3.796875q1.265625 -1.34375 3.265625 -1.34375q1.9375 0 3.15625 1.328125q1.234375 1.3125 1.234375 3.703125q0 0.15625 0 0.4375l-7.21875 0q0.09375 1.59375 0.90625 2.453125q0.8125 0.84375 2.015625 0.84375q0.90625 0 1.546875 -0.46875q0.640625 -0.484375 1.015625 -1.515625zm-5.390625 -2.65625l5.40625 0q-0.109375 -1.21875 -0.625 -1.828125q-0.78125 -0.953125 -2.03125 -0.953125q-1.125 0 -1.90625 0.765625q-0.765625 0.75 -0.84375 2.015625z" fill-rule="nonzero"/><path fill="#000000" fill-opacity="0.0" d="m756.79266 245.75853l0 0c0 -6.627411 5.4642334 -12.0 12.204712 -12.0l0 0c3.2368774 0 6.3411865 1.2642822 8.630066 3.5147247c2.2888184 2.2504272 3.574646 5.3026733 3.574646 8.485275l0 0c0 6.627411 -5.4642334 12.000015 -12.204712 12.000015l0 0c-6.7404785 0 -12.204712 -5.3726044 -12.204712 -12.000015z" fill-rule="evenodd"/><path fill="#000000" fill-opacity="0.0" d="m760.3673 237.27325l17.260132 16.97055m0 -16.97055l-17.260132 16.97055" fill-rule="evenodd"/><path fill="#000000" fill-opacity="0.0" d="m756.79266 245.75853l0 0c0 -6.627411 5.4642334 -12.0 12.204712 -12.0l0 0c3.2368774 0 6.3411865 1.2642822 8.630066 3.5147247c2.2888184 2.2504272 3.574646 5.3026733 3.574646 8.485275l0 0c0 6.627411 -5.4642334 12.000015 -12.204712 12.000015l0 0c-6.7404785 0 -12.204712 -5.3726044 -12.204712 -12.000015z" fill-rule="evenodd"/><path stroke="#000000" stroke-width="1.0" stroke-linejoin="round" stroke-linecap="butt" d="m760.3673 237.27325l17.260132 16.97055m0 -16.97055l-17.260132 16.97055" fill-rule="evenodd"/><path stroke="#000000" stroke-width="1.0" stroke-linejoin="round" stroke-linecap="butt" d="m756.79266 245.75853l0 0c0 -6.627411 5.4642334 -12.0 12.204712 -12.0l0 0c3.2368774 0 6.3411865 1.2642822 8.630066 3.5147247c2.2888184 2.2504272 3.574646 5.3026733 3.574646 8.485275l0 0c0 6.627411 -5.4642334 12.000015 -12.204712 12.000015l0 0c-6.7404785 0 -12.204712 -5.3726044 -12.204712 -12.000015z" fill-rule="evenodd"/><path fill="#000000" fill-opacity="0.0" d="m786.04724 227.90027l51.02362 0l0 35.716522l-51.02362 0z" fill-rule="evenodd"/><path fill="#000000" d="m802.8091 249.7879l1.625 -0.25q0.125 0.96875 0.75 1.5q0.625 0.515625 1.75 0.515625q1.125 0 1.671875 -0.453125q0.546875 -0.46875 0.546875 -1.09375q0 -0.546875 -0.484375 -0.875q-0.328125 -0.21875 -1.671875 -0.546875q-1.8125 -0.46875 -2.515625 -0.796875q-0.6875 -0.328125 -1.046875 -0.90625q-0.359375 -0.59375 -0.359375 -1.3125q0 -0.640625 0.296875 -1.1875q0.296875 -0.5625 0.8125 -0.921875q0.375 -0.28125 1.03125 -0.46875q0.671875 -0.203125 1.421875 -0.203125q1.140625 0 2.0 0.328125q0.859375 0.328125 1.265625 0.890625q0.421875 0.5625 0.578125 1.5l-1.609375 0.21875q-0.109375 -0.75 -0.640625 -1.171875q-0.515625 -0.421875 -1.46875 -0.421875q-1.140625 0 -1.625 0.375q-0.46875 0.375 -0.46875 0.875q0 0.3125 0.1875 0.578125q0.203125 0.265625 0.640625 0.4375q0.234375 0.09375 1.4375 0.421875q1.75 0.453125 2.4375 0.75q0.6875 0.296875 1.078125 0.859375q0.390625 0.5625 0.390625 1.40625q0 0.828125 -0.484375 1.546875q-0.46875 0.71875 -1.375 1.125q-0.90625 0.390625 -2.046875 0.390625q-1.875 0 -2.875 -0.78125q-0.984375 -0.78125 -1.25 -2.328125zm16.296875 -0.65625l1.609375 0.21875q-0.265625 1.65625 -1.359375 2.609375q-1.078125 0.9375 -2.671875 0.9375q-1.984375 0 -3.1875 -1.296875q-1.203125 -1.296875 -1.203125 -3.71875q0 -1.578125 0.515625 -2.75q0.515625 -1.171875 1.578125 -1.75q1.0625 -0.59375 2.3125 -0.59375q1.578125 0 2.578125 0.796875q1.0 0.796875 1.28125 2.265625l-1.59375 0.234375q-0.234375 -0.96875 -0.8125 -1.453125q-0.578125 -0.5 -1.390625 -0.5q-1.234375 0 -2.015625 0.890625q-0.78125 0.890625 -0.78125 2.8125q0 1.953125 0.75 2.84375q0.75 0.875 1.953125 0.875q0.96875 0 1.609375 -0.59375q0.65625 -0.59375 0.828125 -1.828125z" fill-rule="nonzero"/><path fill="#000000" fill-opacity="0.0" d="m704.0315 245.75853l0 0c0 -6.627411 5.4642334 -12.0 12.204712 -12.0l0 0c3.2369385 0 6.3412476 1.2642822 8.630066 3.5147247c2.2888184 2.2504272 3.574646 5.3026733 3.574646 8.485275l0 0c0 6.627411 -5.4642334 12.000015 -12.204712 12.000015l0 0c-6.7404785 0 -12.204712 -5.3726044 -12.204712 -12.000015z" fill-rule="evenodd"/><path fill="#000000" fill-opacity="0.0" d="m707.6062 237.27325l17.26007 16.97055m0 -16.97055l-17.26007 16.97055" fill-rule="evenodd"/><path fill="#000000" fill-opacity="0.0" d="m704.0315 245.75853l0 0c0 -6.627411 5.4642334 -12.0 12.204712 -12.0l0 0c3.2369385 0 6.3412476 1.2642822 8.630066 3.5147247c2.2888184 2.2504272 3.574646 5.3026733 3.574646 8.485275l0 0c0 6.627411 -5.4642334 12.000015 -12.204712 12.000015l0 0c-6.7404785 0 -12.204712 -5.3726044 -12.204712 -12.000015z" fill-rule="evenodd"/><path stroke="#000000" stroke-width="1.0" stroke-linejoin="round" stroke-linecap="butt" d="m707.6062 237.27325l17.26007 16.97055m0 -16.97055l-17.26007 16.97055" fill-rule="evenodd"/><path stroke="#000000" stroke-width="1.0" stroke-linejoin="round" stroke-linecap="butt" d="m704.0315 245.75853l0 0c0 -6.627411 5.4642334 -12.0 12.204712 -12.0l0 0c3.2369385 0 6.3412476 1.2642822 8.630066 3.5147247c2.2888184 2.2504272 3.574646 5.3026733 3.574646 8.485275l0 0c0 6.627411 -5.4642334 12.000015 -12.204712 12.000015l0 0c-6.7404785 0 -12.204712 -5.3726044 -12.204712 -12.000015z" fill-rule="evenodd"/><path fill="#000000" fill-opacity="0.0" d="m649.1181 227.6273l51.02362 0l0 35.716537l-51.02362 0z" fill-rule="evenodd"/><path fill="#000000" d="m668.07825 252.40556l0 -9.671875l1.46875 0l0 1.46875q0.5625 -1.03125 1.03125 -1.359375q0.484375 -0.328125 1.0625 -0.328125q0.828125 0 1.6875 0.53125l-0.5625 1.515625q-0.609375 -0.359375 -1.203125 -0.359375q-0.546875 0 -0.96875 0.328125q-0.421875 0.328125 -0.609375 0.890625q-0.28125 0.875 -0.28125 1.921875l0 5.0625l-1.625 0zm12.5408325 -3.546875l1.609375 0.21875q-0.265625 1.65625 -1.359375 2.609375q-1.078125 0.9375 -2.671875 0.9375q-1.984375 0 -3.1875 -1.296875q-1.203125 -1.296875 -1.203125 -3.71875q0 -1.578125 0.515625 -2.75q0.515625 -1.171875 1.578125 -1.75q1.0625 -0.59375 2.3125 -0.59375q1.578125 0 2.578125 0.796875q1.0 0.796875 1.28125 2.265625l-1.59375 0.234375q-0.234375 -0.96875 -0.8125 -1.453125q-0.578125 -0.5 -1.390625 -0.5q-1.234375 0 -2.015625 0.890625q-0.78125 0.890625 -0.78125 2.8125q0 1.953125 0.75 2.84375q0.75 0.875 1.953125 0.875q0.96875 0 1.609375 -0.59375q0.65625 -0.59375 0.828125 -1.828125z" fill-rule="nonzero"/><path fill="#000000" fill-opacity="0.0" d="m770.03674 305.66403l-1.0393677 -47.905487" fill-rule="evenodd"/><path stroke="#000000" stroke-width="1.0" stroke-linejoin="round" stroke-linecap="butt" d="m770.03674 305.66403l-1.0393677 -47.905487" fill-rule="evenodd"/><path fill="#000000" fill-opacity="0.0" d="m768.9974 233.75853l-0.06298828 -34.582672" fill-rule="evenodd"/><path stroke="#000000" stroke-width="1.0" stroke-linejoin="round" stroke-linecap="butt" d="m768.9974 233.75853l-0.05206299 -28.582672" fill-rule="evenodd"/><path fill="#000000" stroke="#000000" stroke-width="1.0" stroke-linecap="butt" d="m770.59705 205.17284l-1.6599731 -4.53508l-1.6434937 4.541092z" fill-rule="evenodd"/><path fill="#000000" fill-opacity="0.0" d="m716.2362 257.75854l0.56695557 46.80313" fill-rule="evenodd"/><path stroke="#000000" stroke-width="1.0" stroke-linejoin="round" stroke-linecap="butt" d="m716.2362 257.75854l0.4942627 40.80356" fill-rule="evenodd"/><path fill="#000000" stroke="#000000" stroke-width="1.0" stroke-linecap="butt" d="m715.07886 298.58212l1.706604 4.517761l1.5966187 -4.55777z" fill-rule="evenodd"/><path fill="#000000" fill-opacity="0.0" d="m714.56696 198.04199l1.6692505 35.716537" fill-rule="evenodd"/><path stroke="#000000" stroke-width="1.0" stroke-linejoin="round" stroke-linecap="butt" d="m714.56696 198.04199l1.6692505 35.716537" fill-rule="evenodd"/><path fill="#000000" fill-opacity="0.0" d="m757.3228 427.6483l0 0c0 -6.627411 5.4642334 -12.0 12.204773 -12.0l0 0c3.2368774 0 6.3411865 1.2642822 8.630005 3.51474c2.2888184 2.2504272 3.574707 5.3026733 3.574707 8.48526l0 0c0 6.627411 -5.4642334 12.0 -12.204712 12.0l0 0c-6.7405396 0 -12.204773 -5.372589 -12.204773 -12.0z" fill-rule="evenodd"/><path fill="#000000" fill-opacity="0.0" d="m760.8975 419.16302l17.26007 16.97055m0 -16.97055l-17.26007 16.97055" fill-rule="evenodd"/><path fill="#000000" fill-opacity="0.0" d="m757.3228 427.6483l0 0c0 -6.627411 5.4642334 -12.0 12.204773 -12.0l0 0c3.2368774 0 6.3411865 1.2642822 8.630005 3.51474c2.2888184 2.2504272 3.574707 5.3026733 3.574707 8.48526l0 0c0 6.627411 -5.4642334 12.0 -12.204712 12.0l0 0c-6.7405396 0 -12.204773 -5.372589 -12.204773 -12.0z" fill-rule="evenodd"/><path stroke="#000000" stroke-width="1.0" stroke-linejoin="round" stroke-linecap="butt" d="m760.8975 419.16302l17.26007 16.97055m0 -16.97055l-17.26007 16.97055" fill-rule="evenodd"/><path stroke="#000000" stroke-width="1.0" stroke-linejoin="round" stroke-linecap="butt" d="m757.3228 427.6483l0 0c0 -6.627411 5.4642334 -12.0 12.204773 -12.0l0 0c3.2368774 0 6.3411865 1.2642822 8.630005 3.51474c2.2888184 2.2504272 3.574707 5.3026733 3.574707 8.48526l0 0c0 6.627411 -5.4642334 12.0 -12.204712 12.0l0 0c-6.7405396 0 -12.204773 -5.372589 -12.204773 -12.0z" fill-rule="evenodd"/><path fill="#000000" fill-opacity="0.0" d="m692.3937 427.6483l0 0c0 -6.627411 5.4642944 -12.0 12.204773 -12.0l0 0c3.2368774 0 6.3411865 1.2642822 8.630005 3.51474c2.2888184 2.2504272 3.574707 5.3026733 3.574707 8.48526l0 0c0 6.627411 -5.4642334 12.0 -12.204712 12.0l0 0c-6.7404785 0 -12.204773 -5.372589 -12.204773 -12.0z" fill-rule="evenodd"/><path fill="#000000" fill-opacity="0.0" d="m695.9684 419.16302l17.26007 16.97055m0 -16.97055l-17.26007 16.97055" fill-rule="evenodd"/><path fill="#000000" fill-opacity="0.0" d="m692.3937 427.6483l0 0c0 -6.627411 5.4642944 -12.0 12.204773 -12.0l0 0c3.2368774 0 6.3411865 1.2642822 8.630005 3.51474c2.2888184 2.2504272 3.574707 5.3026733 3.574707 8.48526l0 0c0 6.627411 -5.4642334 12.0 -12.204712 12.0l0 0c-6.7404785 0 -12.204773 -5.372589 -12.204773 -12.0z" fill-rule="evenodd"/><path stroke="#000000" stroke-width="1.0" stroke-linejoin="round" stroke-linecap="butt" d="m695.9684 419.16302l17.26007 16.97055m0 -16.97055l-17.26007 16.97055" fill-rule="evenodd"/><path stroke="#000000" stroke-width="1.0" stroke-linejoin="round" stroke-linecap="butt" d="m692.3937 427.6483l0 0c0 -6.627411 5.4642944 -12.0 12.204773 -12.0l0 0c3.2368774 0 6.3411865 1.2642822 8.630005 3.51474c2.2888184 2.2504272 3.574707 5.3026733 3.574707 8.48526l0 0c0 6.627411 -5.4642334 12.0 -12.204712 12.0l0 0c-6.7404785 0 -12.204773 -5.372589 -12.204773 -12.0z" fill-rule="evenodd"/><path fill="#000000" fill-opacity="0.0" d="m675.1496 552.021l29.448853 -60.0l29.448792 60.0z" fill-rule="evenodd"/><path stroke="#000000" stroke-width="1.0" stroke-linejoin="round" stroke-linecap="butt" d="m675.1496 552.021l29.448853 -60.0l29.448792 60.0z" fill-rule="evenodd"/><path fill="#000000" fill-opacity="0.0" d="m740.07874 552.021l29.448853 -60.0l29.448792 60.0z" fill-rule="evenodd"/><path stroke="#000000" stroke-width="1.0" stroke-linejoin="round" stroke-linecap="butt" d="m740.07874 552.021l29.448853 -60.0l29.448792 60.0z" fill-rule="evenodd"/><path fill="#000000" fill-opacity="0.0" d="m704.59845 492.021l0 -52.37796" fill-rule="evenodd"/><path stroke="#000000" stroke-width="1.0" stroke-linejoin="round" stroke-linecap="butt" d="m704.59845 492.021l0 -52.37796" fill-rule="evenodd"/><path fill="#000000" fill-opacity="0.0" d="m704.59845 415.6483l1.102356 -39.55905" fill-rule="evenodd"/><path stroke="#000000" stroke-width="1.0" stroke-linejoin="round" stroke-linecap="butt" d="m704.59845 415.6483l0.93518066 -33.56137" fill-rule="evenodd"/><path fill="#000000" stroke="#000000" stroke-width="1.0" stroke-linecap="butt" d="m707.18475 382.13293l-1.5246582 -4.582367l-1.7775269 4.490326z" fill-rule="evenodd"/><path fill="#000000" fill-opacity="0.0" d="m769.5276 492.021l0 -52.37796" fill-rule="evenodd"/><path stroke="#000000" stroke-width="1.0" stroke-linejoin="round" stroke-linecap="butt" d="m769.5276 492.021l0 -52.37796" fill-rule="evenodd"/><path fill="#000000" fill-opacity="0.0" d="m769.5276 415.6483l0.50390625 -41.795258" fill-rule="evenodd"/><path stroke="#000000" stroke-width="1.0" stroke-linejoin="round" stroke-linecap="butt" d="m769.5276 415.6483l0.4315796 -35.795715" fill-rule="evenodd"/><path fill="#000000" stroke="#000000" stroke-width="1.0" stroke-linecap="butt" d="m771.6108 379.8725l-1.5969238 -4.557678l-1.7062988 4.517853z" fill-rule="evenodd"/><path fill="#000000" fill-opacity="0.0" d="m560.0 498.61942l106.48816 0l0 46.80313l-106.48816 0z" fill-rule="evenodd"/><path fill="#000000" d="m576.5469 524.3519q-0.921875 0.765625 -1.765625 1.09375q-0.828125 0.3125 -1.796875 0.3125q-1.59375 0 -2.453125 -0.78125q-0.859375 -0.78125 -0.859375 -1.984375q0 -0.71875 0.328125 -1.296875q0.328125 -0.59375 0.84375 -0.9375q0.53125 -0.359375 1.1875 -0.546875q0.46875 -0.125 1.453125 -0.25q1.984375 -0.234375 2.921875 -0.5625q0.015625 -0.34375 0.015625 -0.421875q0 -1.0 -0.46875 -1.421875q-0.625 -0.546875 -1.875 -0.546875q-1.15625 0 -1.703125 0.40625q-0.546875 0.40625 -0.8125 1.421875l-1.609375 -0.21875q0.21875 -1.015625 0.71875 -1.640625q0.5 -0.640625 1.453125 -0.984375q0.953125 -0.34375 2.1875 -0.34375q1.25 0 2.015625 0.296875q0.78125 0.28125 1.140625 0.734375q0.375 0.4375 0.515625 1.109375q0.078125 0.421875 0.078125 1.515625l0 2.1875q0 2.28125 0.109375 2.890625q0.109375 0.59375 0.40625 1.15625l-1.703125 0q-0.265625 -0.515625 -0.328125 -1.1875zm-0.140625 -3.671875q-0.890625 0.375 -2.671875 0.625q-1.015625 0.140625 -1.4375 0.328125q-0.421875 0.1875 -0.65625 0.53125q-0.21875 0.34375 -0.21875 0.78125q0 0.65625 0.5 1.09375q0.5 0.4375 1.453125 0.4375q0.9375 0 1.671875 -0.40625q0.75 -0.421875 1.09375 -1.140625q0.265625 -0.5625 0.265625 -1.640625l0 -0.609375zm4.5944824 4.859375l0 -8.40625l-1.453125 0l0 -1.265625l1.453125 0l0 -1.03125q0 -0.96875 0.171875 -1.453125q0.234375 -0.640625 0.828125 -1.03125q0.59375 -0.390625 1.671875 -0.390625q0.6875 0 1.53125 0.15625l-0.25 1.4375q-0.5 -0.09375 -0.953125 -0.09375q-0.75 0 -1.0625 0.328125q-0.3125 0.3125 -0.3125 1.1875l0 0.890625l1.890625 0l0 1.265625l-1.890625 0l0 8.40625l-1.625 0zm8.370789 -1.46875l0.234375 1.453125q-0.6875 0.140625 -1.234375 0.140625q-0.890625 0 -1.390625 -0.28125q-0.484375 -0.28125 -0.6875 -0.734375q-0.203125 -0.46875 -0.203125 -1.9375l0 -5.578125l-1.203125 0l0 -1.265625l1.203125 0l0 -2.390625l1.625 -0.984375l0 3.375l1.65625 0l0 1.265625l-1.65625 0l0 5.671875q0 0.6875 0.078125 0.890625q0.09375 0.203125 0.28125 0.328125q0.203125 0.109375 0.578125 0.109375q0.265625 0 0.71875 -0.0625zm8.230164 -1.640625l1.6875 0.203125q-0.40625 1.484375 -1.484375 2.3125q-1.078125 0.8125 -2.765625 0.8125q-2.125 0 -3.375 -1.296875q-1.234375 -1.3125 -1.234375 -3.671875q0 -2.453125 1.25 -3.796875q1.265625 -1.34375 3.265625 -1.34375q1.9375 0 3.15625 1.328125q1.234375 1.3125 1.234375 3.703125q0 0.15625 0 0.4375l-7.21875 0q0.09375 1.59375 0.90625 2.453125q0.8125 0.84375 2.015625 0.84375q0.90625 0 1.546875 -0.46875q0.640625 -0.484375 1.015625 -1.515625zm-5.390625 -2.65625l5.40625 0q-0.109375 -1.21875 -0.625 -1.828125q-0.78125 -0.953125 -2.03125 -0.953125q-1.125 0 -1.90625 0.765625q-0.765625 0.75 -0.84375 2.015625zm9.125732 5.765625l0 -9.671875l1.46875 0l0 1.46875q0.5625 -1.03125 1.03125 -1.359375q0.484375 -0.328125 1.0625 -0.328125q0.828125 0 1.6875 0.53125l-0.5625 1.515625q-0.609375 -0.359375 -1.203125 -0.359375q-0.546875 0 -0.96875 0.328125q-0.421875 0.328125 -0.609375 0.890625q-0.28125 0.875 -0.28125 1.921875l0 5.0625l-1.625 0zm5.5876465 -4.015625l0 -1.640625l5.03125 0l0 1.640625l-5.03125 0zm13.4783325 0.90625l1.6875 0.203125q-0.40625 1.484375 -1.484375 2.3125q-1.078125 0.8125 -2.765625 0.8125q-2.125 0 -3.375 -1.296875q-1.234375 -1.3125 -1.234375 -3.671875q0 -2.453125 1.25 -3.796875q1.265625 -1.34375 3.265625 -1.34375q1.9375 0 3.15625 1.328125q1.234375 1.3125 1.234375 3.703125q0 0.15625 0 0.4375l-7.21875 0q0.09375 1.59375 0.90625 2.453125q0.8125 0.84375 2.015625 0.84375q0.90625 0 1.546875 -0.46875q0.640625 -0.484375 1.015625 -1.515625zm-5.390625 -2.65625l5.40625 0q-0.109375 -1.21875 -0.625 -1.828125q-0.78125 -0.953125 -2.03125 -0.953125q-1.125 0 -1.90625 0.765625q-0.765625 0.75 -0.84375 2.015625zm8.047607 5.765625l3.53125 -5.03125l-3.265625 -4.640625l2.046875 0l1.484375 2.265625q0.421875 0.640625 0.671875 1.078125q0.40625 -0.59375 0.734375 -1.0625l1.640625 -2.28125l1.953125 0l-3.34375 4.546875l3.59375 5.125l-2.015625 0l-1.984375 -3.0l-0.515625 -0.8125l-2.546875 3.8125l-1.984375 0zm10.421875 3.703125l0 -13.375l1.484375 0l0 1.25q0.53125 -0.734375 1.1875 -1.09375q0.671875 -0.375 1.625 -0.375q1.234375 0 2.171875 0.640625q0.953125 0.625 1.4375 1.796875q0.484375 1.15625 0.484375 2.546875q0 1.484375 -0.53125 2.671875q-0.53125 1.1875 -1.546875 1.828125q-1.015625 0.625 -2.140625 0.625q-0.8125 0 -1.46875 -0.34375q-0.65625 -0.34375 -1.0625 -0.875l0 4.703125l-1.640625 0zm1.484375 -8.484375q0 1.859375 0.75 2.765625q0.765625 0.890625 1.828125 0.890625q1.09375 0 1.875 -0.921875q0.78125 -0.9375 0.78125 -2.875q0 -1.84375 -0.765625 -2.765625q-0.75 -0.921875 -1.8125 -0.921875q-1.046875 0 -1.859375 0.984375q-0.796875 0.96875 -0.796875 2.84375zm12.469421 3.3125l0.234375 1.453125q-0.6875 0.140625 -1.234375 0.140625q-0.890625 0 -1.390625 -0.28125q-0.484375 -0.28125 -0.6875 -0.734375q-0.203125 -0.46875 -0.203125 -1.9375l0 -5.578125l-1.203125 0l0 -1.265625l1.203125 0l0 -2.390625l1.625 -0.984375l0 3.375l1.65625 0l0 1.265625l-1.65625 0l0 5.671875q0 0.6875 0.078125 0.890625q0.09375 0.203125 0.28125 0.328125q0.203125 0.109375 0.578125 0.109375q0.265625 0 0.71875 -0.0625z" fill-rule="nonzero"/><path fill="#000000" fill-opacity="0.0" d="m822.2861 498.61942l106.48822 0l0 46.80313l-106.48822 0z" fill-rule="evenodd"/><path fill="#000000" d="m839.14545 522.43005l1.6875 0.203125q-0.40625 1.484375 -1.484375 2.3125q-1.078125 0.8125 -2.765625 0.8125q-2.125 0 -3.375 -1.296875q-1.234375 -1.3125 -1.234375 -3.671875q0 -2.453125 1.25 -3.796875q1.265625 -1.34375 3.265625 -1.34375q1.9375 0 3.15625 1.328125q1.234375 1.3125 1.234375 3.703125q0 0.15625 0 0.4375l-7.21875 0q0.09375 1.59375 0.90625 2.453125q0.8125 0.84375 2.015625 0.84375q0.90625 0 1.546875 -0.46875q0.640625 -0.484375 1.015625 -1.515625zm-5.390625 -2.65625l5.40625 0q-0.109375 -1.21875 -0.625 -1.828125q-0.78125 -0.953125 -2.03125 -0.953125q-1.125 0 -1.90625 0.765625q-0.765625 0.75 -0.84375 2.015625zm8.047607 5.765625l3.53125 -5.03125l-3.265625 -4.640625l2.046875 0l1.484375 2.265625q0.421875 0.640625 0.671875 1.078125q0.40625 -0.59375 0.734375 -1.0625l1.640625 -2.28125l1.953125 0l-3.34375 4.546875l3.59375 5.125l-2.015625 0l-1.984375 -3.0l-0.515625 -0.8125l-2.546875 3.8125l-1.984375 0zm10.421875 3.703125l0 -13.375l1.484375 0l0 1.25q0.53125 -0.734375 1.1875 -1.09375q0.671875 -0.375 1.625 -0.375q1.234375 0 2.171875 0.640625q0.953125 0.625 1.4375 1.796875q0.484375 1.15625 0.484375 2.546875q0 1.484375 -0.53125 2.671875q-0.53125 1.1875 -1.546875 1.828125q-1.015625 0.625 -2.140625 0.625q-0.8125 0 -1.46875 -0.34375q-0.65625 -0.34375 -1.0625 -0.875l0 4.703125l-1.640625 0zm1.484375 -8.484375q0 1.859375 0.75 2.765625q0.765625 0.890625 1.828125 0.890625q1.09375 0 1.875 -0.921875q0.78125 -0.9375 0.78125 -2.875q0 -1.84375 -0.765625 -2.765625q-0.75 -0.921875 -1.8125 -0.921875q-1.046875 0 -1.859375 0.984375q-0.796875 0.96875 -0.796875 2.84375zm12.469482 3.3125l0.234375 1.453125q-0.6875 0.140625 -1.234375 0.140625q-0.890625 0 -1.390625 -0.28125q-0.484375 -0.28125 -0.6875 -0.734375q-0.203125 -0.46875 -0.203125 -1.9375l0 -5.578125l-1.203125 0l0 -1.265625l1.203125 0l0 -2.390625l1.625 -0.984375l0 3.375l1.65625 0l0 1.265625l-1.65625 0l0 5.671875q0 0.6875 0.078125 0.890625q0.09375 0.203125 0.28125 0.328125q0.203125 0.109375 0.578125 0.109375q0.265625 0 0.71875 -0.0625zm0.9645386 -2.546875l0 -1.640625l5.03125 0l0 1.640625l-5.03125 0zm13.1189575 4.015625l0 -1.21875q-0.90625 1.4375 -2.703125 1.4375q-1.15625 0 -2.125 -0.640625q-0.96875 -0.640625 -1.5 -1.78125q-0.53125 -1.140625 -0.53125 -2.625q0 -1.453125 0.484375 -2.625q0.484375 -1.1875 1.4375 -1.8125q0.96875 -0.625 2.171875 -0.625q0.875 0 1.546875 0.375q0.6875 0.359375 1.109375 0.953125l0 -4.796875l1.640625 0l0 13.359375l-1.53125 0zm-5.171875 -4.828125q0 1.859375 0.78125 2.78125q0.78125 0.921875 1.84375 0.921875q1.078125 0 1.828125 -0.875q0.75 -0.890625 0.75 -2.6875q0 -1.984375 -0.765625 -2.90625q-0.765625 -0.9375 -1.890625 -0.9375q-1.078125 0 -1.8125 0.890625q-0.734375 0.890625 -0.734375 2.8125zm8.672546 -0.015625q0 -2.6875 1.484375 -3.96875q1.25 -1.078125 3.046875 -1.078125q2.0 0 3.265625 1.3125q1.265625 1.296875 1.265625 3.609375q0 1.859375 -0.5625 2.9375q-0.5625 1.0625 -1.640625 1.65625q-1.0625 0.59375 -2.328125 0.59375q-2.03125 0 -3.28125 -1.296875q-1.25 -1.3125 -1.25 -3.765625zm1.6875 0q0 1.859375 0.796875 2.796875q0.8125 0.921875 2.046875 0.921875q1.21875 0 2.03125 -0.921875q0.8125 -0.9375 0.8125 -2.84375q0 -1.796875 -0.8125 -2.71875q-0.8125 -0.921875 -2.03125 -0.921875q-1.234375 0 -2.046875 0.921875q-0.796875 0.90625 -0.796875 2.765625zm9.297607 4.84375l0 -9.671875l1.46875 0l0 1.375q1.0625 -1.59375 3.078125 -1.59375q0.875 0 1.609375 0.3125q0.734375 0.3125 1.09375 0.828125q0.375 0.5 0.515625 1.203125q0.09375 0.453125 0.09375 1.59375l0 5.953125l-1.640625 0l0 -5.890625q0 -1.0 -0.203125 -1.484375q-0.1875 -0.5 -0.671875 -0.796875q-0.484375 -0.296875 -1.140625 -0.296875q-1.046875 0 -1.8125 0.671875q-0.75 0.65625 -0.75 2.515625l0 5.28125l-1.640625 0zm17.000732 -3.109375l1.6875 0.203125q-0.40625 1.484375 -1.484375 2.3125q-1.078125 0.8125 -2.765625 0.8125q-2.125 0 -3.375 -1.296875q-1.234375 -1.3125 -1.234375 -3.671875q0 -2.453125 1.25 -3.796875q1.265625 -1.34375 3.265625 -1.34375q1.9375 0 3.15625 1.328125q1.234375 1.3125 1.234375 3.703125q0 0.15625 0 0.4375l-7.21875 0q0.09375 1.59375 0.90625 2.453125q0.8125 0.84375 2.015625 0.84375q0.90625 0 1.546875 -0.46875q0.640625 -0.484375 1.015625 -1.515625zm-5.390625 -2.65625l5.40625 0q-0.109375 -1.21875 -0.625 -1.828125q-0.78125 -0.953125 -2.03125 -0.953125q-1.125 0 -1.90625 0.765625q-0.765625 0.75 -0.84375 2.015625z" fill-rule="nonzero"/><path fill="#000000" fill-opacity="0.0" d="m488.39633 61.805775l0 0c0 -18.516762 15.046051 -33.527557 33.606293 -33.527557l0 0c8.912964 0 17.460815 3.5323582 23.763245 9.819994c6.302429 6.287636 9.843079 14.815502 9.843079 23.707565l0 0c0 18.516758 -15.046082 33.52756 -33.606323 33.52756l0 0c-18.560242 0 -33.606293 -15.010803 -33.606293 -33.52756z" fill-rule="evenodd"/><path stroke="#000000" stroke-width="1.0" stroke-linejoin="round" stroke-linecap="butt" d="m488.39633 61.805775l0 0c0 -18.516762 15.046051 -33.527557 33.606293 -33.527557l0 0c8.912964 0 17.460815 3.5323582 23.763245 9.819994c6.302429 6.287636 9.843079 14.815502 9.843079 23.707565l0 0c0 18.516758 -15.046082 33.52756 -33.606323 33.52756l0 0c-18.560242 0 -33.606293 -15.010803 -33.606293 -33.52756z" fill-rule="evenodd"/><path fill="#000000" d="m526.4145 60.866398l-8.828125 0l0 -1.515625l8.828125 0l0 1.515625zm0 4.062504l-8.828125 0l0 -1.5312538l8.828125 0l0 1.5312538z" fill-rule="nonzero"/><path fill="#000000" fill-opacity="0.0" d="m522.0026 127.049866l0 -15.858261l0.06298828 0l0 -15.858269" fill-rule="evenodd"/><path stroke="#000000" stroke-width="1.0" stroke-linejoin="round" stroke-linecap="butt" d="m522.0026 127.049866l0 -15.858261l0.06298828 0l0 -12.4311905" fill-rule="evenodd"/><path fill="#000000" stroke="#000000" stroke-width="1.0" stroke-linecap="butt" d="m522.0656 98.76042l1.1245728 1.1245804l-1.1245728 -3.0897675l-1.1245728 3.0897675z" fill-rule="evenodd"/><path fill="#000000" fill-opacity="0.0" d="m590.22046 91.80577l29.448853 -59.999996l29.448792 59.999996z" fill-rule="evenodd"/><path stroke="#000000" stroke-width="1.0" stroke-linejoin="round" stroke-linecap="butt" d="m590.22046 91.80577l29.448853 -59.999996l29.448792 59.999996z" fill-rule="evenodd"/><path fill="#000000" d="m615.2627 72.13202q0 -2.359375 0.484375 -3.796875q0.484375 -1.453125 1.4375 -2.234375q0.96875 -0.78125 2.421875 -0.78125q1.078125 0 1.890625 0.4375q0.8125 0.421875 1.328125 1.25q0.53125 0.8125 0.828125 1.984375q0.3125 1.15625 0.3125 3.140625q0 2.359375 -0.484375 3.8125q-0.484375 1.4375 -1.453125 2.234375q-0.953125 0.78125 -2.421875 0.78125q-1.921875 0 -3.03125 -1.390625q-1.3125 -1.671875 -1.3125 -5.4375zm1.671875 0q0 3.296875 0.765625 4.390625q0.78125 1.078125 1.90625 1.078125q1.140625 0 1.90625 -1.09375q0.765625 -1.09375 0.765625 -4.375q0 -3.296875 -0.765625 -4.375q-0.765625 -1.078125 -1.921875 -1.078125q-1.125 0 -1.796875 0.953125q-0.859375 1.21875 -0.859375 4.5z" fill-rule="nonzero"/><path fill="#000000" fill-opacity="0.0" d="m604.9449 61.805775l-32.030273 0l0 0.062992096l-17.292542 0" fill-rule="evenodd"/><path stroke="#000000" stroke-width="1.0" stroke-linejoin="round" stroke-linecap="butt" d="m604.9449 61.805775l-32.030273 0l0 0.062992096l-11.2925415 0" fill-rule="evenodd"/><path fill="#000000" stroke="#000000" stroke-width="1.0" stroke-linecap="butt" d="m561.6221 60.217033l-4.538147 1.6517334l4.538147 1.6517334z" fill-rule="evenodd"/><path fill="#000000" fill-opacity="0.0" d="m177.7769 513.8058l29.448822 -60.0l29.448822 60.0z" fill-rule="evenodd"/><path stroke="#000000" stroke-width="1.0" stroke-linejoin="round" stroke-linecap="butt" d="m177.7769 513.8058l29.448822 -60.0l29.448822 60.0z" fill-rule="evenodd"/><path fill="#000000" d="m208.99098 500.72577l-1.640625 0l0 -10.453125q-0.59375 0.5625 -1.5625 1.140625q-0.953125 0.5625 -1.71875 0.84375l0 -1.59375q1.375 -0.640625 2.40625 -1.5625q1.03125 -0.921875 1.453125 -1.78125l1.0625 0l0 13.40625z" fill-rule="nonzero"/><path fill="#000000" fill-opacity="0.0" d="m192.50131 483.8058l-140.50131 0l0 -381.7574l124.09186 0l0 25.00145" fill-rule="evenodd"/><path stroke="#000000" stroke-width="1.0" stroke-linejoin="round" stroke-linecap="butt" d="m192.50131 483.8058l-140.50131 0l0 -381.7574l124.09186 0l0 19.00145" fill-rule="evenodd"/><path fill="#000000" stroke="#000000" stroke-width="1.0" stroke-linecap="butt" d="m174.44012 121.049866l1.6517334 4.538101l1.6517334 -4.538101z" fill-rule="evenodd"/><path fill="#d9d9d9" d="m295.80316 138.88213l0 0c0 -6.534775 5.2974854 -11.83226 11.832245 -11.83226l82.82367 0c3.1381226 0 6.147705 1.2466125 8.366669 3.4655914c2.2189941 2.218979 3.4656067 5.2285614 3.4656067 8.366669l0 47.327606c0 6.534775 -5.2974854 11.83226 -11.832275 11.83226l-82.82367 0c-6.5347595 0 -11.832245 -5.2974854 -11.832245 -11.83226z" fill-rule="evenodd"/><path stroke="#000000" stroke-width="1.0" stroke-linejoin="round" stroke-linecap="butt" d="m295.80316 138.88213l0 0c0 -6.534775 5.2974854 -11.83226 11.832245 -11.83226l82.82367 0c3.1381226 0 6.147705 1.2466125 8.366669 3.4655914c2.2189941 2.218979 3.4656067 5.2285614 3.4656067 8.366669l0 47.327606c0 6.534775 -5.2974854 11.83226 -11.832275 11.83226l-82.82367 0c-6.5347595 0 -11.832245 -5.2974854 -11.832245 -11.83226z" fill-rule="evenodd"/><path fill="#000000" d="m346.59375 169.46593l-1.515625 0l0 -13.359375l1.640625 0l0 4.765625q1.046875 -1.296875 2.65625 -1.296875q0.890625 0 1.6875 0.359375q0.796875 0.359375 1.3125 1.015625q0.515625 0.640625 0.796875 1.5625q0.296875 0.921875 0.296875 1.96875q0 2.484375 -1.234375 3.84375q-1.21875 1.359375 -2.953125 1.359375q-1.703125 0 -2.6875 -1.4375l0 1.21875zm-0.015625 -4.90625q0 1.734375 0.484375 2.515625q0.765625 1.265625 2.09375 1.265625q1.078125 0 1.859375 -0.9375q0.78125 -0.9375 0.78125 -2.78125q0 -1.890625 -0.75 -2.796875q-0.75 -0.90625 -1.828125 -0.90625q-1.0625 0 -1.859375 0.9375q-0.78125 0.9375 -0.78125 2.703125z" fill-rule="nonzero"/><path fill="#000000" fill-opacity="0.0" d="m229.33595 300.0l90.33333 0l-18.06665 60.0l-54.200012 0z" fill-rule="evenodd"/><path stroke="#000000" stroke-width="1.0" stroke-linejoin="round" stroke-linecap="butt" d="m229.33595 300.0l90.33333 0l-18.06665 60.0l-54.200012 0z" fill-rule="evenodd"/><path fill="#000000" d="m271.45062 326.01373l0.421875 -1.296875q1.453125 0.515625 2.109375 0.890625q-0.171875 -1.65625 -0.1875 -2.265625l1.328125 0q-0.03125 0.890625 -0.21875 2.25q0.9375 -0.46875 2.15625 -0.875l0.421875 1.296875q-1.15625 0.390625 -2.265625 0.515625q0.546875 0.484375 1.5625 1.71875l-1.09375 0.78125q-0.53125 -0.734375 -1.25 -1.96875q-0.671875 1.28125 -1.1875 1.96875l-1.078125 -0.78125q1.0625 -1.296875 1.515625 -1.71875q-1.171875 -0.234375 -2.234375 -0.515625z" fill-rule="nonzero"/><path fill="#000000" fill-opacity="0.0" d="m349.04724 198.04199l0 131.9685l-38.4252 0" fill-rule="evenodd"/><path stroke="#000000" stroke-width="1.0" stroke-linejoin="round" stroke-linecap="butt" d="m349.04724 198.04199l0 131.9685l-32.4252 0" fill-rule="evenodd"/><path fill="#000000" stroke="#000000" stroke-width="1.0" stroke-linecap="butt" d="m316.62204 328.35876l-4.538086 1.6517334l4.538086 1.6517334z" fill-rule="evenodd"/><path fill="#000000" fill-opacity="0.0" d="m176.09186 198.04199l0 131.9685l62.267715 0" fill-rule="evenodd"/><path stroke="#000000" stroke-width="1.0" stroke-linejoin="round" stroke-linecap="butt" d="m176.09186 198.04199l0 131.9685l56.267715 0" fill-rule="evenodd"/><path fill="#000000" stroke="#000000" stroke-width="1.0" stroke-linecap="butt" d="m232.35957 331.66223l4.538101 -1.6517334l-4.538101 -1.6517334z" fill-rule="evenodd"/><path fill="#000000" fill-opacity="0.0" d="m274.50262 360.0l0 25.000397l-176.25197 0l0 -103.2366" fill-rule="evenodd"/><path stroke="#000000" stroke-width="1.0" stroke-linejoin="round" stroke-linecap="butt" d="m274.50262 360.0l0 25.000397l-176.25197 0l0 -103.2366" fill-rule="evenodd"/><path fill="#000000" fill-opacity="0.0" d="m86.031494 269.75854l0 0c0 -6.6274414 5.464241 -12.0 12.204727 -12.0l0 0c3.2368927 0 6.3412094 1.2642822 8.630043 3.5147095c2.288826 2.2504272 3.5746841 5.3026733 3.5746841 8.485291l0 0c0 6.627411 -5.4642487 12.0 -12.204727 12.0l0 0c-6.740486 0 -12.204727 -5.372589 -12.204727 -12.0z" fill-rule="evenodd"/><path fill="#000000" fill-opacity="0.0" d="m89.60618 261.27325l17.260086 16.97055m0 -16.97055l-17.260086 16.97055" fill-rule="evenodd"/><path fill="#000000" fill-opacity="0.0" d="m86.031494 269.75854l0 0c0 -6.6274414 5.464241 -12.0 12.204727 -12.0l0 0c3.2368927 0 6.3412094 1.2642822 8.630043 3.5147095c2.288826 2.2504272 3.5746841 5.3026733 3.5746841 8.485291l0 0c0 6.627411 -5.4642487 12.0 -12.204727 12.0l0 0c-6.740486 0 -12.204727 -5.372589 -12.204727 -12.0z" fill-rule="evenodd"/><path stroke="#000000" stroke-width="1.0" stroke-linejoin="round" stroke-linecap="butt" d="m89.60618 261.27325l17.260086 16.97055m0 -16.97055l-17.260086 16.97055" fill-rule="evenodd"/><path stroke="#000000" stroke-width="1.0" stroke-linejoin="round" stroke-linecap="butt" d="m86.031494 269.75854l0 0c0 -6.6274414 5.464241 -12.0 12.204727 -12.0l0 0c3.2368927 0 6.3412094 1.2642822 8.630043 3.5147095c2.288826 2.2504272 3.5746841 5.3026733 3.5746841 8.485291l0 0c0 6.627411 -5.4642487 12.0 -12.204727 12.0l0 0c-6.740486 0 -12.204727 -5.372589 -12.204727 -12.0z" fill-rule="evenodd"/><path fill="#000000" fill-opacity="0.0" d="m98.23622 257.75854l0 -95.212616l24.598427 0" fill-rule="evenodd"/><path stroke="#000000" stroke-width="1.0" stroke-linejoin="round" stroke-linecap="butt" d="m98.23622 257.75854l0 -95.212616l18.598427 0" fill-rule="evenodd"/><path fill="#000000" stroke="#000000" stroke-width="1.0" stroke-linecap="butt" d="m116.83465 164.19766l4.5380936 -1.6517334l-4.5380936 -1.6517334z" fill-rule="evenodd"/><path fill="#000000" fill-opacity="0.0" d="m476.58923 300.0l90.33331 0l-18.06665 60.0l-54.19998 0z" fill-rule="evenodd"/><path stroke="#000000" stroke-width="1.0" stroke-linejoin="round" stroke-linecap="butt" d="m476.58923 300.0l90.33331 0l-18.06665 60.0l-54.19998 0z" fill-rule="evenodd"/><path fill="#000000" d="m519.24335 332.90436l0 -1.640625l5.03125 0l0 1.640625l-5.03125 0z" fill-rule="nonzero"/><path fill="#000000" fill-opacity="0.0" d="m522.0026 198.04199l0 50.979446l-0.25195312 0l0 50.973312" fill-rule="evenodd"/><path stroke="#000000" stroke-width="1.0" stroke-linejoin="round" stroke-linecap="butt" d="m522.0026 198.04199l0 50.97943l-0.25195312 0l0 44.973328" fill-rule="evenodd"/><path fill="#000000" stroke="#000000" stroke-width="1.0" stroke-linecap="butt" d="m520.09894 293.99475l1.6517334 4.538086l1.6517334 -4.538086z" fill-rule="evenodd"/><path fill="#000000" fill-opacity="0.0" d="m221.95013 483.8058l369.97076 0l0 -153.79529l-34.033752 0" fill-rule="evenodd"/><path stroke="#000000" stroke-width="1.0" stroke-linejoin="round" stroke-linecap="butt" d="m221.95013 483.8058l369.97083 0l0 -153.79529l-28.033813 0" fill-rule="evenodd"/><path fill="#000000" stroke="#000000" stroke-width="1.0" stroke-linecap="butt" d="m563.88715 328.35876l-4.538086 1.6517334l4.538086 1.6517334z" fill-rule="evenodd"/><path fill="#000000" fill-opacity="0.0" d="m485.62256 330.0l-41.863953 0l0 -167.46457l25.01358 0" fill-rule="evenodd"/><path stroke="#000000" stroke-width="1.0" stroke-linejoin="round" stroke-linecap="butt" d="m485.6226 330.0l-41.863983 0l0 -167.46457l19.01358 0" fill-rule="evenodd"/><path fill="#000000" stroke="#000000" stroke-width="1.0" stroke-linecap="butt" d="m462.7722 164.18716l4.538086 -1.6517334l-4.538086 -1.6517334z" fill-rule="evenodd"/></g></svg>