<svg version="1.1" viewBox="0.0 0.0 936.007874015748 596.6902887139107" fill="none" stroke="none" stroke-linecap="square" stroke-miterlimit="10" xmlns:xlink="http://www.w3.org/1999/xlink" xmlns="http://www.w3.org/2000/svg"><clipPath id="p.0"><path d="m0 0l936.0079 0l0 596.6903l-936.0079 0l0 -596.6903z" clip-rule="nonzero"/></clipPath><g clip-path="url(#p.0)"><path fill="#000000" fill-opacity="0.0" d="m0 0l936.0079 0l0 596.6903l-936.0079 0z" fill-rule="evenodd"/><path fill="#000000" fill-opacity="0.0" d="m97.55118 122.220474l58.897644 0l0 60.0l-58.897644 0z" fill-rule="evenodd"/><path stroke="#000000" stroke-width="1.0" stroke-linejoin="round" stroke-linecap="butt" d="m97.55118 122.220474l58.897644 0l0 60.0l-58.897644 0z" fill-rule="evenodd"/><path fill="#000000" d="m123.04652 162.8436l0 -13.375l1.484375 0l0 1.25q0.53125 -0.734375 1.1875 -1.09375q0.671875 -0.375 1.625 -0.375q1.2343674 0 2.1718674 0.640625q0.953125 0.625 1.4375 1.796875q0.484375 1.15625 0.484375 2.546875q0 1.484375 -0.53125 2.671875q-0.53125 1.1875 -1.546875 1.828125q-1.015625 0.625 -2.1406174 0.625q-0.8125 0 -1.46875 -0.34375q-0.65625 -0.34375 -1.0625 -0.875l0 4.703125l-1.640625 0zm1.484375 -8.484375q0 1.859375 0.75 2.765625q0.765625 0.890625 1.828125 0.890625q1.0937424 0 1.8749924 -0.921875q0.78125 -0.9375 0.78125 -2.875q0 -1.84375 -0.765625 -2.765625q-0.75 -0.921875 -1.8124924 -0.921875q-1.046875 0 -1.859375 0.984375q-0.796875 0.96875 -0.796875 2.84375z" fill-rule="nonzero"/><path fill="#000000" fill-opacity="0.0" d="m354.4357 122.28346l58.897644 0l0 60.0l-58.897644 0z" fill-rule="evenodd"/><path stroke="#000000" stroke-width="1.0" stroke-linejoin="round" stroke-linecap="butt" d="m354.4357 122.28346l58.897644 0l0 60.0l-58.897644 0z" fill-rule="evenodd"/><path fill="#000000" d="m386.76733 155.65659l1.609375 0.21875q-0.265625 1.65625 -1.359375 2.609375q-1.078125 0.9375 -2.671875 0.9375q-1.984375 0 -3.1875 -1.296875q-1.203125 -1.296875 -1.203125 -3.71875q0 -1.578125 0.515625 -2.75q0.515625 -1.171875 1.578125 -1.75q1.0625 -0.59375 2.3125 -0.59375q1.578125 0 2.578125 0.796875q1.0 0.796875 1.28125 2.265625l-1.59375 0.234375q-0.234375 -0.96875 -0.8125 -1.453125q-0.578125 -0.5 -1.390625 -0.5q-1.234375 0 -2.015625 0.890625q-0.78125 0.890625 -0.78125 2.8125q0 1.953125 0.75 2.84375q0.75 0.875 1.953125 0.875q0.96875 0 1.609375 -0.59375q0.65625 -0.59375 0.828125 -1.828125z" fill-rule="nonzero"/><path fill="#000000" fill-opacity="0.0" d="m668.2126 122.25197l58.897644 0l0 60.0l-58.897644 0z" fill-rule="evenodd"/><path stroke="#000000" stroke-width="1.0" stroke-linejoin="round" stroke-linecap="butt" d="m668.2126 122.25197l58.897644 0l0 60.0l-58.897644 0z" fill-rule="evenodd"/><path fill="#000000" d="m693.70795 159.17197l0 -9.671875l1.46875 0l0 1.375q1.0625 -1.59375 3.078125 -1.59375q0.875 0 1.609375 0.3125q0.734375 0.3125 1.09375 0.828125q0.375 0.5 0.515625 1.203125q0.09375 0.453125 0.09375 1.59375l0 5.953125l-1.640625 0l0 -5.890625q0 -1.0 -0.203125 -1.484375q-0.1875 -0.5 -0.671875 -0.796875q-0.484375 -0.296875 -1.140625 -0.296875q-1.046875 0 -1.8125 0.671875q-0.75 0.65625 -0.75 2.515625l0 5.28125l-1.640625 0z" fill-rule="nonzero"/><path fill="#000000" fill-opacity="0.0" d="m532.4383 152.22047l0 0c0 -12.567734 10.188171 -22.755905 22.75592 -22.755905l0 0c6.0352783 0 11.823303 2.3974915 16.090881 6.6650543c4.267517 4.2675476 6.665039 10.055603 6.665039 16.09085l0 0c0 12.567734 -10.188171 22.755905 -22.75592 22.755905l0 0c-12.567749 0 -22.75592 -10.188171 -22.75592 -22.755905z" fill-rule="evenodd"/><path stroke="#000000" stroke-width="1.0" stroke-linejoin="round" stroke-linecap="butt" d="m532.4383 152.22047l0 0c0 -12.567734 10.188171 -22.755905 22.75592 -22.755905l0 0c6.0352783 0 11.823303 2.3974915 16.090881 6.6650543c4.267517 4.2675476 6.665039 10.055603 6.665039 16.09085l0 0c0 12.567734 -10.188171 22.755905 -22.75592 22.755905l0 0c-12.567749 0 -22.75592 -10.188171 -22.75592 -22.755905z" fill-rule="evenodd"/><path fill="#000000" d="m559.60614 153.29672l-8.84375 3.78125l0 -1.625l7.015625 -2.90625l-7.015625 -2.875l0 -1.640625l8.84375 3.734375l0 1.53125z" fill-rule="nonzero"/><path fill="#000000" fill-opacity="0.0" d="m97.58268 65.20998l29.448814 -60.000004l29.448822 60.000004z" fill-rule="evenodd"/><path stroke="#000000" stroke-width="1.0" stroke-linejoin="round" stroke-linecap="butt" d="m97.58268 65.20998l29.448814 -60.000004l29.448822 60.000004z" fill-rule="evenodd"/><path fill="#000000" d="m128.79677 52.12997l-1.6406326 0l0 -10.453125q-0.59375 0.5625 -1.5625 1.140625q-0.953125 0.5625 -1.71875 0.84375l0 -1.59375q1.375 -0.640625 2.40625 -1.5625q1.03125 -0.921875 1.453125 -1.78125l1.0625076 0l0 13.40625z" fill-rule="nonzero"/><path fill="#000000" fill-opacity="0.0" d="m314.99475 65.20998l29.448822 -60.000004l29.448822 60.000004z" fill-rule="evenodd"/><path stroke="#000000" stroke-width="1.0" stroke-linejoin="round" stroke-linecap="butt" d="m314.99475 65.20998l29.448822 -60.000004l29.448822 60.000004z" fill-rule="evenodd"/><path fill="#000000" d="m346.20883 52.12997l-1.640625 0l0 -10.453125q-0.59375 0.5625 -1.5625 1.140625q-0.953125 0.5625 -1.71875 0.84375l0 -1.59375q1.375 -0.640625 2.40625 -1.5625q1.03125 -0.921875 1.453125 -1.78125l1.0625 0l0 13.40625z" fill-rule="nonzero"/><path fill="#000000" fill-opacity="0.0" d="m190.00262 244.44357l106.66666 0l-21.333313 71.111115l-64.000015 0z" fill-rule="evenodd"/><path stroke="#000000" stroke-width="1.0" stroke-linejoin="round" stroke-linecap="butt" d="m190.00262 244.44357l106.66666 0l-21.333313 71.111115l-64.000015 0z" fill-rule="evenodd"/><path fill="#000000" d="m236.80275 273.57968l0.90625 -2.78125q3.09375 1.09375 4.5 1.890625q-0.359375 -3.53125 -0.390625 -4.859375l2.84375 0q-0.0625 1.9375 -0.453125 4.84375q2.015625 -1.015625 4.609375 -1.875l0.890625 2.78125q-2.46875 0.8125 -4.859375 1.09375q1.1875 1.03125 3.359375 3.6875l-2.34375 1.65625q-1.125 -1.546875 -2.671875 -4.203125q-1.453125 2.765625 -2.546875 4.203125l-2.296875 -1.65625q2.265625 -2.796875 3.234375 -3.6875q-2.515625 -0.5 -4.78125 -1.09375z" fill-rule="nonzero"/><path fill="#000000" fill-opacity="0.0" d="m156.44882 152.22047l16.776794 0l0 127.779526l27.44368 0" fill-rule="evenodd"/><path stroke="#000000" stroke-width="1.0" stroke-linejoin="round" stroke-linecap="butt" d="m156.44882 152.22047l16.776794 0l0 127.779526l21.44368 0" fill-rule="evenodd"/><path fill="#000000" stroke="#000000" stroke-width="1.0" stroke-linecap="butt" d="m194.6693 281.65173l4.538086 -1.6517334l-4.538086 -1.6517334z" fill-rule="evenodd"/><path fill="#000000" fill-opacity="0.0" d="m354.4357 152.28346l-28.883453 0l0 127.71654l-39.557495 0" fill-rule="evenodd"/><path stroke="#000000" stroke-width="1.0" stroke-linejoin="round" stroke-linecap="butt" d="m354.4357 152.28346l-28.883453 0l0 127.71654l-33.557495 0" fill-rule="evenodd"/><path fill="#000000" stroke="#000000" stroke-width="1.0" stroke-linecap="butt" d="m291.99475 278.34827l-4.538086 1.6517334l4.538086 1.6517334z" fill-rule="evenodd"/><path fill="#000000" fill-opacity="0.0" d="m221.66667 416.11285l0 0c0 -11.967621 9.70166 -21.669281 21.669281 -21.669281l0 0c5.747055 0 11.258728 2.2829895 15.3224945 6.3467712c4.0637817 4.0637817 6.3468018 9.57547 6.3468018 15.32251l0 0c0 11.967621 -9.701675 21.669312 -21.669296 21.669312l0 0c-11.967621 0 -21.669281 -9.701691 -21.669281 -21.669312z" fill-rule="evenodd"/><path fill="#000000" fill-opacity="0.0" d="m228.01346 400.79034l30.644989 30.64502m0 -30.64502l-30.644989 30.64502" fill-rule="evenodd"/><path fill="#000000" fill-opacity="0.0" d="m221.66667 416.11285l0 0c0 -11.967621 9.70166 -21.669281 21.669281 -21.669281l0 0c5.747055 0 11.258728 2.2829895 15.3224945 6.3467712c4.0637817 4.0637817 6.3468018 9.57547 6.3468018 15.32251l0 0c0 11.967621 -9.701675 21.669312 -21.669296 21.669312l0 0c-11.967621 0 -21.669281 -9.701691 -21.669281 -21.669312z" fill-rule="evenodd"/><path stroke="#000000" stroke-width="1.0" stroke-linejoin="round" stroke-linecap="butt" d="m228.01346 400.79034l30.644989 30.64502m0 -30.64502l-30.644989 30.64502" fill-rule="evenodd"/><path stroke="#000000" stroke-width="1.0" stroke-linejoin="round" stroke-linecap="butt" d="m221.66667 416.11285l0 0c0 -11.967621 9.70166 -21.669281 21.669281 -21.669281l0 0c5.747055 0 11.258728 2.2829895 15.3224945 6.3467712c4.0637817 4.0637817 6.3468018 9.57547 6.3468018 15.32251l0 0c0 11.967621 -9.701675 21.669312 -21.669296 21.669312l0 0c-11.967621 0 -21.669281 -9.701691 -21.669281 -21.669312z" fill-rule="evenodd"/><path fill="#000000" fill-opacity="0.0" d="m213.88715 516.67194l58.897644 0l0 60.0l-58.897644 0z" fill-rule="evenodd"/><path stroke="#000000" stroke-width="1.0" stroke-linejoin="round" stroke-linecap="butt" d="m213.88715 516.67194l58.897644 0l0 60.0l-58.897644 0z" fill-rule="evenodd"/><path fill="#000000" d="m240.36894 552.12317l0.234375 1.453125q-0.6875 0.140625 -1.234375 0.140625q-0.890625 0 -1.390625 -0.28125q-0.484375 -0.28125 -0.6875 -0.734375q-0.203125 -0.46875 -0.203125 -1.9375l0 -5.578125l-1.203125 0l0 -1.265625l1.203125 0l0 -2.390625l1.625 -0.984375l0 3.375l1.65625 0l0 1.265625l-1.65625 0l0 5.671875q0 0.6875 0.078125 0.890625q0.09375 0.203125 0.28125 0.328125q0.203125 0.109375 0.578125 0.109375q0.265625 0 0.71875 -0.0625zm7.323929 1.46875l-1.640625 0l0 -10.453125q-0.59375 0.5625 -1.5625 1.140625q-0.953125 0.5625 -1.71875 0.84375l0 -1.59375q1.375 -0.640625 2.40625 -1.5625q1.03125 -0.921875 1.453125 -1.78125l1.0625 0l0 13.40625z" fill-rule="nonzero"/><path fill="#000000" fill-opacity="0.0" d="m243.33595 315.5547l0 78.897644" fill-rule="evenodd"/><path stroke="#000000" stroke-width="1.0" stroke-linejoin="round" stroke-linecap="butt" d="m243.33595 315.5547l0 78.897644" fill-rule="evenodd"/><path fill="#000000" fill-opacity="0.0" d="m243.33595 437.78217l0 78.897644" fill-rule="evenodd"/><path stroke="#000000" stroke-width="1.0" stroke-linejoin="round" stroke-linecap="butt" d="m243.33595 437.78217l0 72.89761" fill-rule="evenodd"/><path fill="#000000" stroke="#000000" stroke-width="1.0" stroke-linecap="butt" d="m241.68422 510.67978l1.6517334 4.5381165l1.6517334 -4.5381165z" fill-rule="evenodd"/><path fill="#000000" fill-opacity="0.0" d="m413.33334 244.44357l106.66666 0l-21.333344 71.111115l-64.0 0z" fill-rule="evenodd"/><path stroke="#000000" stroke-width="1.0" stroke-linejoin="round" stroke-linecap="butt" d="m413.33334 244.44357l106.66666 0l-21.333344 71.111115l-64.0 0z" fill-rule="evenodd"/><path fill="#000000" d="m465.0026 292.32968l0 -7.859375l-7.78125 0l0 -3.28125l7.78125 0l0 -7.796875l3.328125 0l0 7.796875l7.796875 0l0 3.28125l-7.796875 0l0 7.859375l-3.328125 0z" fill-rule="nonzero"/><path fill="#000000" fill-opacity="0.0" d="m559.82416 309.9987l29.448792 -60.0l29.448853 60.0z" fill-rule="evenodd"/><path stroke="#000000" stroke-width="1.0" stroke-linejoin="round" stroke-linecap="butt" d="m559.82416 309.9987l29.448792 -60.0l29.448853 60.0z" fill-rule="evenodd"/><path fill="#000000" d="m591.0382 296.91867l-1.640625 0l0 -10.453125q-0.59375 0.5625 -1.5625 1.140625q-0.953125 0.5625 -1.71875 0.84375l0 -1.59375q1.375 -0.640625 2.40625 -1.5625q1.03125 -0.921875 1.453125 -1.78125l1.0625 0l0 13.40625z" fill-rule="nonzero"/><path fill="#000000" fill-opacity="0.0" d="m574.5486 279.9987l-65.22836 0" fill-rule="evenodd"/><path stroke="#000000" stroke-width="1.0" stroke-linejoin="round" stroke-linecap="butt" d="m574.5486 279.9987l-59.228394 0" fill-rule="evenodd"/><path fill="#000000" stroke="#000000" stroke-width="1.0" stroke-linecap="butt" d="m515.3202 278.34695l-4.538086 1.6517334l4.538086 1.6517334z" fill-rule="evenodd"/><path fill="#000000" fill-opacity="0.0" d="m383.88452 182.28346l0 31.079773l82.77164 0l0 31.09346" fill-rule="evenodd"/><path stroke="#000000" stroke-width="1.0" stroke-linejoin="round" stroke-linecap="butt" d="m383.88452 182.28346l0 31.079773l82.77164 0l0 25.09346" fill-rule="evenodd"/><path fill="#000000" stroke="#000000" stroke-width="1.0" stroke-linecap="butt" d="m465.00443 238.4567l1.6517334 4.538101l1.6517334 -4.538101z" fill-rule="evenodd"/><path fill="#000000" fill-opacity="0.0" d="m413.33334 152.28346l59.55191 0l0 -0.06298828l59.566162 0" fill-rule="evenodd"/><path stroke="#000000" stroke-width="1.0" stroke-linejoin="round" stroke-linecap="butt" d="m413.33334 152.28346l59.55191 0l0 -0.06298828l53.566162 0" fill-rule="evenodd"/><path fill="#000000" stroke="#000000" stroke-width="1.0" stroke-linecap="butt" d="m526.4514 153.87221l4.538147 -1.6517334l-4.538147 -1.6517334z" fill-rule="evenodd"/><path fill="#000000" fill-opacity="0.0" d="m668.2126 152.25197l-45.131165 0l0 0.06298828l-45.136536 0" fill-rule="evenodd"/><path stroke="#000000" stroke-width="1.0" stroke-linejoin="round" stroke-linecap="butt" d="m668.2126 152.25197l-45.131165 0l0 0.06298828l-39.136536 0" fill-rule="evenodd"/><path fill="#000000" stroke="#000000" stroke-width="1.0" stroke-linecap="butt" d="m583.9449 150.66322l-4.538086 1.6517334l4.538086 1.6517334z" fill-rule="evenodd"/><path fill="#000000" fill-opacity="0.0" d="m444.99738 416.11285l0 0c0 -11.967621 9.70166 -21.669281 21.669281 -21.669281l0 0c5.7470703 0 11.258728 2.2829895 15.32251 6.3467712c4.0637817 4.0637817 6.3468018 9.57547 6.3468018 15.32251l0 0c0 11.967621 -9.701691 21.669312 -21.669312 21.669312l0 0c-11.967621 0 -21.669281 -9.701691 -21.669281 -21.669312z" fill-rule="evenodd"/><path fill="#000000" fill-opacity="0.0" d="m451.34418 400.79034l30.644989 30.64502m0 -30.64502l-30.644989 30.64502" fill-rule="evenodd"/><path fill="#000000" fill-opacity="0.0" d="m444.99738 416.11285l0 0c0 -11.967621 9.70166 -21.669281 21.669281 -21.669281l0 0c5.7470703 0 11.258728 2.2829895 15.32251 6.3467712c4.0637817 4.0637817 6.3468018 9.57547 6.3468018 15.32251l0 0c0 11.967621 -9.701691 21.669312 -21.669312 21.669312l0 0c-11.967621 0 -21.669281 -9.701691 -21.669281 -21.669312z" fill-rule="evenodd"/><path stroke="#000000" stroke-width="1.0" stroke-linejoin="round" stroke-linecap="butt" d="m451.34418 400.79034l30.644989 30.64502m0 -30.64502l-30.644989 30.64502" fill-rule="evenodd"/><path stroke="#000000" stroke-width="1.0" stroke-linejoin="round" stroke-linecap="butt" d="m444.99738 416.11285l0 0c0 -11.967621 9.70166 -21.669281 21.669281 -21.669281l0 0c5.7470703 0 11.258728 2.2829895 15.32251 6.3467712c4.0637817 4.0637817 6.3468018 9.57547 6.3468018 15.32251l0 0c0 11.967621 -9.701691 21.669312 -21.669312 21.669312l0 0c-11.967621 0 -21.669281 -9.701691 -21.669281 -21.669312z" fill-rule="evenodd"/><path fill="#000000" fill-opacity="0.0" d="m437.21783 516.67194l58.897644 0l0 60.0l-58.897644 0z" fill-rule="evenodd"/><path stroke="#000000" stroke-width="1.0" stroke-linejoin="round" stroke-linecap="butt" d="m437.21783 516.67194l58.897644 0l0 60.0l-58.897644 0z" fill-rule="evenodd"/><path fill="#000000" d="m463.69965 552.12317l0.234375 1.453125q-0.6875 0.140625 -1.234375 0.140625q-0.890625 0 -1.390625 -0.28125q-0.484375 -0.28125 -0.6875 -0.734375q-0.203125 -0.46875 -0.203125 -1.9375l0 -5.578125l-1.203125 0l0 -1.265625l1.203125 0l0 -2.390625l1.625 -0.984375l0 3.375l1.65625 0l0 1.265625l-1.65625 0l0 5.671875q0 0.6875 0.078125 0.890625q0.09375 0.203125 0.28125 0.328125q0.203125 0.109375 0.578125 0.109375q0.265625 0 0.71875 -0.0625zm9.761444 -0.109375l0 1.578125l-8.828125 0q-0.015625 -0.59375 0.1875 -1.140625q0.34375 -0.90625 1.078125 -1.78125q0.75 -0.875 2.15625 -2.015625q2.171875 -1.78125 2.9375 -2.828125q0.765625 -1.046875 0.765625 -1.96875q0 -0.984375 -0.703125 -1.640625q-0.6875 -0.671875 -1.8125 -0.671875q-1.1875 0 -1.90625 0.71875q-0.703125 0.703125 -0.703125 1.953125l-1.6875 -0.171875q0.171875 -1.890625 1.296875 -2.875q1.140625 -0.984375 3.03125 -0.984375q1.921875 0 3.046875 1.0625q1.125 1.0625 1.125 2.640625q0 0.796875 -0.328125 1.578125q-0.328125 0.78125 -1.09375 1.640625q-0.75 0.84375 -2.53125 2.34375q-1.46875 1.234375 -1.890625 1.6875q-0.421875 0.4375 -0.6875 0.875l6.546875 0z" fill-rule="nonzero"/><path fill="#000000" fill-opacity="0.0" d="m466.66666 315.5547l0 78.897644" fill-rule="evenodd"/><path stroke="#000000" stroke-width="1.0" stroke-linejoin="round" stroke-linecap="butt" d="m466.66666 315.5547l0 78.897644" fill-rule="evenodd"/><path fill="#000000" fill-opacity="0.0" d="m466.66666 437.78217l0 78.897644" fill-rule="evenodd"/><path stroke="#000000" stroke-width="1.0" stroke-linejoin="round" stroke-linecap="butt" d="m466.66666 437.78217l0 72.89761" fill-rule="evenodd"/><path fill="#000000" stroke="#000000" stroke-width="1.0" stroke-linecap="butt" d="m465.01492 510.67978l1.6517334 4.5381165l1.6517334 -4.5381165z" fill-rule="evenodd"/><path fill="#000000" fill-opacity="0.0" d="m105.33071 416.11285l0 0c0 -11.967621 9.701668 -21.669281 21.669289 -21.669281l0 0c5.747055 0 11.258728 2.2829895 15.32251 6.3467712c4.0637665 4.0637817 6.3467865 9.57547 6.3467865 15.32251l0 0c0 11.967621 -9.701675 21.669312 -21.669296 21.669312l0 0c-11.967621 0 -21.669289 -9.701691 -21.669289 -21.669312z" fill-rule="evenodd"/><path fill="#000000" fill-opacity="0.0" d="m111.6775 400.79034l30.645012 30.64502m0 -30.64502l-30.645012 30.64502" fill-rule="evenodd"/><path fill="#000000" fill-opacity="0.0" d="m105.33071 416.11285l0 0c0 -11.967621 9.701668 -21.669281 21.669289 -21.669281l0 0c5.747055 0 11.258728 2.2829895 15.32251 6.3467712c4.0637665 4.0637817 6.3467865 9.57547 6.3467865 15.32251l0 0c0 11.967621 -9.701675 21.669312 -21.669296 21.669312l0 0c-11.967621 0 -21.669289 -9.701691 -21.669289 -21.669312z" fill-rule="evenodd"/><path stroke="#000000" stroke-width="1.0" stroke-linejoin="round" stroke-linecap="butt" d="m111.6775 400.79034l30.645012 30.64502m0 -30.64502l-30.645012 30.64502" fill-rule="evenodd"/><path stroke="#000000" stroke-width="1.0" stroke-linejoin="round" stroke-linecap="butt" d="m105.33071 416.11285l0 0c0 -11.967621 9.701668 -21.669281 21.669289 -21.669281l0 0c5.747055 0 11.258728 2.2829895 15.32251 6.3467712c4.0637665 4.0637817 6.3467865 9.57547 6.3467865 15.32251l0 0c0 11.967621 -9.701675 21.669312 -21.669296 21.669312l0 0c-11.967621 0 -21.669289 -9.701691 -21.669289 -21.669312z" fill-rule="evenodd"/><path fill="#000000" fill-opacity="0.0" d="m213.88715 546.67194l-86.897644 0l0 -108.8819" fill-rule="evenodd"/><path stroke="#000000" stroke-width="1.0" stroke-linejoin="round" stroke-linecap="butt" d="m213.88715 546.67194l-86.897644 0l0 -108.8819" fill-rule="evenodd"/><path fill="#000000" fill-opacity="0.0" d="m127.0 394.44357l0 -106.112366l0.06299591 0l0 -106.10811" fill-rule="evenodd"/><path stroke="#000000" stroke-width="1.0" stroke-linejoin="round" stroke-linecap="butt" d="m127.0 394.44357l0 -106.112366l0.06299591 0l0 -100.10811" fill-rule="evenodd"/><path fill="#000000" stroke="#000000" stroke-width="1.0" stroke-linecap="butt" d="m128.71472 188.2231l-1.6517258 -4.538101l-1.6517334 4.538101z" fill-rule="evenodd"/><path fill="#000000" fill-opacity="0.0" d="m127.031494 65.20998l0 28.505074l0.06299591 0l0 28.5028" fill-rule="evenodd"/><path stroke="#000000" stroke-width="1.0" stroke-linejoin="round" stroke-linecap="butt" d="m127.031494 65.20998l0 28.505074l0.06299591 0l0 22.5028" fill-rule="evenodd"/><path fill="#000000" stroke="#000000" stroke-width="1.0" stroke-linecap="butt" d="m125.44276 116.21785l1.6517334 4.5380936l1.6517258 -4.5380936z" fill-rule="evenodd"/><path fill="#000000" fill-opacity="0.0" d="m344.44357 65.20998l0 28.536575l39.433075 0l0 28.534286" fill-rule="evenodd"/><path stroke="#000000" stroke-width="1.0" stroke-linejoin="round" stroke-linecap="butt" d="m344.44357 65.20998l0 28.536568l39.433075 0l0 22.534294" fill-rule="evenodd"/><path fill="#000000" stroke="#000000" stroke-width="1.0" stroke-linecap="butt" d="m382.2249 116.28084l1.6517334 4.538101l1.6517334 -4.538101z" fill-rule="evenodd"/><path fill="#000000" fill-opacity="0.0" d="m10.643044 394.44357l86.89764 0l0 43.338593l-86.89764 0z" fill-rule="evenodd"/><path fill="#000000" d="m20.87742 425.06668l0 -13.375l1.484375 0l0 1.25q0.53125 -0.734375 1.1875 -1.09375q0.671875 -0.375 1.625 -0.375q1.234375 0 2.171875 0.640625q0.953125 0.625 1.4375 1.796875q0.484375 1.15625 0.484375 2.546875q0 1.484375 -0.53125 2.671875q-0.53125 1.1875 -1.546875 1.828125q-1.015625 0.625 -2.140625 0.625q-0.8125 0 -1.46875 -0.34375q-0.65625 -0.34375 -1.0625 -0.875l0 4.703125l-1.640625 0zm1.484375 -8.484375q0 1.859375 0.75 2.765625q0.765625 0.890625 1.828125 0.890625q1.09375 0 1.875 -0.921875q0.78125 -0.9375 0.78125 -2.875q0 -1.84375 -0.765625 -2.765625q-0.75 -0.921875 -1.8125 -0.921875q-1.046875 0 -1.859375 0.984375q-0.796875 0.96875 -0.796875 2.84375zm13.855894 -1.0625l0 -1.53125l8.84375 -3.734375l0 1.640625l-7.015625 2.875l7.015625 2.90625l0 1.625l-8.84375 -3.78125zm10.4730835 1.828125l0 -1.640625l5.03125 0l0 1.640625l-5.03125 0zm15.614731 2.546875l0.234375 1.453125q-0.6875 0.140625 -1.234375 0.140625q-0.890625 0 -1.390625 -0.28125q-0.484375 -0.28125 -0.6875 -0.734375q-0.203125 -0.46875 -0.203125 -1.9375l0 -5.578125l-1.203125 0l0 -1.265625l1.203125 0l0 -2.390625l1.625 -0.984375l0 3.375l1.65625 0l0 1.265625l-1.65625 0l0 5.671875q0 0.6875 0.078125 0.890625q0.09375 0.203125 0.28125 0.328125q0.203125 0.109375 0.578125 0.109375q0.265625 0 0.71875 -0.0625zm7.323929 1.46875l-1.640625 0l0 -10.453125q-0.59375 0.5625 -1.5625 1.140625q-0.953125 0.5625 -1.71875 0.84375l0 -1.59375q1.375 -0.640625 2.40625 -1.5625q1.03125 -0.921875 1.453125 -1.78125l1.0625 0l0 13.40625z" fill-rule="nonzero"/><path fill="#000000" fill-opacity="0.0" d="m285.99344 394.44357l86.897644 0l0 43.338593l-86.897644 0z" fill-rule="evenodd"/><path fill="#000000" d="m299.80594 419.8948l0.234375 1.453125q-0.6875 0.140625 -1.234375 0.140625q-0.890625 0 -1.390625 -0.28125q-0.484375 -0.28125 -0.6875 -0.734375q-0.203125 -0.46875 -0.203125 -1.9375l0 -5.578125l-1.203125 0l0 -1.265625l1.203125 0l0 -2.390625l1.625 -0.984375l0 3.375l1.65625 0l0 1.265625l-1.65625 0l0 5.671875q0 0.6875 0.078125 0.890625q0.09375 0.203125 0.28125 0.328125q0.203125 0.109375 0.578125 0.109375q0.265625 0 0.71875 -0.0625zm7.3239136 1.46875l-1.640625 0l0 -10.453125q-0.59375 0.5625 -1.5625 1.140625q-0.953125 0.5625 -1.71875 0.84375l0 -1.59375q1.375 -0.640625 2.40625 -1.5625q1.03125 -0.921875 1.453125 -1.78125l1.0625 0l0 13.40625zm9.621521 -5.84375l0 -1.53125l8.84375 -3.734375l0 1.640625l-7.015625 2.875l7.015625 2.90625l0 1.625l-8.84375 -3.78125zm10.4730835 1.828125l0 -1.640625l5.03125 0l0 1.640625l-5.03125 0zm11.380371 -6.890625l0.421875 -1.296875q1.453125 0.515625 2.109375 0.890625q-0.171875 -1.65625 -0.1875 -2.265625l1.328125 0q-0.03125 0.890625 -0.21875 2.25q0.9375 -0.46875 2.15625 -0.875l0.421875 1.296875q-1.15625 0.390625 -2.265625 0.515625q0.546875 0.484375 1.5625 1.71875l-1.09375 0.78125q-0.53125 -0.734375 -1.25 -1.96875q-0.671875 1.28125 -1.1875 1.96875l-1.078125 -0.78125q1.0625 -1.296875 1.515625 -1.71875q-1.171875 -0.234375 -2.234375 -0.515625z" fill-rule="nonzero"/><path fill="#000000" fill-opacity="0.0" d="m498.48425 394.44357l86.897644 0l0 43.338593l-86.897644 0z" fill-rule="evenodd"/><path fill="#000000" d="m512.29675 419.8948l0.234375 1.453125q-0.6875 0.140625 -1.234375 0.140625q-0.890625 0 -1.390625 -0.28125q-0.484375 -0.28125 -0.6875 -0.734375q-0.203125 -0.46875 -0.203125 -1.9375l0 -5.578125l-1.203125 0l0 -1.265625l1.203125 0l0 -2.390625l1.625 -0.984375l0 3.375l1.65625 0l0 1.265625l-1.65625 0l0 5.671875q0 0.6875 0.078125 0.890625q0.09375 0.203125 0.28125 0.328125q0.203125 0.109375 0.578125 0.109375q0.265625 0 0.71875 -0.0625zm9.761414 -0.109375l0 1.578125l-8.828125 0q-0.015625 -0.59375 0.1875 -1.140625q0.34375 -0.90625 1.078125 -1.78125q0.75 -0.875 2.15625 -2.015625q2.171875 -1.78125 2.9375 -2.828125q0.765625 -1.046875 0.765625 -1.96875q0 -0.984375 -0.703125 -1.640625q-0.6875 -0.671875 -1.8125 -0.671875q-1.1875 0 -1.90625 0.71875q-0.703125 0.703125 -0.703125 1.953125l-1.6875 -0.171875q0.171875 -1.890625 1.296875 -2.875q1.140625 -0.984375 3.03125 -0.984375q1.921875 0 3.046875 1.0625q1.125 1.0625 1.125 2.640625q0 0.796875 -0.328125 1.578125q-0.328125 0.78125 -1.09375 1.640625q-0.75 0.84375 -2.53125 2.34375q-1.46875 1.234375 -1.890625 1.6875q-0.421875 0.4375 -0.6875 0.875l6.546875 0zm7.184021 -4.265625l0 -1.53125l8.84375 -3.734375l0 1.640625l-7.015625 2.875l7.015625 2.90625l0 1.625l-8.84375 -3.78125zm10.4730835 1.828125l0 -1.640625l5.03125 0l0 1.640625l-5.03125 0zm15.474121 1.859375l0 -3.671875l-3.640625 0l0 -1.515625l3.640625 0l0 -3.640625l1.546875 0l0 3.640625l3.640625 0l0 1.515625l-3.640625 0l0 3.671875l-1.546875 0z" fill-rule="nonzero"/><path fill="#000000" fill-opacity="0.0" d="m742.61945 416.11285l0 0c0 -11.967621 9.70166 -21.669281 21.66925 -21.669281l0 0c5.7470703 0 11.258728 2.2829895 15.32251 6.3467712c4.0637817 4.0637817 6.3468018 9.57547 6.3468018 15.32251l0 0c0 11.967621 -9.70166 21.669312 -21.669312 21.669312l0 0c-11.96759 0 -21.66925 -9.701691 -21.66925 -21.669312z" fill-rule="evenodd"/><path fill="#000000" fill-opacity="0.0" d="m748.9662 400.79034l30.64502 30.64502m0 -30.64502l-30.64502 30.64502" fill-rule="evenodd"/><path fill="#000000" fill-opacity="0.0" d="m742.61945 416.11285l0 0c0 -11.967621 9.70166 -21.669281 21.66925 -21.669281l0 0c5.7470703 0 11.258728 2.2829895 15.32251 6.3467712c4.0637817 4.0637817 6.3468018 9.57547 6.3468018 15.32251l0 0c0 11.967621 -9.70166 21.669312 -21.669312 21.669312l0 0c-11.96759 0 -21.66925 -9.701691 -21.66925 -21.669312z" fill-rule="evenodd"/><path stroke="#000000" stroke-width="1.0" stroke-linejoin="round" stroke-linecap="butt" d="m748.9662 400.79034l30.64502 30.64502m0 -30.64502l-30.64502 30.64502" fill-rule="evenodd"/><path stroke="#000000" stroke-width="1.0" stroke-linejoin="round" stroke-linecap="butt" d="m742.61945 416.11285l0 0c0 -11.967621 9.70166 -21.669281 21.66925 -21.669281l0 0c5.7470703 0 11.258728 2.2829895 15.32251 6.3467712c4.0637817 4.0637817 6.3468018 9.57547 6.3468018 15.32251l0 0c0 11.967621 -9.70166 21.669312 -21.669312 21.669312l0 0c-11.96759 0 -21.66925 -9.701691 -21.66925 -21.669312z" fill-rule="evenodd"/><path fill="#000000" fill-opacity="0.0" d="m840.5315 394.44357l86.897644 0l0 43.338593l-86.897644 0z" fill-rule="evenodd"/><path fill="#000000" d="m857.07837 417.81668l1.609375 0.21875q-0.265625 1.65625 -1.359375 2.609375q-1.078125 0.9375 -2.671875 0.9375q-1.984375 0 -3.1875 -1.296875q-1.203125 -1.296875 -1.203125 -3.71875q0 -1.578125 0.515625 -2.75q0.515625 -1.171875 1.578125 -1.75q1.0625 -0.59375 2.3125 -0.59375q1.578125 0 2.578125 0.796875q1.0 0.796875 1.28125 2.265625l-1.59375 0.234375q-0.234375 -0.96875 -0.8125 -1.453125q-0.578125 -0.5 -1.390625 -0.5q-1.234375 0 -2.015625 0.890625q-0.78125 0.890625 -0.78125 2.8125q0 1.953125 0.75 2.84375q0.75 0.875 1.953125 0.875q0.96875 0 1.609375 -0.59375q0.65625 -0.59375 0.828125 -1.828125zm7.9801636 -2.296875l0 -1.53125l8.84375 -3.734375l0 1.640625l-7.015625 2.875l7.015625 2.90625l0 1.625l-8.84375 -3.78125zm10.4730835 1.828125l0 -1.640625l5.03125 0l0 1.640625l-5.03125 0zm15.614746 2.546875l0.234375 1.453125q-0.6875 0.140625 -1.234375 0.140625q-0.890625 0 -1.390625 -0.28125q-0.484375 -0.28125 -0.6875 -0.734375q-0.203125 -0.46875 -0.203125 -1.9375l0 -5.578125l-1.203125 0l0 -1.265625l1.203125 0l0 -2.390625l1.625 -0.984375l0 3.375l1.65625 0l0 1.265625l-1.65625 0l0 5.671875q0 0.6875 0.078125 0.890625q0.09375 0.203125 0.28125 0.328125q0.203125 0.109375 0.578125 0.109375q0.265625 0 0.71875 -0.0625zm9.761414 -0.109375l0 1.578125l-8.828125 0q-0.015625 -0.59375 0.1875 -1.140625q0.34375 -0.90625 1.078125 -1.78125q0.75 -0.875 2.15625 -2.015625q2.171875 -1.78125 2.9375 -2.828125q0.765625 -1.046875 0.765625 -1.96875q0 -0.984375 -0.703125 -1.640625q-0.6875 -0.671875 -1.8125 -0.671875q-1.1875 0 -1.90625 0.71875q-0.703125 0.703125 -0.703125 1.953125l-1.6875 -0.171875q0.171875 -1.890625 1.296875 -2.875q1.140625 -0.984375 3.03125 -0.984375q1.921875 0 3.046875 1.0625q1.125 1.0625 1.125 2.640625q0 0.796875 -0.328125 1.578125q-0.328125 0.78125 -1.09375 1.640625q-0.75 0.84375 -2.53125 2.34375q-1.46875 1.234375 -1.890625 1.6875q-0.421875 0.4375 -0.6875 0.875l6.546875 0z" fill-rule="nonzero"/><path fill="#000000" fill-opacity="0.0" d="m496.11548 546.67194l268.18896 0l0 -108.8819" fill-rule="evenodd"/><path stroke="#000000" stroke-width="1.0" stroke-linejoin="round" stroke-linecap="butt" d="m496.11548 546.67194l268.18896 0l0 -102.8819" fill-rule="evenodd"/><path fill="#000000" stroke="#000000" stroke-width="1.0" stroke-linecap="butt" d="m765.9562 443.79004l-1.6517334 -4.5381165l-1.6517334 4.5381165z" fill-rule="evenodd"/><path fill="#000000" fill-opacity="0.0" d="m764.2887 394.44357l0 -297.16058l-380.40942 0l0 25.003105" fill-rule="evenodd"/><path stroke="#000000" stroke-width="1.0" stroke-linejoin="round" stroke-linecap="butt" d="m764.2887 394.44357l0 -297.16058l-380.40942 0l0 25.003105" fill-rule="evenodd"/></g></svg>